{"glyphs":{"0":{"ha":972,"x_min":56,"x_max":917,"o":"m 486 -14 q 312 26 391 -14 q 175 137 233 65 q 87 307 118 209 q 56 521 56 405 q 89 735 56 637 q 181 905 122 833 q 318 1016 240 976 q 486 1056 396 1056 q 655 1016 576 1056 q 792 905 733 976 q 884 735 851 833 q 917 521 917 637 q 885 307 917 405 q 797 137 854 209 q 660 26 740 65 q 486 -14 581 -14 m 486 -9 q 546 28 525 -9 q 577 135 567 65 q 588 302 586 205 q 590 521 590 400 q 588 739 590 642 q 577 907 586 837 q 546 1014 567 976 q 486 1051 525 1051 q 432 1014 453 1051 q 401 907 412 976 q 386 739 390 837 q 382 521 382 642 q 384 302 382 400 q 395 135 386 205 q 426 28 405 65 q 486 -9 448 -9 z "},"1":{"ha":770,"x_min":69,"x_max":701,"o":"m 250 2 l 250 1037 l 93 1037 l 93 1042 l 549 1042 l 549 2 l 250 2 m 69 0 l 69 5 l 701 5 l 701 0 l 69 0 z "},"2":{"ha":901,"x_min":56,"x_max":853,"o":"m 56 0 l 56 188 l 342 368 q 474 501 429 422 q 519 708 519 579 q 499 864 519 793 q 437 978 478 935 q 336 1022 396 1022 q 211 988 272 1022 q 111 893 150 953 q 72 753 72 833 l 69 753 q 95 819 69 788 q 164 872 122 851 q 249 892 205 892 q 328 870 290 892 q 389 812 365 849 q 413 731 413 776 q 390 645 413 682 q 327 586 366 608 q 243 565 288 565 q 158 589 198 565 q 92 654 117 612 q 67 753 67 696 q 116 909 67 841 q 251 1017 164 978 q 451 1056 338 1056 q 650 1022 567 1056 q 780 928 734 988 q 825 792 825 869 q 792 674 825 725 q 707 585 759 624 q 598 514 656 546 q 490 451 540 482 l 232 292 l 849 292 l 849 396 l 853 396 l 853 0 l 56 0 z "},"3":{"ha":861,"x_min":35,"x_max":807,"o":"m 390 -14 q 195 27 274 -14 q 75 130 116 67 q 35 256 35 192 q 80 369 35 324 q 188 414 125 414 q 288 373 245 414 q 331 267 331 331 q 310 195 331 228 q 255 144 289 163 q 183 125 222 125 q 112 143 146 125 q 57 191 78 161 q 36 256 36 221 l 40 256 q 81 130 40 189 q 190 35 123 72 q 335 -1 257 -1 q 430 36 393 -1 q 483 140 466 74 q 500 292 500 206 q 491 377 500 331 q 460 465 482 423 q 398 533 438 506 q 296 560 358 560 l 296 563 q 517 541 422 563 q 677 478 613 518 q 774 387 742 438 q 807 278 807 335 q 770 156 807 210 q 672 64 733 102 q 538 6 611 26 q 390 -14 464 -14 m 296 562 l 296 565 q 385 589 353 565 q 434 648 418 612 q 454 725 449 685 q 458 798 458 765 q 455 879 458 837 q 440 958 451 922 q 409 1019 429 995 q 355 1042 388 1042 q 280 1028 326 1042 q 189 986 234 1013 q 112 919 143 959 q 81 830 81 880 l 77 830 q 100 898 77 868 q 157 946 122 928 q 226 964 191 964 q 298 945 264 964 q 352 895 331 927 q 374 821 374 863 q 351 743 374 776 q 294 692 328 710 q 226 674 260 674 q 153 694 188 674 q 97 749 119 714 q 76 830 76 784 q 107 919 76 878 q 187 990 138 960 q 294 1038 236 1021 q 404 1054 351 1054 q 525 1039 463 1054 q 643 995 588 1024 q 731 922 697 966 q 765 821 765 878 q 737 722 765 769 q 651 639 709 675 q 505 583 593 603 q 296 562 416 562 z "},"4":{"ha":951,"x_min":49,"x_max":938,"o":"m 354 0 l 354 5 l 486 5 l 486 904 l 58 301 l 938 301 l 938 296 l 49 296 l 576 1042 l 785 1042 l 785 5 l 889 5 l 889 0 l 354 0 z "},"5":{"ha":790,"x_min":-13,"x_max":749,"o":"m 300 -14 q 141 13 212 -14 q 28 90 70 40 q -13 207 -13 140 q 31 329 -13 281 q 149 376 75 376 q 264 332 217 376 q 311 215 311 288 q 288 134 311 170 q 227 77 265 98 q 149 56 190 56 q 91 73 119 56 q 39 116 63 90 q 2 166 16 141 q -12 207 -12 192 l -8 207 q 17 114 -8 153 q 82 48 42 74 q 168 9 122 22 q 258 -4 215 -4 q 344 24 310 -4 q 400 99 379 53 q 429 197 420 144 q 438 299 438 250 q 414 443 438 378 q 350 544 391 507 q 258 582 309 582 q 171 563 208 582 q 109 517 133 544 q 73 468 85 491 l 68 468 q 111 527 79 494 q 205 585 144 560 q 364 610 266 610 q 560 576 472 610 q 698 472 647 541 q 749 299 749 403 q 714 174 749 231 q 616 75 678 117 q 473 9 554 33 q 300 -14 392 -14 m 65 468 l 65 1042 l 697 1042 l 697 1117 l 701 1117 l 701 750 l 70 750 l 70 468 l 65 468 z "},"6":{"ha":916,"x_min":69,"x_max":875,"o":"m 478 -14 q 267 36 359 -14 q 122 186 175 87 q 69 431 69 285 q 119 670 69 557 q 262 869 169 783 q 484 1006 355 956 q 771 1056 613 1056 l 771 1051 q 603 1002 675 1051 q 484 872 532 954 q 413 686 436 790 q 389 474 389 583 l 389 389 q 394 220 389 294 q 410 95 399 146 q 439 17 421 44 q 482 -9 456 -9 q 522 15 508 -9 q 544 84 537 39 q 553 196 551 130 q 556 347 556 263 q 547 542 556 474 q 521 636 539 610 q 476 662 503 662 q 422 637 441 662 q 396 552 403 612 q 389 389 389 492 l 385 389 q 392 557 385 490 q 430 655 399 623 q 529 688 460 688 q 654 667 592 688 q 765 606 715 647 q 845 500 815 565 q 875 347 875 436 q 825 161 875 243 q 686 33 776 80 q 478 -14 597 -14 z "},"7":{"ha":798,"x_min":56,"x_max":785,"o":"m 353 -14 q 230 26 281 -14 q 178 147 178 65 q 205 231 178 188 q 274 320 232 274 q 364 417 317 367 q 451 525 410 468 q 490 581 471 553 q 534 645 509 608 q 597 743 559 683 l 60 743 l 60 639 l 56 639 l 56 1042 l 785 1042 q 764 1007 785 1042 q 709 915 743 972 q 633 790 674 858 q 549 657 592 723 q 470 539 506 590 q 413 457 433 486 q 384 411 392 428 q 376 378 376 394 q 399 330 376 350 q 451 286 421 309 q 503 232 481 264 q 525 150 525 200 q 477 33 525 81 q 353 -14 430 -14 z "},"8":{"ha":902,"x_min":56,"x_max":847,"o":"m 451 -14 q 154 63 253 -14 q 56 264 56 139 q 144 455 56 383 q 412 535 233 527 q 168 606 253 542 q 83 778 83 669 q 126 917 83 854 q 250 1018 168 981 q 451 1056 333 1056 q 652 1018 570 1056 q 777 917 735 981 q 819 778 819 854 q 735 606 819 669 q 491 535 650 542 q 758 455 669 527 q 847 264 847 383 q 749 63 847 139 q 451 -14 651 -14 m 451 -9 q 505 26 485 -9 q 533 123 525 62 q 542 264 542 185 q 533 403 542 343 q 505 498 525 464 q 451 532 485 532 q 398 498 417 532 q 369 403 378 464 q 361 264 361 343 q 369 123 361 185 q 398 26 378 62 q 451 -9 417 -9 m 451 538 q 485 559 472 538 q 507 632 499 580 q 514 778 514 685 q 510 893 514 842 q 498 979 506 944 q 478 1032 490 1014 q 451 1051 467 1051 q 425 1032 436 1051 q 405 979 413 1014 q 393 893 397 944 q 389 778 389 842 q 396 632 389 685 q 417 559 403 580 q 451 538 431 538 z "},"9":{"ha":915,"x_min":42,"x_max":847,"o":"m 146 -14 l 146 -9 q 313 39 242 -9 q 433 170 385 88 q 504 355 481 252 q 528 567 528 458 l 528 653 q 523 822 528 748 q 507 947 518 896 q 478 1024 496 998 q 435 1051 460 1051 q 394 1027 409 1051 q 373 957 380 1003 q 363 845 365 912 q 361 694 361 779 q 369 499 361 567 q 395 406 378 431 q 440 380 413 380 q 494 405 476 380 q 520 490 513 430 q 528 653 528 549 l 532 653 q 525 485 532 551 q 488 387 518 419 q 388 354 457 354 q 263 374 324 354 q 151 436 201 394 q 72 542 101 477 q 42 694 42 606 q 92 880 42 799 q 231 1009 142 962 q 439 1056 320 1056 q 650 1005 558 1056 q 794 856 742 955 q 847 611 847 757 q 797 372 847 485 q 655 172 747 259 q 433 36 562 85 q 146 -14 303 -14 z "},"A":{"ha":1152,"x_min":21,"x_max":1132,"o":"m 276 338 l 276 342 l 629 342 l 629 338 l 276 338 m 667 1063 l 1033 5 l 1132 5 l 1132 0 l 589 0 l 589 5 l 686 5 l 435 781 l 161 5 l 326 5 l 326 0 l 21 0 l 21 5 l 154 5 l 529 1063 l 667 1063 z "},"Á":{"ha":1152,"x_min":21,"x_max":1132,"o":"m 276 338 l 276 342 l 629 342 l 629 338 l 276 338 m 667 1063 l 1033 5 l 1132 5 l 1132 0 l 589 0 l 589 5 l 686 5 l 435 781 l 161 5 l 326 5 l 326 0 l 21 0 l 21 5 l 154 5 l 529 1063 l 667 1063 m 500 1166 l 498 1169 l 594 1358 q 664 1425 621 1410 q 747 1428 706 1440 q 806 1390 788 1417 q 824 1313 829 1356 q 789 1235 819 1269 q 702 1193 758 1201 l 500 1166 z "},"Ă":{"ha":1152,"x_min":21,"x_max":1132,"o":"m 276 338 l 276 342 l 629 342 l 629 338 l 276 338 m 667 1063 l 1033 5 l 1132 5 l 1132 0 l 589 0 l 589 5 l 686 5 l 435 781 l 161 5 l 326 5 l 326 0 l 21 0 l 21 5 l 154 5 l 529 1063 l 667 1063 m 585 1167 q 489 1194 529 1167 q 426 1280 448 1222 q 404 1429 404 1338 l 409 1429 q 438 1382 409 1399 q 507 1360 466 1366 q 585 1354 547 1354 q 663 1360 622 1354 q 732 1382 703 1366 q 760 1429 760 1399 l 765 1429 q 743 1280 765 1338 q 681 1194 722 1222 q 585 1167 640 1167 z "},"Â":{"ha":1152,"x_min":21,"x_max":1132,"o":"m 276 338 l 276 342 l 629 342 l 629 338 l 276 338 m 667 1063 l 1033 5 l 1132 5 l 1132 0 l 589 0 l 589 5 l 686 5 l 435 781 l 161 5 l 326 5 l 326 0 l 21 0 l 21 5 l 154 5 l 529 1063 l 667 1063 m 335 1188 l 332 1191 l 513 1413 l 658 1413 l 839 1191 l 836 1188 l 585 1281 l 335 1188 z "},"Ä":{"ha":1152,"x_min":21,"x_max":1132,"o":"m 276 338 l 276 342 l 629 342 l 629 338 l 276 338 m 667 1063 l 1033 5 l 1132 5 l 1132 0 l 589 0 l 589 5 l 686 5 l 435 781 l 161 5 l 326 5 l 326 0 l 21 0 l 21 5 l 154 5 l 529 1063 l 667 1063 m 733 1167 q 668 1194 695 1167 q 640 1260 640 1222 q 668 1326 640 1299 q 734 1353 695 1353 q 800 1326 772 1353 q 827 1260 827 1299 q 800 1194 827 1222 q 733 1167 772 1167 m 436 1167 q 370 1194 398 1167 q 343 1260 343 1222 q 370 1326 343 1299 q 437 1353 398 1353 q 502 1326 475 1353 q 530 1260 530 1299 q 502 1194 530 1222 q 436 1167 475 1167 z "},"À":{"ha":1152,"x_min":21,"x_max":1132,"o":"m 276 338 l 276 342 l 629 342 l 629 338 l 276 338 m 667 1063 l 1033 5 l 1132 5 l 1132 0 l 589 0 l 589 5 l 686 5 l 435 781 l 161 5 l 326 5 l 326 0 l 21 0 l 21 5 l 154 5 l 529 1063 l 667 1063 m 667 1166 l 465 1193 q 379 1235 410 1201 q 343 1313 348 1269 q 361 1390 338 1356 q 420 1428 380 1417 q 503 1425 460 1440 q 573 1358 547 1410 l 669 1169 l 667 1166 z "},"Ā":{"ha":1152,"x_min":21,"x_max":1132,"o":"m 276 338 l 276 342 l 629 342 l 629 338 l 276 338 m 667 1063 l 1033 5 l 1132 5 l 1132 0 l 589 0 l 589 5 l 686 5 l 435 781 l 161 5 l 326 5 l 326 0 l 21 0 l 21 5 l 154 5 l 529 1063 l 667 1063 m 418 1181 l 418 1185 l 751 1185 l 751 1181 l 418 1181 z "},"Ą":{"ha":1152,"x_min":21,"x_max":1132,"o":"m 276 338 l 276 342 l 629 342 l 629 338 l 276 338 m 667 1063 l 1033 5 l 1132 5 l 1132 0 l 589 0 l 589 5 l 686 5 l 435 781 l 161 5 l 326 5 l 326 0 l 21 0 l 21 5 l 154 5 l 529 1063 l 667 1063 m 784 -329 q 685 -317 728 -329 q 617 -278 642 -304 q 592 -210 592 -251 q 619 -132 592 -168 q 690 -67 647 -97 q 785 -17 734 -38 q 883 17 835 4 l 884 13 q 864 -14 876 8 q 842 -74 852 -36 q 833 -161 833 -111 q 854 -260 833 -229 q 900 -291 875 -291 q 938 -273 922 -291 q 968 -226 953 -255 l 972 -228 q 944 -271 961 -247 q 891 -312 928 -294 q 784 -329 854 -329 z "},"Å":{"ha":1152,"x_min":21,"x_max":1132,"o":"m 276 338 l 276 342 l 629 342 l 629 338 l 276 338 m 667 1063 l 1033 5 l 1132 5 l 1132 0 l 589 0 l 589 5 l 686 5 l 435 781 l 161 5 l 326 5 l 326 0 l 21 0 l 21 5 l 154 5 l 529 1063 l 667 1063 m 585 1167 q 472 1203 511 1167 q 432 1292 432 1239 q 472 1381 432 1345 q 585 1417 511 1417 q 698 1381 659 1417 q 738 1292 738 1345 q 698 1203 738 1239 q 585 1167 659 1167 m 585 1172 q 604 1184 597 1172 q 616 1223 612 1197 q 619 1292 619 1249 q 616 1361 619 1334 q 604 1400 612 1388 q 585 1412 597 1412 q 565 1400 573 1412 q 554 1361 558 1388 q 550 1292 550 1334 q 554 1223 550 1249 q 565 1184 558 1197 q 585 1172 573 1172 z "},"Ã":{"ha":1152,"x_min":21,"x_max":1132,"o":"m 276 338 l 276 342 l 629 342 l 629 338 l 276 338 m 667 1063 l 1033 5 l 1132 5 l 1132 0 l 589 0 l 589 5 l 686 5 l 435 781 l 161 5 l 326 5 l 326 0 l 21 0 l 21 5 l 154 5 l 529 1063 l 667 1063 m 699 1139 q 621 1156 653 1139 q 560 1194 588 1172 q 501 1232 533 1215 q 427 1249 470 1249 q 364 1226 383 1249 q 344 1181 344 1203 l 339 1181 q 350 1293 339 1240 q 392 1379 362 1346 q 476 1413 422 1413 q 555 1396 524 1413 q 613 1358 587 1379 q 667 1319 639 1336 q 734 1303 694 1303 q 798 1325 778 1303 q 817 1371 817 1348 l 822 1371 q 817 1252 822 1305 q 786 1169 812 1200 q 699 1139 760 1139 z "},"Æ":{"ha":1515,"x_min":21,"x_max":1473,"o":"m 144 0 l 728 1042 l 735 1042 l 151 0 l 144 0 m 21 0 l 21 5 l 326 5 l 326 0 l 21 0 m 339 338 l 340 343 l 743 343 l 743 338 l 339 338 m 604 0 l 604 5 l 1111 5 q 1273 45 1199 5 q 1397 155 1346 85 q 1468 313 1447 224 l 1473 313 l 1473 0 l 604 0 m 729 0 l 729 1042 l 1028 1042 l 1028 0 l 729 0 m 1260 344 q 1203 435 1239 391 q 1124 508 1167 479 q 1042 536 1081 536 l 958 536 l 958 542 l 1042 542 q 1124 568 1081 542 q 1203 638 1167 595 q 1260 726 1239 680 l 1265 726 l 1265 344 l 1260 344 m 1454 757 q 1384 895 1433 831 q 1267 998 1334 958 q 1125 1037 1199 1037 l 729 1037 l 729 1042 l 1459 1042 l 1459 757 l 1454 757 z "},"B":{"ha":1062,"x_min":21,"x_max":1007,"o":"m 21 0 l 21 5 l 521 5 q 611 42 574 5 q 668 144 648 80 q 688 292 688 209 q 668 427 688 374 q 611 506 648 481 q 521 532 574 532 l 382 532 l 382 536 l 590 536 q 803 511 709 536 q 952 427 897 487 q 1007 264 1007 368 q 898 59 1007 118 q 590 0 790 0 l 21 0 m 146 3 l 146 1039 l 444 1039 l 444 3 l 146 3 m 382 533 l 382 538 l 507 538 q 587 561 553 538 q 641 637 622 585 q 660 771 660 688 q 641 913 660 853 q 587 1005 622 972 q 507 1037 553 1037 l 21 1037 l 21 1042 l 563 1042 q 858 981 751 1042 q 965 785 965 920 q 864 597 965 660 q 563 533 762 533 l 382 533 z "},"C":{"ha":1020,"x_min":56,"x_max":965,"o":"m 583 -14 q 297 55 415 -14 q 117 245 179 124 q 56 521 56 366 q 117 797 56 676 q 297 986 179 917 q 583 1056 415 1056 q 691 1036 643 1056 q 778 979 738 1016 l 947 1042 l 951 1042 l 951 715 l 944 715 q 847 885 897 810 q 736 1003 797 960 q 597 1046 675 1046 q 491 1000 533 1046 q 425 878 449 954 q 392 709 401 802 q 382 521 382 616 q 392 333 382 426 q 425 164 401 240 q 491 42 449 88 q 597 -4 533 -4 q 721 22 667 -4 q 818 93 775 47 q 895 198 861 138 q 959 326 929 258 l 965 326 l 965 0 l 960 0 l 807 72 q 708 9 763 32 q 583 -14 653 -14 z "},"Ć":{"ha":1020,"x_min":56,"x_max":965,"o":"m 583 -14 q 297 55 415 -14 q 117 245 179 124 q 56 521 56 366 q 117 797 56 676 q 297 986 179 917 q 583 1056 415 1056 q 691 1036 643 1056 q 778 979 738 1016 l 947 1042 l 951 1042 l 951 715 l 944 715 q 847 885 897 810 q 736 1003 797 960 q 597 1046 675 1046 q 491 1000 533 1046 q 425 878 449 954 q 392 709 401 802 q 382 521 382 616 q 392 333 382 426 q 425 164 401 240 q 491 42 449 88 q 597 -4 533 -4 q 721 22 667 -4 q 818 93 775 47 q 895 198 861 138 q 959 326 929 258 l 965 326 l 965 0 l 960 0 l 807 72 q 708 9 763 32 q 583 -14 653 -14 m 499 1166 l 497 1169 l 593 1358 q 662 1425 619 1410 q 745 1428 705 1440 q 805 1390 786 1417 q 823 1313 828 1356 q 787 1235 818 1269 q 701 1193 756 1201 l 499 1166 z "},"Č":{"ha":1020,"x_min":56,"x_max":965,"o":"m 583 -14 q 297 55 415 -14 q 117 245 179 124 q 56 521 56 366 q 117 797 56 676 q 297 986 179 917 q 583 1056 415 1056 q 691 1036 643 1056 q 778 979 738 1016 l 947 1042 l 951 1042 l 951 715 l 944 715 q 847 885 897 810 q 736 1003 797 960 q 597 1046 675 1046 q 491 1000 533 1046 q 425 878 449 954 q 392 709 401 802 q 382 521 382 616 q 392 333 382 426 q 425 164 401 240 q 491 42 449 88 q 597 -4 533 -4 q 721 22 667 -4 q 818 93 775 47 q 895 198 861 138 q 959 326 929 258 l 965 326 l 965 0 l 960 0 l 807 72 q 708 9 763 32 q 583 -14 653 -14 m 511 1181 l 331 1403 l 333 1406 l 585 1313 l 835 1406 l 838 1403 l 657 1181 l 511 1181 z "},"Ç":{"ha":1020,"x_min":56,"x_max":965,"o":"m 583 -14 q 297 55 415 -14 q 117 245 179 124 q 56 521 56 366 q 117 797 56 676 q 297 986 179 917 q 583 1056 415 1056 q 691 1036 643 1056 q 778 979 738 1016 l 947 1042 l 951 1042 l 951 715 l 944 715 q 847 885 897 810 q 736 1003 797 960 q 597 1046 675 1046 q 491 1000 533 1046 q 425 878 449 954 q 392 709 401 802 q 382 521 382 616 q 392 333 382 426 q 425 164 401 240 q 491 42 449 88 q 597 -4 533 -4 q 721 22 667 -4 q 818 93 775 47 q 895 198 861 138 q 959 326 929 258 l 965 326 l 965 0 l 960 0 l 807 72 q 708 9 763 32 q 583 -14 653 -14 m 460 -361 l 460 -356 q 545 -326 522 -356 q 568 -250 568 -295 q 553 -195 568 -213 q 515 -171 538 -177 q 467 -165 492 -165 l 585 -6 l 592 -6 l 516 -110 q 659 -124 600 -112 q 748 -159 717 -135 q 778 -222 778 -183 q 751 -289 778 -257 q 655 -341 724 -321 q 460 -361 585 -361 z "},"Ĉ":{"ha":1020,"x_min":56,"x_max":965,"o":"m 583 -14 q 297 55 415 -14 q 117 245 179 124 q 56 521 56 366 q 117 797 56 676 q 297 986 179 917 q 583 1056 415 1056 q 691 1036 643 1056 q 778 979 738 1016 l 947 1042 l 951 1042 l 951 715 l 944 715 q 847 885 897 810 q 736 1003 797 960 q 597 1046 675 1046 q 491 1000 533 1046 q 425 878 449 954 q 392 709 401 802 q 382 521 382 616 q 392 333 382 426 q 425 164 401 240 q 491 42 449 88 q 597 -4 533 -4 q 721 22 667 -4 q 818 93 775 47 q 895 198 861 138 q 959 326 929 258 l 965 326 l 965 0 l 960 0 l 807 72 q 708 9 763 32 q 583 -14 653 -14 m 333 1188 l 331 1191 l 511 1413 l 657 1413 l 838 1191 l 835 1188 l 583 1281 l 333 1188 z "},"Ċ":{"ha":1020,"x_min":56,"x_max":965,"o":"m 583 -14 q 297 55 415 -14 q 117 245 179 124 q 56 521 56 366 q 117 797 56 676 q 297 986 179 917 q 583 1056 415 1056 q 691 1036 643 1056 q 778 979 738 1016 l 947 1042 l 951 1042 l 951 715 l 944 715 q 847 885 897 810 q 736 1003 797 960 q 597 1046 675 1046 q 491 1000 533 1046 q 425 878 449 954 q 392 709 401 802 q 382 521 382 616 q 392 333 382 426 q 425 164 401 240 q 491 42 449 88 q 597 -4 533 -4 q 721 22 667 -4 q 818 93 775 47 q 895 198 861 138 q 959 326 929 258 l 965 326 l 965 0 l 960 0 l 807 72 q 708 9 763 32 q 583 -14 653 -14 m 584 1153 q 475 1197 519 1153 q 431 1306 431 1240 q 475 1415 431 1372 q 584 1458 519 1458 q 693 1415 650 1458 q 737 1306 737 1372 q 693 1197 737 1240 q 584 1153 650 1153 z "},"D":{"ha":1131,"x_min":21,"x_max":1076,"o":"m 521 1042 q 821 979 697 1042 q 1011 799 945 916 q 1076 521 1076 683 q 1037 303 1076 399 q 925 139 998 207 q 750 36 852 72 q 521 0 647 0 l 21 0 l 21 5 l 146 5 l 146 1037 l 21 1037 l 21 1042 l 521 1042 m 444 5 l 521 5 q 630 44 585 5 q 700 152 674 83 q 738 316 726 222 q 750 521 750 410 q 736 725 750 631 q 695 889 723 819 q 624 998 667 959 q 521 1037 581 1037 l 444 1037 l 444 5 z "},"Ð":{"ha":1131,"x_min":21,"x_max":1076,"o":"m 33 518 l 33 524 l 591 524 l 591 518 l 33 518 m 521 1042 q 821 979 697 1042 q 1011 799 945 916 q 1076 521 1076 683 q 1037 303 1076 399 q 925 139 998 207 q 750 36 852 72 q 521 0 647 0 l 21 0 l 21 5 l 146 5 l 146 1037 l 21 1037 l 21 1042 l 521 1042 m 444 5 l 521 5 q 630 44 585 5 q 700 152 674 83 q 738 316 726 222 q 750 521 750 410 q 736 725 750 631 q 695 889 723 819 q 624 998 667 959 q 521 1037 581 1037 l 444 1037 l 444 5 z "},"Ď":{"ha":1131,"x_min":21,"x_max":1076,"o":"m 521 1042 q 821 979 697 1042 q 1011 799 945 916 q 1076 521 1076 683 q 1037 303 1076 399 q 925 139 998 207 q 750 36 852 72 q 521 0 647 0 l 21 0 l 21 5 l 146 5 l 146 1037 l 21 1037 l 21 1042 l 521 1042 m 444 5 l 521 5 q 630 44 585 5 q 700 152 674 83 q 738 316 726 222 q 750 521 750 410 q 736 725 750 631 q 695 889 723 819 q 624 998 667 959 q 521 1037 581 1037 l 444 1037 l 444 5 m 444 1181 l 264 1403 l 267 1406 l 518 1313 l 768 1406 l 771 1403 l 590 1181 l 444 1181 z "},"Đ":{"ha":1131,"x_min":21,"x_max":1076,"o":"m 33 518 l 33 524 l 591 524 l 591 518 l 33 518 m 521 1042 q 821 979 697 1042 q 1011 799 945 916 q 1076 521 1076 683 q 1037 303 1076 399 q 925 139 998 207 q 750 36 852 72 q 521 0 647 0 l 21 0 l 21 5 l 146 5 l 146 1037 l 21 1037 l 21 1042 l 521 1042 m 444 5 l 521 5 q 630 44 585 5 q 700 152 674 83 q 738 316 726 222 q 750 521 750 410 q 736 725 750 631 q 695 889 723 819 q 624 998 667 959 q 521 1037 581 1037 l 444 1037 l 444 5 z "},"E":{"ha":930,"x_min":21,"x_max":889,"o":"m 21 0 l 21 5 l 146 5 l 146 1037 l 21 1037 l 21 1042 l 875 1042 l 875 757 l 870 757 q 799 895 849 831 q 679 998 749 958 q 527 1037 608 1037 l 444 1037 l 444 5 l 513 5 q 684 45 608 5 q 812 155 760 85 q 884 313 863 224 l 889 313 l 889 0 l 21 0 m 676 344 q 619 435 655 391 q 540 508 583 479 q 457 536 497 536 l 384 536 l 384 542 l 457 542 q 539 568 497 542 q 618 638 582 595 q 676 726 655 680 l 681 726 l 681 344 l 676 344 z "},"É":{"ha":930,"x_min":21,"x_max":889,"o":"m 21 0 l 21 5 l 146 5 l 146 1037 l 21 1037 l 21 1042 l 875 1042 l 875 757 l 870 757 q 799 895 849 831 q 679 998 749 958 q 527 1037 608 1037 l 444 1037 l 444 5 l 513 5 q 684 45 608 5 q 812 155 760 85 q 884 313 863 224 l 889 313 l 889 0 l 21 0 m 676 344 q 619 435 655 391 q 540 508 583 479 q 457 536 497 536 l 384 536 l 384 542 l 457 542 q 539 568 497 542 q 618 638 582 595 q 676 726 655 680 l 681 726 l 681 344 l 676 344 m 404 1166 l 402 1169 l 499 1358 q 568 1425 525 1410 q 651 1428 610 1440 q 710 1390 692 1417 q 728 1313 733 1356 q 693 1235 724 1269 q 606 1193 662 1201 l 404 1166 z "},"Ĕ":{"ha":930,"x_min":21,"x_max":889,"o":"m 21 0 l 21 5 l 146 5 l 146 1037 l 21 1037 l 21 1042 l 875 1042 l 875 757 l 870 757 q 799 895 849 831 q 679 998 749 958 q 527 1037 608 1037 l 444 1037 l 444 5 l 513 5 q 684 45 608 5 q 812 155 760 85 q 884 313 863 224 l 889 313 l 889 0 l 21 0 m 676 344 q 619 435 655 391 q 540 508 583 479 q 457 536 497 536 l 384 536 l 384 542 l 457 542 q 539 568 497 542 q 618 638 582 595 q 676 726 655 680 l 681 726 l 681 344 l 676 344 m 489 1167 q 393 1194 433 1167 q 330 1280 352 1222 q 308 1429 308 1338 l 313 1429 q 342 1382 313 1399 q 411 1360 370 1366 q 489 1354 451 1354 q 567 1360 526 1354 q 636 1382 608 1366 q 665 1429 665 1399 l 669 1429 q 648 1280 669 1338 q 585 1194 626 1222 q 489 1167 544 1167 z "},"Ě":{"ha":930,"x_min":21,"x_max":889,"o":"m 21 0 l 21 5 l 146 5 l 146 1037 l 21 1037 l 21 1042 l 875 1042 l 875 757 l 870 757 q 799 895 849 831 q 679 998 749 958 q 527 1037 608 1037 l 444 1037 l 444 5 l 513 5 q 684 45 608 5 q 812 155 760 85 q 884 313 863 224 l 889 313 l 889 0 l 21 0 m 676 344 q 619 435 655 391 q 540 508 583 479 q 457 536 497 536 l 384 536 l 384 542 l 457 542 q 539 568 497 542 q 618 638 582 595 q 676 726 655 680 l 681 726 l 681 344 l 676 344 m 417 1181 l 236 1403 l 239 1406 l 490 1313 l 740 1406 l 743 1403 l 563 1181 l 417 1181 z "},"Ê":{"ha":930,"x_min":21,"x_max":889,"o":"m 21 0 l 21 5 l 146 5 l 146 1037 l 21 1037 l 21 1042 l 875 1042 l 875 757 l 870 757 q 799 895 849 831 q 679 998 749 958 q 527 1037 608 1037 l 444 1037 l 444 5 l 513 5 q 684 45 608 5 q 812 155 760 85 q 884 313 863 224 l 889 313 l 889 0 l 21 0 m 676 344 q 619 435 655 391 q 540 508 583 479 q 457 536 497 536 l 384 536 l 384 542 l 457 542 q 539 568 497 542 q 618 638 582 595 q 676 726 655 680 l 681 726 l 681 344 l 676 344 m 239 1188 l 236 1191 l 417 1413 l 563 1413 l 743 1191 l 740 1188 l 489 1281 l 239 1188 z "},"Ë":{"ha":930,"x_min":21,"x_max":889,"o":"m 21 0 l 21 5 l 146 5 l 146 1037 l 21 1037 l 21 1042 l 875 1042 l 875 757 l 870 757 q 799 895 849 831 q 679 998 749 958 q 527 1037 608 1037 l 444 1037 l 444 5 l 513 5 q 684 45 608 5 q 812 155 760 85 q 884 313 863 224 l 889 313 l 889 0 l 21 0 m 676 344 q 619 435 655 391 q 540 508 583 479 q 457 536 497 536 l 384 536 l 384 542 l 457 542 q 539 568 497 542 q 618 638 582 595 q 676 726 655 680 l 681 726 l 681 344 l 676 344 m 638 1167 q 572 1194 599 1167 q 544 1260 544 1222 q 572 1326 544 1299 q 638 1353 599 1353 q 704 1326 676 1353 q 731 1260 731 1299 q 704 1194 731 1222 q 638 1167 676 1167 m 340 1167 q 275 1194 302 1167 q 247 1260 247 1222 q 275 1326 247 1299 q 341 1353 302 1353 q 407 1326 379 1353 q 434 1260 434 1299 q 407 1194 434 1222 q 340 1167 379 1167 z "},"Ė":{"ha":930,"x_min":21,"x_max":889,"o":"m 21 0 l 21 5 l 146 5 l 146 1037 l 21 1037 l 21 1042 l 875 1042 l 875 757 l 870 757 q 799 895 849 831 q 679 998 749 958 q 527 1037 608 1037 l 444 1037 l 444 5 l 513 5 q 684 45 608 5 q 812 155 760 85 q 884 313 863 224 l 889 313 l 889 0 l 21 0 m 676 344 q 619 435 655 391 q 540 508 583 479 q 457 536 497 536 l 384 536 l 384 542 l 457 542 q 539 568 497 542 q 618 638 582 595 q 676 726 655 680 l 681 726 l 681 344 l 676 344 m 490 1153 q 381 1197 424 1153 q 337 1306 337 1240 q 381 1415 337 1372 q 490 1458 424 1458 q 599 1415 556 1458 q 642 1306 642 1372 q 599 1197 642 1240 q 490 1153 556 1153 z "},"È":{"ha":930,"x_min":21,"x_max":889,"o":"m 21 0 l 21 5 l 146 5 l 146 1037 l 21 1037 l 21 1042 l 875 1042 l 875 757 l 870 757 q 799 895 849 831 q 679 998 749 958 q 527 1037 608 1037 l 444 1037 l 444 5 l 513 5 q 684 45 608 5 q 812 155 760 85 q 884 313 863 224 l 889 313 l 889 0 l 21 0 m 676 344 q 619 435 655 391 q 540 508 583 479 q 457 536 497 536 l 384 536 l 384 542 l 457 542 q 539 568 497 542 q 618 638 582 595 q 676 726 655 680 l 681 726 l 681 344 l 676 344 m 572 1166 l 369 1193 q 283 1235 314 1201 q 247 1313 252 1269 q 265 1390 242 1356 q 324 1428 284 1417 q 408 1425 365 1440 q 477 1358 451 1410 l 574 1169 l 572 1166 z "},"Ē":{"ha":930,"x_min":21,"x_max":889,"o":"m 21 0 l 21 5 l 146 5 l 146 1037 l 21 1037 l 21 1042 l 875 1042 l 875 757 l 870 757 q 799 895 849 831 q 679 998 749 958 q 527 1037 608 1037 l 444 1037 l 444 5 l 513 5 q 684 45 608 5 q 812 155 760 85 q 884 313 863 224 l 889 313 l 889 0 l 21 0 m 676 344 q 619 435 655 391 q 540 508 583 479 q 457 536 497 536 l 384 536 l 384 542 l 457 542 q 539 568 497 542 q 618 638 582 595 q 676 726 655 680 l 681 726 l 681 344 l 676 344 m 322 1181 l 322 1185 l 656 1185 l 656 1181 l 322 1181 z "},"Ę":{"ha":930,"x_min":21,"x_max":889,"o":"m 21 0 l 21 5 l 146 5 l 146 1037 l 21 1037 l 21 1042 l 875 1042 l 875 757 l 870 757 q 799 895 849 831 q 679 998 749 958 q 527 1037 608 1037 l 444 1037 l 444 5 l 513 5 q 684 45 608 5 q 812 155 760 85 q 884 313 863 224 l 889 313 l 889 0 l 21 0 m 676 344 q 619 435 655 391 q 540 508 583 479 q 457 536 497 536 l 384 536 l 384 542 l 457 542 q 539 568 497 542 q 618 638 582 595 q 676 726 655 680 l 681 726 l 681 344 l 676 344 m 674 -329 q 574 -317 617 -329 q 507 -278 531 -304 q 482 -210 482 -251 q 509 -132 482 -168 q 580 -67 536 -97 q 674 -17 624 -38 q 772 17 725 4 l 774 13 q 754 -14 766 8 q 732 -74 742 -36 q 722 -161 722 -111 q 743 -260 722 -229 q 790 -291 765 -291 q 827 -273 812 -291 q 858 -226 843 -255 l 861 -228 q 834 -271 851 -247 q 781 -312 817 -294 q 674 -329 744 -329 z "},"F":{"ha":888,"x_min":21,"x_max":847,"o":"m 662 317 q 609 409 641 363 q 537 485 578 455 q 451 515 497 515 l 360 515 l 360 521 l 450 521 q 537 549 497 521 q 609 622 578 578 q 662 713 641 666 l 667 713 l 667 317 l 662 317 m 847 1042 l 847 757 l 842 757 q 779 895 822 831 q 675 998 736 958 q 540 1037 615 1037 l 444 1037 l 444 5 l 583 5 l 583 0 l 21 0 l 21 5 l 146 5 l 146 1037 l 21 1037 l 21 1042 l 847 1042 z "},"G":{"ha":1110,"x_min":56,"x_max":1097,"o":"m 583 399 l 1097 399 l 1097 393 l 1042 393 l 1042 201 q 944 125 990 163 q 849 56 898 88 q 737 5 799 24 q 590 -14 675 -14 q 305 49 425 -14 q 120 232 185 113 q 56 521 56 352 q 102 747 56 647 q 228 915 149 846 q 406 1019 307 983 q 611 1056 506 1056 q 711 1038 663 1056 q 803 988 760 1019 l 1002 1042 l 1007 1042 l 1007 715 l 1002 715 q 946 820 981 763 q 863 928 910 877 q 756 1011 815 978 q 632 1044 698 1044 q 520 999 567 1044 q 442 877 473 953 q 397 709 412 801 q 382 521 382 616 q 391 332 382 426 q 424 161 401 238 q 488 38 447 84 q 590 -9 528 -9 q 634 7 613 -9 q 672 50 654 23 q 705 109 690 77 q 729 174 719 142 l 729 393 l 583 393 l 583 399 z "},"Ğ":{"ha":1110,"x_min":56,"x_max":1097,"o":"m 583 399 l 1097 399 l 1097 393 l 1042 393 l 1042 201 q 944 125 990 163 q 849 56 898 88 q 737 5 799 24 q 590 -14 675 -14 q 305 49 425 -14 q 120 232 185 113 q 56 521 56 352 q 102 747 56 647 q 228 915 149 846 q 406 1019 307 983 q 611 1056 506 1056 q 711 1038 663 1056 q 803 988 760 1019 l 1002 1042 l 1007 1042 l 1007 715 l 1002 715 q 946 820 981 763 q 863 928 910 877 q 756 1011 815 978 q 632 1044 698 1044 q 520 999 567 1044 q 442 877 473 953 q 397 709 412 801 q 382 521 382 616 q 391 332 382 426 q 424 161 401 238 q 488 38 447 84 q 590 -9 528 -9 q 634 7 613 -9 q 672 50 654 23 q 705 109 690 77 q 729 174 719 142 l 729 393 l 583 393 l 583 399 m 610 1167 q 514 1194 555 1167 q 452 1280 474 1222 q 430 1429 430 1338 l 435 1429 q 463 1382 435 1399 q 532 1360 492 1366 q 610 1354 573 1354 q 689 1360 648 1354 q 758 1382 729 1366 q 786 1429 786 1399 l 791 1429 q 769 1280 791 1338 q 707 1194 747 1222 q 610 1167 666 1167 z "},"Ĝ":{"ha":1110,"x_min":56,"x_max":1097,"o":"m 583 399 l 1097 399 l 1097 393 l 1042 393 l 1042 201 q 944 125 990 163 q 849 56 898 88 q 737 5 799 24 q 590 -14 675 -14 q 305 49 425 -14 q 120 232 185 113 q 56 521 56 352 q 102 747 56 647 q 228 915 149 846 q 406 1019 307 983 q 611 1056 506 1056 q 711 1038 663 1056 q 803 988 760 1019 l 1002 1042 l 1007 1042 l 1007 715 l 1002 715 q 946 820 981 763 q 863 928 910 877 q 756 1011 815 978 q 632 1044 698 1044 q 520 999 567 1044 q 442 877 473 953 q 397 709 412 801 q 382 521 382 616 q 391 332 382 426 q 424 161 401 238 q 488 38 447 84 q 590 -9 528 -9 q 634 7 613 -9 q 672 50 654 23 q 705 109 690 77 q 729 174 719 142 l 729 393 l 583 393 l 583 399 m 360 1188 l 358 1191 l 538 1413 l 684 1413 l 865 1191 l 862 1188 l 610 1281 l 360 1188 z "},"Ģ":{"ha":1110,"x_min":56,"x_max":1097,"o":"m 583 399 l 1097 399 l 1097 393 l 1042 393 l 1042 201 q 944 125 990 163 q 849 56 898 88 q 737 5 799 24 q 590 -14 675 -14 q 305 49 425 -14 q 120 232 185 113 q 56 521 56 352 q 102 747 56 647 q 228 915 149 846 q 406 1019 307 983 q 611 1056 506 1056 q 711 1038 663 1056 q 803 988 760 1019 l 1002 1042 l 1007 1042 l 1007 715 l 1002 715 q 946 820 981 763 q 863 928 910 877 q 756 1011 815 978 q 632 1044 698 1044 q 520 999 567 1044 q 442 877 473 953 q 397 709 412 801 q 382 521 382 616 q 391 332 382 426 q 424 161 401 238 q 488 38 447 84 q 590 -9 528 -9 q 634 7 613 -9 q 672 50 654 23 q 705 109 690 77 q 729 174 719 142 l 729 393 l 583 393 l 583 399 m 453 -553 l 453 -549 q 608 -514 539 -549 q 712 -411 677 -478 q 730 -247 747 -344 l 731 -247 q 709 -320 731 -287 q 655 -372 688 -353 q 586 -391 622 -391 q 490 -351 525 -391 q 455 -259 455 -311 q 474 -193 455 -224 q 526 -145 494 -163 q 596 -126 558 -126 q 697 -173 653 -126 q 740 -298 740 -220 q 704 -433 740 -376 q 603 -522 668 -490 q 453 -553 539 -553 z "},"Ġ":{"ha":1110,"x_min":56,"x_max":1097,"o":"m 583 399 l 1097 399 l 1097 393 l 1042 393 l 1042 201 q 944 125 990 163 q 849 56 898 88 q 737 5 799 24 q 590 -14 675 -14 q 305 49 425 -14 q 120 232 185 113 q 56 521 56 352 q 102 747 56 647 q 228 915 149 846 q 406 1019 307 983 q 611 1056 506 1056 q 711 1038 663 1056 q 803 988 760 1019 l 1002 1042 l 1007 1042 l 1007 715 l 1002 715 q 946 820 981 763 q 863 928 910 877 q 756 1011 815 978 q 632 1044 698 1044 q 520 999 567 1044 q 442 877 473 953 q 397 709 412 801 q 382 521 382 616 q 391 332 382 426 q 424 161 401 238 q 488 38 447 84 q 590 -9 528 -9 q 634 7 613 -9 q 672 50 654 23 q 705 109 690 77 q 729 174 719 142 l 729 393 l 583 393 l 583 399 m 611 1153 q 502 1197 546 1153 q 458 1306 458 1240 q 502 1415 458 1372 q 611 1458 546 1458 q 720 1415 677 1458 q 764 1306 764 1372 q 720 1197 764 1240 q 611 1153 677 1153 z "},"H":{"ha":1180,"x_min":21,"x_max":1160,"o":"m 1160 1042 l 1160 1037 l 1035 1037 l 1035 5 l 1160 5 l 1160 0 l 625 0 l 625 5 l 736 5 l 736 511 l 444 511 l 444 5 l 556 5 l 556 0 l 21 0 l 21 5 l 146 5 l 146 1037 l 21 1037 l 21 1042 l 556 1042 l 556 1037 l 444 1037 l 444 517 l 736 517 l 736 1037 l 625 1037 l 625 1042 l 1160 1042 z "},"Ħ":{"ha":1180,"x_min":19,"x_max":1160,"o":"m 19 792 l 19 797 l 1160 797 l 1160 792 l 19 792 m 1160 1042 l 1160 1037 l 1035 1037 l 1035 5 l 1160 5 l 1160 0 l 625 0 l 625 5 l 736 5 l 736 511 l 444 511 l 444 5 l 556 5 l 556 0 l 21 0 l 21 5 l 146 5 l 146 1037 l 21 1037 l 21 1042 l 556 1042 l 556 1037 l 444 1037 l 444 517 l 736 517 l 736 1037 l 625 1037 l 625 1042 l 1160 1042 z "},"Ĥ":{"ha":1180,"x_min":21,"x_max":1160,"o":"m 1160 1042 l 1160 1037 l 1035 1037 l 1035 5 l 1160 5 l 1160 0 l 625 0 l 625 5 l 736 5 l 736 511 l 444 511 l 444 5 l 556 5 l 556 0 l 21 0 l 21 5 l 146 5 l 146 1037 l 21 1037 l 21 1042 l 556 1042 l 556 1037 l 444 1037 l 444 517 l 736 517 l 736 1037 l 625 1037 l 625 1042 l 1160 1042 m 340 1188 l 338 1191 l 518 1413 l 664 1413 l 844 1191 l 842 1188 l 590 1281 l 340 1188 z "},"I":{"ha":659,"x_min":21,"x_max":639,"o":"m 21 0 l 21 5 l 174 5 l 174 1037 l 21 1037 l 21 1042 l 639 1042 l 639 1037 l 472 1037 l 472 5 l 639 5 l 639 0 l 21 0 z "},"Ĳ":{"ha":1514,"x_min":21,"x_max":1492,"o":"m 21 0 l 21 5 l 174 5 l 174 1037 l 21 1037 l 21 1042 l 639 1042 l 639 1037 l 472 1037 l 472 5 l 639 5 l 639 0 l 21 0 m 1492 1042 l 1492 1037 l 1353 1037 l 1353 236 q 1287 122 1324 174 q 1200 34 1249 71 q 1090 -23 1151 -3 q 950 -42 1028 -42 q 791 -17 862 -42 q 678 56 719 8 q 636 174 636 104 q 659 262 636 224 q 722 322 683 301 q 806 344 760 344 q 886 324 847 344 q 950 268 925 304 q 974 183 974 232 q 951 100 974 135 q 889 46 927 65 q 805 26 850 26 q 706 61 752 26 q 648 142 660 95 q 700 42 658 81 q 800 -15 742 3 q 916 -33 858 -33 q 1003 1 973 -33 q 1044 101 1033 35 q 1055 264 1055 167 l 1055 1037 l 874 1037 l 874 1042 l 1492 1042 z "},"Í":{"ha":659,"x_min":21,"x_max":639,"o":"m 21 0 l 21 5 l 174 5 l 174 1037 l 21 1037 l 21 1042 l 639 1042 l 639 1037 l 472 1037 l 472 5 l 639 5 l 639 0 l 21 0 m 236 1166 l 234 1169 l 331 1358 q 400 1425 357 1410 q 483 1428 442 1440 q 542 1390 524 1417 q 560 1313 565 1356 q 525 1235 556 1269 q 438 1193 494 1201 l 236 1166 z "},"Ĭ":{"ha":659,"x_min":21,"x_max":639,"o":"m 21 0 l 21 5 l 174 5 l 174 1037 l 21 1037 l 21 1042 l 639 1042 l 639 1037 l 472 1037 l 472 5 l 639 5 l 639 0 l 21 0 m 321 1167 q 225 1194 265 1167 q 162 1280 184 1222 q 140 1429 140 1338 l 145 1429 q 174 1382 145 1399 q 243 1360 202 1366 q 321 1354 283 1354 q 399 1360 358 1354 q 468 1382 440 1366 q 497 1429 497 1399 l 501 1429 q 480 1280 501 1338 q 417 1194 458 1222 q 321 1167 376 1167 z "},"Î":{"ha":659,"x_min":21,"x_max":639,"o":"m 21 0 l 21 5 l 174 5 l 174 1037 l 21 1037 l 21 1042 l 639 1042 l 639 1037 l 472 1037 l 472 5 l 639 5 l 639 0 l 21 0 m 71 1188 l 68 1191 l 249 1413 l 394 1413 l 575 1191 l 572 1188 l 321 1281 l 71 1188 z "},"Ï":{"ha":659,"x_min":21,"x_max":639,"o":"m 21 0 l 21 5 l 174 5 l 174 1037 l 21 1037 l 21 1042 l 639 1042 l 639 1037 l 472 1037 l 472 5 l 639 5 l 639 0 l 21 0 m 469 1167 q 404 1194 431 1167 q 376 1260 376 1222 q 404 1326 376 1299 q 470 1353 431 1353 q 536 1326 508 1353 q 563 1260 563 1299 q 536 1194 563 1222 q 469 1167 508 1167 m 172 1167 q 107 1194 134 1167 q 79 1260 79 1222 q 107 1326 79 1299 q 173 1353 134 1353 q 239 1326 211 1353 q 266 1260 266 1299 q 239 1194 266 1222 q 172 1167 211 1167 z "},"İ":{"ha":659,"x_min":21,"x_max":639,"o":"m 21 0 l 21 5 l 174 5 l 174 1037 l 21 1037 l 21 1042 l 639 1042 l 639 1037 l 472 1037 l 472 5 l 639 5 l 639 0 l 21 0 m 322 1153 q 213 1197 256 1153 q 169 1306 169 1240 q 213 1415 169 1372 q 322 1458 256 1458 q 431 1415 388 1458 q 474 1306 474 1372 q 431 1197 474 1240 q 322 1153 388 1153 z "},"Ì":{"ha":659,"x_min":21,"x_max":639,"o":"m 21 0 l 21 5 l 174 5 l 174 1037 l 21 1037 l 21 1042 l 639 1042 l 639 1037 l 472 1037 l 472 5 l 639 5 l 639 0 l 21 0 m 403 1166 l 201 1193 q 115 1235 146 1201 q 79 1313 84 1269 q 97 1390 74 1356 q 156 1428 116 1417 q 240 1425 197 1440 q 309 1358 283 1410 l 406 1169 l 403 1166 z "},"Ī":{"ha":659,"x_min":21,"x_max":639,"o":"m 21 0 l 21 5 l 174 5 l 174 1037 l 21 1037 l 21 1042 l 639 1042 l 639 1037 l 472 1037 l 472 5 l 639 5 l 639 0 l 21 0 m 154 1181 l 154 1185 l 488 1185 l 488 1181 l 154 1181 z "},"Į":{"ha":659,"x_min":21,"x_max":639,"o":"m 21 0 l 21 5 l 174 5 l 174 1037 l 21 1037 l 21 1042 l 639 1042 l 639 1037 l 472 1037 l 472 5 l 639 5 l 639 0 l 21 0 m 306 -329 q 206 -317 249 -329 q 139 -278 163 -304 q 114 -210 114 -251 q 141 -132 114 -168 q 212 -67 168 -97 q 306 -17 256 -38 q 404 17 357 4 l 406 13 q 386 -14 398 8 q 364 -74 374 -36 q 354 -161 354 -111 q 375 -260 354 -229 q 422 -291 397 -291 q 459 -273 444 -291 q 490 -226 475 -255 l 493 -228 q 466 -271 483 -247 q 413 -312 449 -294 q 306 -329 376 -329 z "},"Ĩ":{"ha":659,"x_min":21,"x_max":639,"o":"m 21 0 l 21 5 l 174 5 l 174 1037 l 21 1037 l 21 1042 l 639 1042 l 639 1037 l 472 1037 l 472 5 l 639 5 l 639 0 l 21 0 m 435 1139 q 357 1156 390 1139 q 297 1194 324 1172 q 238 1232 269 1215 q 163 1249 206 1249 q 100 1226 119 1249 q 80 1181 80 1203 l 75 1181 q 86 1293 75 1240 q 128 1379 98 1346 q 213 1413 158 1413 q 291 1396 260 1413 q 349 1358 323 1379 q 403 1319 375 1336 q 470 1303 431 1303 q 534 1325 514 1303 q 553 1371 553 1348 l 558 1371 q 553 1252 558 1305 q 522 1169 548 1200 q 435 1139 497 1139 z "},"J":{"ha":889,"x_min":11,"x_max":867,"o":"m 867 1042 l 867 1037 l 728 1037 l 728 236 q 662 122 699 174 q 575 34 624 71 q 465 -23 526 -3 q 325 -42 403 -42 q 166 -17 237 -42 q 53 56 94 8 q 11 174 11 104 q 34 262 11 224 q 97 322 58 301 q 181 344 135 344 q 261 324 222 344 q 325 268 300 304 q 349 183 349 232 q 326 100 349 135 q 264 46 302 65 q 180 26 225 26 q 81 61 127 26 q 23 142 35 95 q 75 42 33 81 q 175 -15 117 3 q 291 -33 233 -33 q 378 1 348 -33 q 419 101 408 35 q 430 264 430 167 l 430 1037 l 249 1037 l 249 1042 l 867 1042 z "},"Ĵ":{"ha":889,"x_min":11,"x_max":867,"o":"m 867 1042 l 867 1037 l 728 1037 l 728 236 q 662 122 699 174 q 575 34 624 71 q 465 -23 526 -3 q 325 -42 403 -42 q 166 -17 237 -42 q 53 56 94 8 q 11 174 11 104 q 34 262 11 224 q 97 322 58 301 q 181 344 135 344 q 261 324 222 344 q 325 268 300 304 q 349 183 349 232 q 326 100 349 135 q 264 46 302 65 q 180 26 225 26 q 81 61 127 26 q 23 142 35 95 q 75 42 33 81 q 175 -15 117 3 q 291 -33 233 -33 q 378 1 348 -33 q 419 101 408 35 q 430 264 430 167 l 430 1037 l 249 1037 l 249 1042 l 867 1042 m 310 1188 l 307 1191 l 488 1413 l 633 1413 l 814 1191 l 811 1188 l 560 1281 l 310 1188 z "},"K":{"ha":1187,"x_min":21,"x_max":1181,"o":"m 239 301 l 951 1037 l 785 1037 l 785 1042 l 1118 1042 l 1118 1037 l 958 1037 l 246 301 l 239 301 m 21 0 l 21 5 l 146 5 l 146 1037 l 21 1037 l 21 1042 l 583 1042 l 583 1037 l 444 1037 l 444 5 l 556 5 l 556 0 l 21 0 m 611 0 l 611 5 l 736 5 l 447 512 l 649 723 l 1069 5 l 1181 5 l 1181 0 l 611 0 z "},"Ķ":{"ha":1187,"x_min":21,"x_max":1181,"o":"m 239 301 l 951 1037 l 785 1037 l 785 1042 l 1118 1042 l 1118 1037 l 958 1037 l 246 301 l 239 301 m 21 0 l 21 5 l 146 5 l 146 1037 l 21 1037 l 21 1042 l 583 1042 l 583 1037 l 444 1037 l 444 5 l 556 5 l 556 0 l 21 0 m 611 0 l 611 5 l 736 5 l 447 512 l 649 723 l 1069 5 l 1181 5 l 1181 0 l 611 0 m 458 -553 l 458 -549 q 613 -514 544 -549 q 717 -411 682 -478 q 735 -247 751 -344 l 736 -247 q 714 -320 736 -287 q 659 -372 692 -353 q 591 -391 626 -391 q 495 -351 530 -391 q 460 -259 460 -311 q 479 -193 460 -224 q 531 -145 499 -163 q 601 -126 563 -126 q 702 -173 658 -126 q 745 -298 745 -220 q 709 -433 745 -376 q 608 -522 673 -490 q 458 -553 544 -553 z "},"L":{"ha":916,"x_min":21,"x_max":889,"o":"m 21 0 l 21 5 l 146 5 l 146 1037 l 21 1037 l 21 1042 l 569 1042 l 569 1037 l 444 1037 l 444 5 l 513 5 q 645 28 584 5 q 754 92 706 51 q 835 190 802 134 q 884 313 869 247 l 889 313 l 889 0 l 21 0 z "},"Ĺ":{"ha":916,"x_min":21,"x_max":889,"o":"m 21 0 l 21 5 l 146 5 l 146 1037 l 21 1037 l 21 1042 l 569 1042 l 569 1037 l 444 1037 l 444 5 l 513 5 q 645 28 584 5 q 754 92 706 51 q 835 190 802 134 q 884 313 869 247 l 889 313 l 889 0 l 21 0 m 203 1166 l 201 1169 l 297 1358 q 366 1425 324 1410 q 450 1428 409 1440 q 509 1390 490 1417 q 527 1313 532 1356 q 491 1235 522 1269 q 405 1193 460 1201 l 203 1166 z "},"Ľ":{"ha":916,"x_min":21,"x_max":909,"o":"m 21 0 l 21 5 l 146 5 l 146 1037 l 21 1037 l 21 1042 l 569 1042 l 569 1037 l 444 1037 l 444 5 l 513 5 q 645 28 584 5 q 754 92 706 51 q 835 190 802 134 q 884 313 869 247 l 889 313 l 889 0 l 21 0 m 651 676 l 651 679 q 759 697 709 679 q 843 749 808 715 q 894 834 878 783 q 898 949 909 884 l 899 949 q 880 883 899 913 q 831 837 860 854 q 770 820 801 820 q 685 856 716 820 q 653 938 653 891 q 691 1020 653 985 q 779 1056 728 1056 q 869 1014 830 1056 q 908 903 908 972 q 876 782 908 833 q 786 703 844 731 q 651 676 728 676 z "},"Ļ":{"ha":916,"x_min":21,"x_max":889,"o":"m 21 0 l 21 5 l 146 5 l 146 1037 l 21 1037 l 21 1042 l 569 1042 l 569 1037 l 444 1037 l 444 5 l 513 5 q 645 28 584 5 q 754 92 706 51 q 835 190 802 134 q 884 313 869 247 l 889 313 l 889 0 l 21 0 m 359 -553 l 359 -549 q 514 -514 445 -549 q 618 -411 583 -478 q 636 -247 653 -344 l 638 -247 q 616 -320 638 -287 q 561 -372 594 -353 q 492 -391 528 -391 q 396 -351 431 -391 q 361 -259 361 -311 q 381 -193 361 -224 q 432 -145 400 -163 q 502 -126 465 -126 q 603 -173 560 -126 q 647 -298 647 -220 q 610 -433 647 -376 q 510 -522 574 -490 q 359 -553 445 -553 z "},"Ŀ":{"ha":916,"x_min":21,"x_max":926,"o":"m 21 0 l 21 5 l 146 5 l 146 1037 l 21 1037 l 21 1042 l 569 1042 l 569 1037 l 444 1037 l 444 5 l 513 5 q 645 28 584 5 q 754 92 706 51 q 835 190 802 134 q 884 313 869 247 l 889 313 l 889 0 l 21 0 z "},"Ł":{"ha":916,"x_min":21,"x_max":889,"o":"m 21 494 l 21 500 l 639 806 l 639 800 l 21 494 m 21 0 l 21 5 l 146 5 l 146 1037 l 21 1037 l 21 1042 l 569 1042 l 569 1037 l 444 1037 l 444 5 l 513 5 q 645 28 584 5 q 754 92 706 51 q 835 190 802 134 q 884 313 869 247 l 889 313 l 889 0 l 21 0 z "},"M":{"ha":1307,"x_min":21,"x_max":1287,"o":"m 517 -14 l 131 1042 l 430 1042 l 667 413 l 888 1042 l 893 1042 l 524 -14 l 517 -14 m 133 1042 l 133 5 l 240 5 l 240 0 l 28 0 l 28 5 l 128 5 l 128 1037 l 21 1037 l 21 1042 l 133 1042 m 1287 1042 l 1287 1037 l 1190 1037 l 1190 5 l 1287 5 l 1287 0 l 780 0 l 780 5 l 891 5 l 891 1042 l 1287 1042 z "},"N":{"ha":1065,"x_min":21,"x_max":1045,"o":"m 164 1042 l 164 5 l 318 5 l 318 0 l 21 0 l 21 5 l 159 5 l 159 1037 l 21 1037 l 21 1042 l 164 1042 m 1045 1042 l 1045 1037 l 899 1037 l 899 -14 l 893 -14 l 161 1042 l 515 1042 l 894 496 l 894 1037 l 742 1037 l 742 1042 l 1045 1042 z "},"Ń":{"ha":1065,"x_min":21,"x_max":1045,"o":"m 164 1042 l 164 5 l 318 5 l 318 0 l 21 0 l 21 5 l 159 5 l 159 1037 l 21 1037 l 21 1042 l 164 1042 m 1045 1042 l 1045 1037 l 899 1037 l 899 -14 l 893 -14 l 161 1042 l 515 1042 l 894 496 l 894 1037 l 742 1037 l 742 1042 l 1045 1042 m 481 1166 l 478 1169 l 575 1358 q 644 1425 601 1410 q 727 1428 687 1440 q 787 1390 768 1417 q 805 1313 810 1356 q 769 1235 800 1269 q 683 1193 738 1201 l 481 1166 z "},"Ň":{"ha":1065,"x_min":21,"x_max":1045,"o":"m 164 1042 l 164 5 l 318 5 l 318 0 l 21 0 l 21 5 l 159 5 l 159 1037 l 21 1037 l 21 1042 l 164 1042 m 1045 1042 l 1045 1037 l 899 1037 l 899 -14 l 893 -14 l 161 1042 l 515 1042 l 894 496 l 894 1037 l 742 1037 l 742 1042 l 1045 1042 m 493 1181 l 313 1403 l 315 1406 l 567 1313 l 817 1406 l 819 1403 l 639 1181 l 493 1181 z "},"Ņ":{"ha":1065,"x_min":21,"x_max":1045,"o":"m 164 1042 l 164 5 l 318 5 l 318 0 l 21 0 l 21 5 l 159 5 l 159 1037 l 21 1037 l 21 1042 l 164 1042 m 1045 1042 l 1045 1037 l 899 1037 l 899 -14 l 893 -14 l 161 1042 l 515 1042 l 894 496 l 894 1037 l 742 1037 l 742 1042 l 1045 1042 m 408 -553 l 408 -549 q 563 -514 494 -549 q 667 -411 632 -478 q 685 -247 701 -344 l 686 -247 q 664 -320 686 -287 q 609 -372 642 -353 q 541 -391 576 -391 q 445 -351 480 -391 q 410 -259 410 -311 q 429 -193 410 -224 q 481 -145 449 -163 q 551 -126 513 -126 q 652 -173 608 -126 q 695 -298 695 -220 q 659 -433 695 -376 q 558 -522 623 -490 q 408 -553 494 -553 z "},"Ŋ":{"ha":1102,"x_min":22,"x_max":1015,"o":"m 624 -361 q 501 -339 557 -361 q 410 -275 444 -316 q 376 -182 376 -235 q 419 -82 376 -124 q 525 -40 462 -40 q 597 -59 563 -40 q 651 -108 630 -77 q 672 -178 672 -140 q 633 -272 672 -235 q 528 -309 594 -309 q 453 -289 487 -309 q 398 -239 419 -269 q 378 -182 378 -210 l 383 -182 q 418 -277 383 -238 q 506 -335 453 -315 q 609 -355 558 -355 q 690 -320 661 -355 q 732 -230 719 -286 q 748 -106 745 -173 q 751 28 751 -38 l 751 717 q 742 839 751 784 q 713 932 732 893 q 667 991 694 971 q 603 1012 639 1012 q 501 976 543 1012 q 433 882 459 940 q 396 752 408 823 q 384 612 384 681 l 380 612 q 387 728 380 667 q 414 847 394 789 q 468 952 433 905 q 559 1027 503 999 q 696 1055 615 1055 q 881 1016 810 1055 q 983 908 951 978 q 1015 742 1015 838 l 1015 -16 q 980 -145 1015 -83 q 887 -256 944 -208 q 760 -333 829 -305 q 624 -361 692 -361 m 22 0 l 22 5 l 480 5 l 480 0 l 22 0 m 119 0 l 119 1037 l 22 1037 l 22 1042 l 384 1042 l 384 0 l 119 0 z "},"Ñ":{"ha":1065,"x_min":21,"x_max":1045,"o":"m 164 1042 l 164 5 l 318 5 l 318 0 l 21 0 l 21 5 l 159 5 l 159 1037 l 21 1037 l 21 1042 l 164 1042 m 1045 1042 l 1045 1037 l 899 1037 l 899 -14 l 893 -14 l 161 1042 l 515 1042 l 894 496 l 894 1037 l 742 1037 l 742 1042 l 1045 1042 m 679 1139 q 601 1156 634 1139 q 541 1194 569 1172 q 482 1232 513 1215 q 408 1249 451 1249 q 344 1226 364 1249 q 324 1181 324 1203 l 319 1181 q 331 1293 319 1240 q 372 1379 342 1346 q 457 1413 402 1413 q 536 1396 504 1413 q 593 1358 567 1379 q 647 1319 619 1336 q 715 1303 675 1303 q 778 1325 758 1303 q 798 1371 798 1348 l 803 1371 q 798 1252 803 1305 q 767 1169 792 1200 q 679 1139 741 1139 z "},"O":{"ha":1110,"x_min":56,"x_max":1056,"o":"m 556 -14 q 347 26 440 -14 q 189 137 254 65 q 90 307 124 209 q 56 521 56 405 q 92 735 56 637 q 194 905 128 833 q 353 1016 261 976 q 556 1056 444 1056 q 758 1016 667 1056 q 917 905 850 976 q 1019 735 983 833 q 1056 521 1056 637 q 1021 307 1056 405 q 922 137 987 209 q 764 26 857 65 q 556 -14 672 -14 m 556 -9 q 644 28 610 -9 q 697 135 678 65 q 722 302 715 205 q 729 521 729 400 q 720 739 729 642 q 691 907 711 837 q 638 1014 672 976 q 556 1051 605 1051 q 473 1014 507 1051 q 420 907 440 976 q 391 739 400 837 q 382 521 382 642 q 389 302 382 400 q 415 135 396 205 q 467 28 433 65 q 556 -9 501 -9 z "},"Ó":{"ha":1110,"x_min":56,"x_max":1056,"o":"m 556 -14 q 347 26 440 -14 q 189 137 254 65 q 90 307 124 209 q 56 521 56 405 q 92 735 56 637 q 194 905 128 833 q 353 1016 261 976 q 556 1056 444 1056 q 758 1016 667 1056 q 917 905 850 976 q 1019 735 983 833 q 1056 521 1056 637 q 1021 307 1056 405 q 922 137 987 209 q 764 26 857 65 q 556 -14 672 -14 m 556 -9 q 644 28 610 -9 q 697 135 678 65 q 722 302 715 205 q 729 521 729 400 q 720 739 729 642 q 691 907 711 837 q 638 1014 672 976 q 556 1051 605 1051 q 473 1014 507 1051 q 420 907 440 976 q 391 739 400 837 q 382 521 382 642 q 389 302 382 400 q 415 135 396 205 q 467 28 433 65 q 556 -9 501 -9 m 472 1166 l 469 1169 l 566 1358 q 635 1425 592 1410 q 718 1428 678 1440 q 778 1390 759 1417 q 796 1313 801 1356 q 760 1235 791 1269 q 674 1193 729 1201 l 472 1166 z "},"Ŏ":{"ha":1110,"x_min":56,"x_max":1056,"o":"m 556 -14 q 347 26 440 -14 q 189 137 254 65 q 90 307 124 209 q 56 521 56 405 q 92 735 56 637 q 194 905 128 833 q 353 1016 261 976 q 556 1056 444 1056 q 758 1016 667 1056 q 917 905 850 976 q 1019 735 983 833 q 1056 521 1056 637 q 1021 307 1056 405 q 922 137 987 209 q 764 26 857 65 q 556 -14 672 -14 m 556 -9 q 644 28 610 -9 q 697 135 678 65 q 722 302 715 205 q 729 521 729 400 q 720 739 729 642 q 691 907 711 837 q 638 1014 672 976 q 556 1051 605 1051 q 473 1014 507 1051 q 420 907 440 976 q 391 739 400 837 q 382 521 382 642 q 389 302 382 400 q 415 135 396 205 q 467 28 433 65 q 556 -9 501 -9 m 556 1167 q 460 1194 501 1167 q 398 1280 419 1222 q 376 1429 376 1338 l 381 1429 q 409 1382 381 1399 q 478 1360 438 1366 q 556 1354 519 1354 q 634 1360 594 1354 q 703 1382 675 1366 q 732 1429 732 1399 l 737 1429 q 715 1280 737 1338 q 652 1194 693 1222 q 556 1167 612 1167 z "},"Ô":{"ha":1110,"x_min":56,"x_max":1056,"o":"m 556 -14 q 347 26 440 -14 q 189 137 254 65 q 90 307 124 209 q 56 521 56 405 q 92 735 56 637 q 194 905 128 833 q 353 1016 261 976 q 556 1056 444 1056 q 758 1016 667 1056 q 917 905 850 976 q 1019 735 983 833 q 1056 521 1056 637 q 1021 307 1056 405 q 922 137 987 209 q 764 26 857 65 q 556 -14 672 -14 m 556 -9 q 644 28 610 -9 q 697 135 678 65 q 722 302 715 205 q 729 521 729 400 q 720 739 729 642 q 691 907 711 837 q 638 1014 672 976 q 556 1051 605 1051 q 473 1014 507 1051 q 420 907 440 976 q 391 739 400 837 q 382 521 382 642 q 389 302 382 400 q 415 135 396 205 q 467 28 433 65 q 556 -9 501 -9 m 306 1188 l 303 1191 l 484 1413 l 630 1413 l 810 1191 l 808 1188 l 556 1281 l 306 1188 z "},"Ö":{"ha":1110,"x_min":56,"x_max":1056,"o":"m 556 -14 q 347 26 440 -14 q 189 137 254 65 q 90 307 124 209 q 56 521 56 405 q 92 735 56 637 q 194 905 128 833 q 353 1016 261 976 q 556 1056 444 1056 q 758 1016 667 1056 q 917 905 850 976 q 1019 735 983 833 q 1056 521 1056 637 q 1021 307 1056 405 q 922 137 987 209 q 764 26 857 65 q 556 -14 672 -14 m 556 -9 q 644 28 610 -9 q 697 135 678 65 q 722 302 715 205 q 729 521 729 400 q 720 739 729 642 q 691 907 711 837 q 638 1014 672 976 q 556 1051 605 1051 q 473 1014 507 1051 q 420 907 440 976 q 391 739 400 837 q 382 521 382 642 q 389 302 382 400 q 415 135 396 205 q 467 28 433 65 q 556 -9 501 -9 m 705 1167 q 639 1194 667 1167 q 612 1260 612 1222 q 639 1326 612 1299 q 706 1353 667 1353 q 771 1326 744 1353 q 799 1260 799 1299 q 771 1194 799 1222 q 705 1167 744 1167 m 408 1167 q 342 1194 369 1167 q 315 1260 315 1222 q 342 1326 315 1299 q 408 1353 369 1353 q 474 1326 447 1353 q 501 1260 501 1299 q 474 1194 501 1222 q 408 1167 447 1167 z "},"Ò":{"ha":1110,"x_min":56,"x_max":1056,"o":"m 556 -14 q 347 26 440 -14 q 189 137 254 65 q 90 307 124 209 q 56 521 56 405 q 92 735 56 637 q 194 905 128 833 q 353 1016 261 976 q 556 1056 444 1056 q 758 1016 667 1056 q 917 905 850 976 q 1019 735 983 833 q 1056 521 1056 637 q 1021 307 1056 405 q 922 137 987 209 q 764 26 857 65 q 556 -14 672 -14 m 556 -9 q 644 28 610 -9 q 697 135 678 65 q 722 302 715 205 q 729 521 729 400 q 720 739 729 642 q 691 907 711 837 q 638 1014 672 976 q 556 1051 605 1051 q 473 1014 507 1051 q 420 907 440 976 q 391 739 400 837 q 382 521 382 642 q 389 302 382 400 q 415 135 396 205 q 467 28 433 65 q 556 -9 501 -9 m 639 1166 l 437 1193 q 350 1235 381 1201 q 315 1313 319 1269 q 333 1390 310 1356 q 392 1428 351 1417 q 475 1425 432 1440 q 544 1358 518 1410 l 641 1169 l 639 1166 z "},"Ő":{"ha":1110,"x_min":56,"x_max":1056,"o":"m 556 -14 q 347 26 440 -14 q 189 137 254 65 q 90 307 124 209 q 56 521 56 405 q 92 735 56 637 q 194 905 128 833 q 353 1016 261 976 q 556 1056 444 1056 q 758 1016 667 1056 q 917 905 850 976 q 1019 735 983 833 q 1056 521 1056 637 q 1021 307 1056 405 q 922 137 987 209 q 764 26 857 65 q 556 -14 672 -14 m 556 -9 q 644 28 610 -9 q 697 135 678 65 q 722 302 715 205 q 729 521 729 400 q 720 739 729 642 q 691 907 711 837 q 638 1014 672 976 q 556 1051 605 1051 q 473 1014 507 1051 q 420 907 440 976 q 391 739 400 837 q 382 521 382 642 q 389 302 382 400 q 415 135 396 205 q 467 28 433 65 q 556 -9 501 -9 m 289 1165 l 287 1168 l 383 1357 q 453 1423 410 1408 q 536 1427 496 1438 q 595 1388 576 1415 q 613 1311 618 1355 q 577 1234 608 1268 q 491 1192 547 1199 l 289 1165 m 643 1165 l 641 1168 l 738 1357 q 807 1423 764 1408 q 890 1427 850 1438 q 949 1388 931 1415 q 967 1311 972 1355 q 932 1234 963 1268 q 845 1192 901 1199 l 643 1165 z "},"Ō":{"ha":1110,"x_min":56,"x_max":1056,"o":"m 556 -14 q 347 26 440 -14 q 189 137 254 65 q 90 307 124 209 q 56 521 56 405 q 92 735 56 637 q 194 905 128 833 q 353 1016 261 976 q 556 1056 444 1056 q 758 1016 667 1056 q 917 905 850 976 q 1019 735 983 833 q 1056 521 1056 637 q 1021 307 1056 405 q 922 137 987 209 q 764 26 857 65 q 556 -14 672 -14 m 556 -9 q 644 28 610 -9 q 697 135 678 65 q 722 302 715 205 q 729 521 729 400 q 720 739 729 642 q 691 907 711 837 q 638 1014 672 976 q 556 1051 605 1051 q 473 1014 507 1051 q 420 907 440 976 q 391 739 400 837 q 382 521 382 642 q 389 302 382 400 q 415 135 396 205 q 467 28 433 65 q 556 -9 501 -9 m 390 1181 l 390 1185 l 723 1185 l 723 1181 l 390 1181 z "},"Ø":{"ha":1110,"x_min":56,"x_max":1056,"o":"m 244 -139 l 851 1153 l 857 1153 l 249 -139 l 244 -139 m 556 -14 q 347 26 440 -14 q 189 137 254 65 q 90 307 124 209 q 56 521 56 405 q 92 735 56 637 q 194 905 128 833 q 353 1016 261 976 q 556 1056 444 1056 q 758 1016 667 1056 q 917 905 850 976 q 1019 735 983 833 q 1056 521 1056 637 q 1021 307 1056 405 q 922 137 987 209 q 764 26 857 65 q 556 -14 672 -14 m 556 -9 q 644 28 610 -9 q 697 135 678 65 q 722 302 715 205 q 729 521 729 400 q 720 739 729 642 q 691 907 711 837 q 638 1014 672 976 q 556 1051 605 1051 q 473 1014 507 1051 q 420 907 440 976 q 391 739 400 837 q 382 521 382 642 q 389 302 382 400 q 415 135 396 205 q 467 28 433 65 q 556 -9 501 -9 z "},"Õ":{"ha":1110,"x_min":56,"x_max":1056,"o":"m 556 -14 q 347 26 440 -14 q 189 137 254 65 q 90 307 124 209 q 56 521 56 405 q 92 735 56 637 q 194 905 128 833 q 353 1016 261 976 q 556 1056 444 1056 q 758 1016 667 1056 q 917 905 850 976 q 1019 735 983 833 q 1056 521 1056 637 q 1021 307 1056 405 q 922 137 987 209 q 764 26 857 65 q 556 -14 672 -14 m 556 -9 q 644 28 610 -9 q 697 135 678 65 q 722 302 715 205 q 729 521 729 400 q 720 739 729 642 q 691 907 711 837 q 638 1014 672 976 q 556 1051 605 1051 q 473 1014 507 1051 q 420 907 440 976 q 391 739 400 837 q 382 521 382 642 q 389 302 382 400 q 415 135 396 205 q 467 28 433 65 q 556 -9 501 -9 m 670 1139 q 592 1156 625 1139 q 532 1194 560 1172 q 473 1232 504 1215 q 399 1249 442 1249 q 335 1226 355 1249 q 315 1181 315 1203 l 310 1181 q 322 1293 310 1240 q 363 1379 333 1346 q 448 1413 393 1413 q 527 1396 495 1413 q 584 1358 558 1379 q 638 1319 610 1336 q 706 1303 666 1303 q 769 1325 749 1303 q 789 1371 789 1348 l 794 1371 q 789 1252 794 1305 q 758 1169 783 1200 q 670 1139 732 1139 z "},"Œ":{"ha":1436,"x_min":56,"x_max":1396,"o":"m 382 521 q 393 725 382 631 q 427 889 404 819 q 485 998 449 959 q 569 1037 521 1037 l 528 1042 q 281 976 387 1042 q 115 792 174 910 q 56 521 56 675 q 115 249 56 367 q 281 66 174 132 q 528 0 387 0 l 569 5 q 485 44 521 5 q 427 152 449 83 q 393 316 404 222 q 382 521 382 410 m 528 0 l 528 5 l 653 5 l 653 1037 l 528 1037 l 528 1042 l 1382 1042 l 1382 757 l 1377 757 q 1306 895 1356 831 q 1186 998 1256 958 q 1034 1037 1115 1037 l 951 1037 l 951 5 l 1020 5 q 1191 45 1115 5 q 1319 155 1267 85 q 1391 313 1370 224 l 1396 313 l 1396 0 l 528 0 m 1183 344 q 1126 435 1162 391 q 1047 508 1090 479 q 964 536 1003 536 l 891 536 l 891 542 l 964 542 q 1046 568 1003 542 q 1125 638 1089 595 q 1183 726 1162 680 l 1188 726 l 1188 344 l 1183 344 z "},"P":{"ha":1020,"x_min":21,"x_max":972,"o":"m 569 1042 q 798 1006 709 1042 q 930 905 887 971 q 972 749 972 840 q 930 597 972 659 q 798 502 887 534 q 569 469 709 469 l 444 469 l 444 5 l 569 5 l 569 0 l 21 0 l 21 5 l 146 5 l 146 1037 l 21 1037 l 21 1042 l 569 1042 m 444 474 l 514 474 q 580 499 553 474 q 623 566 607 524 q 646 655 639 607 q 653 750 653 703 q 646 847 653 797 q 623 940 639 897 q 580 1010 607 983 q 514 1037 553 1037 l 444 1037 l 444 474 z "},"Þ":{"ha":1019,"x_min":19,"x_max":972,"o":"m 417 250 l 417 255 l 500 255 q 580 282 550 255 q 626 352 610 308 q 648 445 642 395 q 653 542 653 495 q 648 638 653 588 q 626 732 642 688 q 580 802 610 775 q 500 828 550 828 l 417 828 l 417 833 l 597 833 q 878 755 785 833 q 972 542 972 677 q 878 328 972 406 q 597 250 785 250 l 417 250 m 19 0 l 19 5 l 569 5 l 569 0 l 19 0 m 146 0 l 146 1042 l 444 1042 l 444 0 l 146 0 m 19 1037 l 19 1042 l 569 1042 l 569 1037 l 19 1037 z "},"Q":{"ha":1110,"x_min":56,"x_max":1056,"o":"m 875 -347 q 633 -334 728 -347 q 484 -283 538 -320 q 410 -174 431 -245 q 389 14 389 -102 q 555 -13 473 -12 q 715 14 638 -13 q 718 -148 715 -81 q 736 -259 722 -216 q 783 -322 750 -302 q 875 -342 816 -342 l 875 -347 m 556 -14 q 347 26 440 -14 q 189 137 254 65 q 90 307 124 209 q 56 521 56 405 q 92 735 56 637 q 194 905 128 833 q 353 1016 261 976 q 556 1056 444 1056 q 758 1016 667 1056 q 917 905 850 976 q 1019 735 983 833 q 1056 521 1056 637 q 1021 307 1056 405 q 922 137 987 209 q 764 26 857 65 q 556 -14 672 -14 m 556 -9 q 644 28 610 -9 q 697 135 678 65 q 722 302 715 205 q 729 521 729 400 q 720 739 729 642 q 691 907 711 837 q 638 1014 672 976 q 556 1051 605 1051 q 473 1014 507 1051 q 420 907 440 976 q 391 739 400 837 q 382 521 382 642 q 389 302 382 400 q 415 135 396 205 q 467 28 433 65 q 556 -9 501 -9 z "},"R":{"ha":1097,"x_min":21,"x_max":1083,"o":"m 271 533 l 271 538 l 465 538 q 575 562 532 538 q 639 641 618 586 q 660 785 660 695 q 639 930 660 874 q 575 1011 618 985 q 465 1037 532 1037 l 21 1037 l 21 1042 l 535 1042 q 758 1015 660 1042 q 910 932 855 988 q 965 785 965 875 q 913 639 965 694 q 764 559 860 584 q 535 533 667 533 l 271 533 m 21 0 l 21 5 l 569 5 l 569 0 l 21 0 m 146 3 l 146 1040 l 444 1040 l 444 3 l 146 3 m 875 -14 q 747 9 794 -14 q 676 70 699 31 q 646 158 653 110 q 639 259 639 207 q 635 360 638 311 q 619 448 633 408 q 570 509 605 487 q 472 532 536 532 l 271 532 l 271 536 l 667 536 q 814 507 760 536 q 893 431 867 478 q 927 327 919 384 q 934 214 934 271 q 935 110 933 158 q 950 34 936 63 q 1000 6 963 6 q 1044 11 1022 6 q 1081 24 1067 17 l 1083 21 q 1010 -1 1067 12 q 875 -14 954 -14 z "},"Ŕ":{"ha":1097,"x_min":21,"x_max":1083,"o":"m 271 533 l 271 538 l 465 538 q 575 562 532 538 q 639 641 618 586 q 660 785 660 695 q 639 930 660 874 q 575 1011 618 985 q 465 1037 532 1037 l 21 1037 l 21 1042 l 535 1042 q 758 1015 660 1042 q 910 932 855 988 q 965 785 965 875 q 913 639 965 694 q 764 559 860 584 q 535 533 667 533 l 271 533 m 21 0 l 21 5 l 569 5 l 569 0 l 21 0 m 146 3 l 146 1040 l 444 1040 l 444 3 l 146 3 m 875 -14 q 747 9 794 -14 q 676 70 699 31 q 646 158 653 110 q 639 259 639 207 q 635 360 638 311 q 619 448 633 408 q 570 509 605 487 q 472 532 536 532 l 271 532 l 271 536 l 667 536 q 814 507 760 536 q 893 431 867 478 q 927 327 919 384 q 934 214 934 271 q 935 110 933 158 q 950 34 936 63 q 1000 6 963 6 q 1044 11 1022 6 q 1081 24 1067 17 l 1083 21 q 1010 -1 1067 12 q 875 -14 954 -14 m 390 1166 l 388 1169 l 485 1358 q 554 1425 511 1410 q 637 1428 597 1440 q 697 1390 678 1417 q 715 1313 719 1356 q 679 1235 710 1269 q 592 1193 648 1201 l 390 1166 z "},"Ř":{"ha":1097,"x_min":21,"x_max":1083,"o":"m 271 533 l 271 538 l 465 538 q 575 562 532 538 q 639 641 618 586 q 660 785 660 695 q 639 930 660 874 q 575 1011 618 985 q 465 1037 532 1037 l 21 1037 l 21 1042 l 535 1042 q 758 1015 660 1042 q 910 932 855 988 q 965 785 965 875 q 913 639 965 694 q 764 559 860 584 q 535 533 667 533 l 271 533 m 21 0 l 21 5 l 569 5 l 569 0 l 21 0 m 146 3 l 146 1040 l 444 1040 l 444 3 l 146 3 m 875 -14 q 747 9 794 -14 q 676 70 699 31 q 646 158 653 110 q 639 259 639 207 q 635 360 638 311 q 619 448 633 408 q 570 509 605 487 q 472 532 536 532 l 271 532 l 271 536 l 667 536 q 814 507 760 536 q 893 431 867 478 q 927 327 919 384 q 934 214 934 271 q 935 110 933 158 q 950 34 936 63 q 1000 6 963 6 q 1044 11 1022 6 q 1081 24 1067 17 l 1083 21 q 1010 -1 1067 12 q 875 -14 954 -14 m 403 1181 l 222 1403 l 225 1406 l 476 1313 l 726 1406 l 729 1403 l 549 1181 l 403 1181 z "},"Ŗ":{"ha":1097,"x_min":21,"x_max":1083,"o":"m 271 533 l 271 538 l 465 538 q 575 562 532 538 q 639 641 618 586 q 660 785 660 695 q 639 930 660 874 q 575 1011 618 985 q 465 1037 532 1037 l 21 1037 l 21 1042 l 535 1042 q 758 1015 660 1042 q 910 932 855 988 q 965 785 965 875 q 913 639 965 694 q 764 559 860 584 q 535 533 667 533 l 271 533 m 21 0 l 21 5 l 569 5 l 569 0 l 21 0 m 146 3 l 146 1040 l 444 1040 l 444 3 l 146 3 m 875 -14 q 747 9 794 -14 q 676 70 699 31 q 646 158 653 110 q 639 259 639 207 q 635 360 638 311 q 619 448 633 408 q 570 509 605 487 q 472 532 536 532 l 271 532 l 271 536 l 667 536 q 814 507 760 536 q 893 431 867 478 q 927 327 919 384 q 934 214 934 271 q 935 110 933 158 q 950 34 936 63 q 1000 6 963 6 q 1044 11 1022 6 q 1081 24 1067 17 l 1083 21 q 1010 -1 1067 12 q 875 -14 954 -14 m 435 -553 l 435 -549 q 591 -514 522 -549 q 694 -411 660 -478 q 713 -247 729 -344 l 714 -247 q 692 -320 714 -287 q 637 -372 670 -353 q 569 -391 604 -391 q 473 -351 508 -391 q 438 -259 438 -311 q 457 -193 438 -224 q 509 -145 476 -163 q 578 -126 541 -126 q 680 -173 636 -126 q 723 -298 723 -220 q 687 -433 723 -376 q 586 -522 651 -490 q 435 -553 522 -553 z "},"Ȓ":{"ha":1097,"x_min":21,"x_max":1083,"o":"m 271 533 l 271 538 l 465 538 q 575 562 532 538 q 639 641 618 586 q 660 785 660 695 q 639 930 660 874 q 575 1011 618 985 q 465 1037 532 1037 l 21 1037 l 21 1042 l 535 1042 q 758 1015 660 1042 q 910 932 855 988 q 965 785 965 875 q 913 639 965 694 q 764 559 860 584 q 535 533 667 533 l 271 533 m 21 0 l 21 5 l 569 5 l 569 0 l 21 0 m 146 3 l 146 1040 l 444 1040 l 444 3 l 146 3 m 875 -14 q 747 9 794 -14 q 676 70 699 31 q 646 158 653 110 q 639 259 639 207 q 635 360 638 311 q 619 448 633 408 q 570 509 605 487 q 472 532 536 532 l 271 532 l 271 536 l 667 536 q 814 507 760 536 q 893 431 867 478 q 927 327 919 384 q 934 214 934 271 q 935 110 933 158 q 950 34 936 63 q 1000 6 963 6 q 1044 11 1022 6 q 1081 24 1067 17 l 1083 21 q 1010 -1 1067 12 q 875 -14 954 -14 m 297 1167 q 318 1316 297 1258 q 381 1402 340 1374 q 477 1430 422 1430 q 573 1402 533 1430 q 636 1316 614 1374 q 658 1167 658 1258 l 653 1167 q 624 1214 653 1198 q 555 1236 596 1231 q 477 1242 515 1242 q 399 1236 440 1242 q 330 1214 358 1231 q 301 1167 301 1198 l 297 1167 z "},"S":{"ha":881,"x_min":56,"x_max":826,"o":"m 451 -21 q 336 1 388 -21 q 244 60 285 24 l 60 -14 l 56 -14 l 56 354 l 62 354 q 125 227 90 292 q 205 107 159 163 q 311 18 251 52 q 451 -16 372 -16 q 551 12 510 -16 q 611 83 591 40 q 632 174 632 126 q 601 260 632 226 q 521 318 571 294 q 411 365 471 342 q 291 417 351 388 q 181 489 231 446 q 100 597 131 532 q 69 757 69 662 q 117 921 69 854 q 239 1022 164 988 q 399 1056 315 1056 q 502 1038 454 1056 q 590 986 549 1019 l 766 1056 l 771 1056 l 771 715 l 765 715 q 672 888 723 812 q 554 1007 621 963 q 399 1051 488 1051 q 297 1004 331 1051 q 264 896 264 958 q 294 818 264 850 q 375 760 325 785 q 485 710 425 735 q 605 653 545 685 q 715 578 665 622 q 796 472 765 535 q 826 319 826 409 q 774 139 826 215 q 635 21 721 63 q 451 -21 549 -21 z "},"Ś":{"ha":881,"x_min":56,"x_max":826,"o":"m 451 -21 q 336 1 388 -21 q 244 60 285 24 l 60 -14 l 56 -14 l 56 354 l 62 354 q 125 227 90 292 q 205 107 159 163 q 311 18 251 52 q 451 -16 372 -16 q 551 12 510 -16 q 611 83 591 40 q 632 174 632 126 q 601 260 632 226 q 521 318 571 294 q 411 365 471 342 q 291 417 351 388 q 181 489 231 446 q 100 597 131 532 q 69 757 69 662 q 117 921 69 854 q 239 1022 164 988 q 399 1056 315 1056 q 502 1038 454 1056 q 590 986 549 1019 l 766 1056 l 771 1056 l 771 715 l 765 715 q 672 888 723 812 q 554 1007 621 963 q 399 1051 488 1051 q 297 1004 331 1051 q 264 896 264 958 q 294 818 264 850 q 375 760 325 785 q 485 710 425 735 q 605 653 545 685 q 715 578 665 622 q 796 472 765 535 q 826 319 826 409 q 774 139 826 215 q 635 21 721 63 q 451 -21 549 -21 m 342 1166 l 340 1169 l 436 1358 q 505 1425 463 1410 q 589 1428 548 1440 q 648 1390 629 1417 q 666 1313 671 1356 q 630 1235 661 1269 q 544 1193 599 1201 l 342 1166 z "},"Š":{"ha":881,"x_min":56,"x_max":826,"o":"m 451 -21 q 336 1 388 -21 q 244 60 285 24 l 60 -14 l 56 -14 l 56 354 l 62 354 q 125 227 90 292 q 205 107 159 163 q 311 18 251 52 q 451 -16 372 -16 q 551 12 510 -16 q 611 83 591 40 q 632 174 632 126 q 601 260 632 226 q 521 318 571 294 q 411 365 471 342 q 291 417 351 388 q 181 489 231 446 q 100 597 131 532 q 69 757 69 662 q 117 921 69 854 q 239 1022 164 988 q 399 1056 315 1056 q 502 1038 454 1056 q 590 986 549 1019 l 766 1056 l 771 1056 l 771 715 l 765 715 q 672 888 723 812 q 554 1007 621 963 q 399 1051 488 1051 q 297 1004 331 1051 q 264 896 264 958 q 294 818 264 850 q 375 760 325 785 q 485 710 425 735 q 605 653 545 685 q 715 578 665 622 q 796 472 765 535 q 826 319 826 409 q 774 139 826 215 q 635 21 721 63 q 451 -21 549 -21 m 354 1181 l 174 1403 l 176 1406 l 428 1313 l 678 1406 l 681 1403 l 500 1181 l 354 1181 z "},"Ş":{"ha":881,"x_min":56,"x_max":826,"o":"m 451 -21 q 336 1 388 -21 q 244 60 285 24 l 60 -14 l 56 -14 l 56 354 l 62 354 q 125 227 90 292 q 205 107 159 163 q 311 18 251 52 q 451 -16 372 -16 q 551 12 510 -16 q 611 83 591 40 q 632 174 632 126 q 601 260 632 226 q 521 318 571 294 q 411 365 471 342 q 291 417 351 388 q 181 489 231 446 q 100 597 131 532 q 69 757 69 662 q 117 921 69 854 q 239 1022 164 988 q 399 1056 315 1056 q 502 1038 454 1056 q 590 986 549 1019 l 766 1056 l 771 1056 l 771 715 l 765 715 q 672 888 723 812 q 554 1007 621 963 q 399 1051 488 1051 q 297 1004 331 1051 q 264 896 264 958 q 294 818 264 850 q 375 760 325 785 q 485 710 425 735 q 605 653 545 685 q 715 578 665 622 q 796 472 765 535 q 826 319 826 409 q 774 139 826 215 q 635 21 721 63 q 451 -21 549 -21 m 324 -372 l 324 -367 q 409 -337 386 -367 q 433 -261 433 -306 q 418 -206 433 -224 q 380 -182 403 -188 q 332 -176 356 -176 l 449 -17 l 456 -17 l 381 -121 q 523 -135 465 -123 q 612 -170 582 -147 q 642 -233 642 -194 q 615 -300 642 -268 q 519 -352 588 -332 q 324 -372 450 -372 z "},"Ŝ":{"ha":881,"x_min":56,"x_max":826,"o":"m 451 -21 q 336 1 388 -21 q 244 60 285 24 l 60 -14 l 56 -14 l 56 354 l 62 354 q 125 227 90 292 q 205 107 159 163 q 311 18 251 52 q 451 -16 372 -16 q 551 12 510 -16 q 611 83 591 40 q 632 174 632 126 q 601 260 632 226 q 521 318 571 294 q 411 365 471 342 q 291 417 351 388 q 181 489 231 446 q 100 597 131 532 q 69 757 69 662 q 117 921 69 854 q 239 1022 164 988 q 399 1056 315 1056 q 502 1038 454 1056 q 590 986 549 1019 l 766 1056 l 771 1056 l 771 715 l 765 715 q 672 888 723 812 q 554 1007 621 963 q 399 1051 488 1051 q 297 1004 331 1051 q 264 896 264 958 q 294 818 264 850 q 375 760 325 785 q 485 710 425 735 q 605 653 545 685 q 715 578 665 622 q 796 472 765 535 q 826 319 826 409 q 774 139 826 215 q 635 21 721 63 q 451 -21 549 -21 m 176 1188 l 174 1191 l 354 1413 l 500 1413 l 681 1191 l 678 1188 l 426 1281 l 176 1188 z "},"Ș":{"ha":881,"x_min":56,"x_max":826,"o":"m 451 -21 q 336 1 388 -21 q 244 60 285 24 l 60 -14 l 56 -14 l 56 354 l 62 354 q 125 227 90 292 q 205 107 159 163 q 311 18 251 52 q 451 -16 372 -16 q 551 12 510 -16 q 611 83 591 40 q 632 174 632 126 q 601 260 632 226 q 521 318 571 294 q 411 365 471 342 q 291 417 351 388 q 181 489 231 446 q 100 597 131 532 q 69 757 69 662 q 117 921 69 854 q 239 1022 164 988 q 399 1056 315 1056 q 502 1038 454 1056 q 590 986 549 1019 l 766 1056 l 771 1056 l 771 715 l 765 715 q 672 888 723 812 q 554 1007 621 963 q 399 1051 488 1051 q 297 1004 331 1051 q 264 896 264 958 q 294 818 264 850 q 375 760 325 785 q 485 710 425 735 q 605 653 545 685 q 715 578 665 622 q 796 472 765 535 q 826 319 826 409 q 774 139 826 215 q 635 21 721 63 q 451 -21 549 -21 m 328 -572 l 328 -567 q 483 -532 414 -567 q 587 -429 552 -497 q 605 -265 622 -362 l 606 -265 q 584 -338 606 -306 q 530 -390 563 -371 q 461 -409 497 -409 q 365 -369 400 -409 q 330 -277 330 -329 q 349 -211 330 -242 q 401 -163 369 -181 q 471 -144 433 -144 q 572 -191 528 -144 q 615 -316 615 -238 q 579 -451 615 -394 q 478 -540 543 -508 q 328 -572 414 -572 z "},"ẞ":{"ha":1361,"x_min":19,"x_max":1306,"o":"m 146 0 l 146 613 q 198 812 146 728 q 343 950 250 896 q 558 1030 435 1003 q 824 1056 681 1056 q 1020 1030 931 1056 q 1174 969 1110 1005 q 1265 904 1238 934 l 964 508 q 850 545 922 525 q 685 569 778 565 l 1028 1020 q 945 1040 999 1031 q 824 1050 890 1050 q 640 1019 713 1050 q 526 929 567 988 q 468 786 485 870 q 451 597 451 703 l 451 0 l 146 0 m 19 0 l 19 5 l 576 5 l 576 0 l 19 0 m 890 -14 q 694 27 774 -14 q 575 131 615 68 q 534 258 534 194 q 579 376 534 326 q 691 425 624 425 q 797 380 754 425 q 839 271 839 335 q 818 198 839 231 q 763 145 797 165 q 691 125 729 125 q 617 145 653 125 q 558 196 581 165 q 535 258 535 226 l 539 258 q 566 154 539 201 q 636 72 592 106 q 731 18 679 37 q 835 -1 783 -1 q 933 39 897 -1 q 985 146 969 80 q 1001 292 1001 213 q 988 375 1001 335 q 951 450 976 415 q 889 510 926 485 q 800 550 851 536 q 685 565 749 565 l 685 569 q 967 553 849 569 q 1160 502 1085 536 q 1271 417 1235 468 q 1306 299 1306 367 q 1269 162 1306 221 q 1172 64 1233 103 q 1037 6 1110 25 q 890 -14 963 -14 z "},"T":{"ha":1006,"x_min":21,"x_max":986,"o":"m 201 0 l 201 5 l 354 5 l 354 1037 l 314 1037 q 218 1008 263 1037 q 135 928 173 978 q 69 816 97 878 q 26 688 42 753 l 21 688 l 21 1042 l 986 1042 l 986 688 l 981 688 q 938 816 965 753 q 872 928 910 878 q 789 1008 835 978 q 694 1037 744 1037 l 653 1037 l 653 5 l 806 5 l 806 0 l 201 0 z "},"Ŧ":{"ha":992,"x_min":21,"x_max":986,"o":"m 202 460 l 202 465 l 806 465 l 806 460 l 202 460 m 201 0 l 201 5 l 354 5 l 354 1037 l 314 1037 q 218 1008 263 1037 q 135 928 173 978 q 69 816 97 878 q 26 688 42 753 l 21 688 l 21 1042 l 986 1042 l 986 688 l 981 688 q 938 816 965 753 q 872 928 910 878 q 789 1008 835 978 q 694 1037 744 1037 l 653 1037 l 653 5 l 806 5 l 806 0 l 201 0 z "},"Ť":{"ha":1006,"x_min":21,"x_max":986,"o":"m 201 0 l 201 5 l 354 5 l 354 1037 l 314 1037 q 218 1008 263 1037 q 135 928 173 978 q 69 816 97 878 q 26 688 42 753 l 21 688 l 21 1042 l 986 1042 l 986 688 l 981 688 q 938 816 965 753 q 872 928 910 878 q 789 1008 835 978 q 694 1037 744 1037 l 653 1037 l 653 5 l 806 5 l 806 0 l 201 0 m 438 1181 l 257 1403 l 260 1406 l 511 1313 l 761 1406 l 764 1403 l 583 1181 l 438 1181 z "},"Ţ":{"ha":1006,"x_min":21,"x_max":986,"o":"m 201 0 l 201 5 l 354 5 l 354 1037 l 314 1037 q 218 1008 263 1037 q 135 928 173 978 q 69 816 97 878 q 26 688 42 753 l 21 688 l 21 1042 l 986 1042 l 986 688 l 981 688 q 938 816 965 753 q 872 928 910 878 q 789 1008 835 978 q 694 1037 744 1037 l 653 1037 l 653 5 l 806 5 l 806 0 l 201 0 m 362 -354 l 362 -349 q 447 -319 424 -349 q 470 -243 470 -288 q 455 -188 470 -206 q 417 -164 440 -170 q 369 -158 394 -158 l 487 1 l 494 1 l 418 -103 q 561 -117 502 -105 q 650 -152 619 -128 q 680 -215 680 -176 q 653 -282 680 -250 q 557 -334 626 -314 q 362 -354 488 -354 z "},"Ț":{"ha":1006,"x_min":21,"x_max":986,"o":"m 201 0 l 201 5 l 354 5 l 354 1037 l 314 1037 q 218 1008 263 1037 q 135 928 173 978 q 69 816 97 878 q 26 688 42 753 l 21 688 l 21 1042 l 986 1042 l 986 688 l 981 688 q 938 816 965 753 q 872 928 910 878 q 789 1008 835 978 q 694 1037 744 1037 l 653 1037 l 653 5 l 806 5 l 806 0 l 201 0 m 365 -553 l 365 -549 q 520 -514 451 -549 q 624 -411 590 -478 q 642 -247 659 -344 l 644 -247 q 622 -320 644 -287 q 567 -372 600 -353 q 499 -391 534 -391 q 402 -351 438 -391 q 367 -259 367 -311 q 387 -193 367 -224 q 439 -145 406 -163 q 508 -126 471 -126 q 609 -173 566 -126 q 653 -298 653 -220 q 617 -433 653 -376 q 516 -522 581 -490 q 365 -553 451 -553 z "},"U":{"ha":1042,"x_min":21,"x_max":1022,"o":"m 1022 1042 l 1022 1037 l 885 1037 l 885 319 q 804 64 885 148 q 549 -21 724 -21 q 242 59 338 -21 q 146 319 146 140 l 146 1037 l 21 1037 l 21 1042 l 583 1042 l 583 1037 l 444 1037 l 444 333 q 451 204 444 265 q 475 97 457 143 q 530 25 494 51 q 625 -1 567 -1 q 755 31 697 -1 q 846 135 813 64 q 879 319 879 206 l 879 1037 l 749 1037 l 749 1042 l 1022 1042 z "},"Ú":{"ha":1042,"x_min":21,"x_max":1022,"o":"m 1022 1042 l 1022 1037 l 885 1037 l 885 319 q 804 64 885 148 q 549 -21 724 -21 q 242 59 338 -21 q 146 319 146 140 l 146 1037 l 21 1037 l 21 1042 l 583 1042 l 583 1037 l 444 1037 l 444 333 q 451 204 444 265 q 475 97 457 143 q 530 25 494 51 q 625 -1 567 -1 q 755 31 697 -1 q 846 135 813 64 q 879 319 879 206 l 879 1037 l 749 1037 l 749 1042 l 1022 1042 m 515 1166 l 513 1169 l 610 1358 q 679 1425 636 1410 q 762 1428 722 1440 q 822 1390 803 1417 q 840 1313 844 1356 q 804 1235 835 1269 q 717 1193 773 1201 l 515 1166 z "},"Ŭ":{"ha":1042,"x_min":21,"x_max":1022,"o":"m 1022 1042 l 1022 1037 l 885 1037 l 885 319 q 804 64 885 148 q 549 -21 724 -21 q 242 59 338 -21 q 146 319 146 140 l 146 1037 l 21 1037 l 21 1042 l 583 1042 l 583 1037 l 444 1037 l 444 333 q 451 204 444 265 q 475 97 457 143 q 530 25 494 51 q 625 -1 567 -1 q 755 31 697 -1 q 846 135 813 64 q 879 319 879 206 l 879 1037 l 749 1037 l 749 1042 l 1022 1042 m 600 1167 q 504 1194 544 1167 q 441 1280 463 1222 q 419 1429 419 1338 l 424 1429 q 453 1382 424 1399 q 522 1360 481 1366 q 600 1354 563 1354 q 678 1360 638 1354 q 747 1382 719 1366 q 776 1429 776 1399 l 781 1429 q 759 1280 781 1338 q 696 1194 737 1222 q 600 1167 656 1167 z "},"Û":{"ha":1042,"x_min":21,"x_max":1022,"o":"m 1022 1042 l 1022 1037 l 885 1037 l 885 319 q 804 64 885 148 q 549 -21 724 -21 q 242 59 338 -21 q 146 319 146 140 l 146 1037 l 21 1037 l 21 1042 l 583 1042 l 583 1037 l 444 1037 l 444 333 q 451 204 444 265 q 475 97 457 143 q 530 25 494 51 q 625 -1 567 -1 q 755 31 697 -1 q 846 135 813 64 q 879 319 879 206 l 879 1037 l 749 1037 l 749 1042 l 1022 1042 m 350 1188 l 347 1191 l 528 1413 l 674 1413 l 854 1191 l 851 1188 l 600 1281 l 350 1188 z "},"Ü":{"ha":1042,"x_min":21,"x_max":1022,"o":"m 1022 1042 l 1022 1037 l 885 1037 l 885 319 q 804 64 885 148 q 549 -21 724 -21 q 242 59 338 -21 q 146 319 146 140 l 146 1037 l 21 1037 l 21 1042 l 583 1042 l 583 1037 l 444 1037 l 444 333 q 451 204 444 265 q 475 97 457 143 q 530 25 494 51 q 625 -1 567 -1 q 755 31 697 -1 q 846 135 813 64 q 879 319 879 206 l 879 1037 l 749 1037 l 749 1042 l 1022 1042 m 749 1167 q 683 1194 710 1167 q 656 1260 656 1222 q 683 1326 656 1299 q 749 1353 710 1353 q 815 1326 788 1353 q 842 1260 842 1299 q 815 1194 842 1222 q 749 1167 788 1167 m 451 1167 q 386 1194 413 1167 q 358 1260 358 1222 q 386 1326 358 1299 q 452 1353 413 1353 q 518 1326 490 1353 q 545 1260 545 1299 q 518 1194 545 1222 q 451 1167 490 1167 z "},"Ù":{"ha":1042,"x_min":21,"x_max":1022,"o":"m 1022 1042 l 1022 1037 l 885 1037 l 885 319 q 804 64 885 148 q 549 -21 724 -21 q 242 59 338 -21 q 146 319 146 140 l 146 1037 l 21 1037 l 21 1042 l 583 1042 l 583 1037 l 444 1037 l 444 333 q 451 204 444 265 q 475 97 457 143 q 530 25 494 51 q 625 -1 567 -1 q 755 31 697 -1 q 846 135 813 64 q 879 319 879 206 l 879 1037 l 749 1037 l 749 1042 l 1022 1042 m 683 1166 l 481 1193 q 394 1235 425 1201 q 358 1313 363 1269 q 376 1390 353 1356 q 435 1428 395 1417 q 519 1425 476 1440 q 588 1358 562 1410 l 685 1169 l 683 1166 z "},"Ű":{"ha":1042,"x_min":21,"x_max":1022,"o":"m 1022 1042 l 1022 1037 l 885 1037 l 885 319 q 804 64 885 148 q 549 -21 724 -21 q 242 59 338 -21 q 146 319 146 140 l 146 1037 l 21 1037 l 21 1042 l 583 1042 l 583 1037 l 444 1037 l 444 333 q 451 204 444 265 q 475 97 457 143 q 530 25 494 51 q 625 -1 567 -1 q 755 31 697 -1 q 846 135 813 64 q 879 319 879 206 l 879 1037 l 749 1037 l 749 1042 l 1022 1042 m 333 1165 l 331 1168 l 427 1357 q 497 1423 453 1408 q 580 1427 540 1438 q 639 1388 620 1415 q 657 1311 662 1355 q 621 1234 652 1268 q 535 1192 590 1199 l 333 1165 m 687 1165 l 685 1168 l 781 1357 q 851 1423 808 1408 q 934 1427 894 1438 q 993 1388 974 1415 q 1011 1311 1016 1355 q 975 1234 1006 1268 q 889 1192 944 1199 l 687 1165 z "},"Ū":{"ha":1042,"x_min":21,"x_max":1022,"o":"m 1022 1042 l 1022 1037 l 885 1037 l 885 319 q 804 64 885 148 q 549 -21 724 -21 q 242 59 338 -21 q 146 319 146 140 l 146 1037 l 21 1037 l 21 1042 l 583 1042 l 583 1037 l 444 1037 l 444 333 q 451 204 444 265 q 475 97 457 143 q 530 25 494 51 q 625 -1 567 -1 q 755 31 697 -1 q 846 135 813 64 q 879 319 879 206 l 879 1037 l 749 1037 l 749 1042 l 1022 1042 m 433 1181 l 433 1185 l 767 1185 l 767 1181 l 433 1181 z "},"Ų":{"ha":1042,"x_min":21,"x_max":1022,"o":"m 1022 1042 l 1022 1037 l 885 1037 l 885 319 q 804 64 885 148 q 549 -21 724 -21 q 242 59 338 -21 q 146 319 146 140 l 146 1037 l 21 1037 l 21 1042 l 583 1042 l 583 1037 l 444 1037 l 444 333 q 451 204 444 265 q 475 97 457 143 q 530 25 494 51 q 625 -1 567 -1 q 755 31 697 -1 q 846 135 813 64 q 879 319 879 206 l 879 1037 l 749 1037 l 749 1042 l 1022 1042 m 632 -329 q 533 -317 576 -329 q 465 -278 490 -304 q 440 -210 440 -251 q 467 -132 440 -168 q 538 -67 494 -97 q 633 -17 582 -38 q 731 17 683 4 l 732 13 q 712 -14 724 8 q 690 -74 700 -36 q 681 -161 681 -111 q 702 -260 681 -229 q 748 -291 723 -291 q 786 -273 770 -291 q 816 -226 801 -255 l 819 -228 q 792 -271 809 -247 q 739 -312 776 -294 q 632 -329 702 -329 z "},"Ů":{"ha":1042,"x_min":21,"x_max":1022,"o":"m 1022 1042 l 1022 1037 l 885 1037 l 885 319 q 804 64 885 148 q 549 -21 724 -21 q 242 59 338 -21 q 146 319 146 140 l 146 1037 l 21 1037 l 21 1042 l 583 1042 l 583 1037 l 444 1037 l 444 333 q 451 204 444 265 q 475 97 457 143 q 530 25 494 51 q 625 -1 567 -1 q 755 31 697 -1 q 846 135 813 64 q 879 319 879 206 l 879 1037 l 749 1037 l 749 1042 l 1022 1042 m 600 1167 q 487 1203 526 1167 q 447 1292 447 1239 q 487 1381 447 1345 q 600 1417 526 1417 q 714 1381 674 1417 q 753 1292 753 1345 q 714 1203 753 1239 q 600 1167 674 1167 m 600 1172 q 619 1184 612 1172 q 631 1223 627 1197 q 635 1292 635 1249 q 631 1361 635 1334 q 619 1400 627 1388 q 600 1412 612 1412 q 581 1400 588 1412 q 569 1361 573 1388 q 565 1292 565 1334 q 569 1223 565 1249 q 581 1184 573 1197 q 600 1172 588 1172 z "},"Ũ":{"ha":1042,"x_min":21,"x_max":1022,"o":"m 1022 1042 l 1022 1037 l 885 1037 l 885 319 q 804 64 885 148 q 549 -21 724 -21 q 242 59 338 -21 q 146 319 146 140 l 146 1037 l 21 1037 l 21 1042 l 583 1042 l 583 1037 l 444 1037 l 444 333 q 451 204 444 265 q 475 97 457 143 q 530 25 494 51 q 625 -1 567 -1 q 755 31 697 -1 q 846 135 813 64 q 879 319 879 206 l 879 1037 l 749 1037 l 749 1042 l 1022 1042 m 714 1139 q 636 1156 669 1139 q 576 1194 603 1172 q 517 1232 548 1215 q 442 1249 485 1249 q 379 1226 399 1249 q 359 1181 359 1203 l 354 1181 q 366 1293 354 1240 q 407 1379 377 1346 q 492 1413 437 1413 q 570 1396 539 1413 q 628 1358 602 1379 q 682 1319 654 1336 q 749 1303 710 1303 q 813 1325 793 1303 q 833 1371 833 1348 l 838 1371 q 832 1252 838 1305 q 801 1169 827 1200 q 714 1139 776 1139 z "},"V":{"ha":1140,"x_min":14,"x_max":1126,"o":"m 1126 1042 l 1126 1037 l 992 1037 l 618 -21 l 479 -21 l 113 1037 l 14 1037 l 14 1042 l 611 1042 l 611 1037 l 460 1037 l 711 261 l 988 1037 l 819 1037 l 819 1042 l 1126 1042 z "},"W":{"ha":1708,"x_min":14,"x_max":1695,"o":"m 549 -14 l 112 1037 l 14 1037 l 14 1042 l 1361 1042 l 1361 1037 l 948 1037 l 1258 282 l 1553 1037 l 1417 1037 l 1417 1042 l 1695 1042 l 1695 1037 l 1558 1037 l 1150 -14 l 1078 -14 l 640 1037 l 462 1037 l 772 282 l 878 553 l 881 546 l 664 -14 l 549 -14 m 1060 633 l 1056 635 l 1221 1040 l 1226 1040 l 1060 633 z "},"Ẃ":{"ha":1708,"x_min":14,"x_max":1695,"o":"m 549 -14 l 112 1037 l 14 1037 l 14 1042 l 1361 1042 l 1361 1037 l 948 1037 l 1258 282 l 1553 1037 l 1417 1037 l 1417 1042 l 1695 1042 l 1695 1037 l 1558 1037 l 1150 -14 l 1078 -14 l 640 1037 l 462 1037 l 772 282 l 878 553 l 881 546 l 664 -14 l 549 -14 m 1060 633 l 1056 635 l 1221 1040 l 1226 1040 l 1060 633 m 856 1166 l 853 1169 l 950 1358 q 1019 1425 976 1410 q 1102 1428 1062 1440 q 1162 1390 1143 1417 q 1180 1313 1185 1356 q 1144 1235 1175 1269 q 1058 1193 1113 1201 l 856 1166 z "},"Ŵ":{"ha":1708,"x_min":14,"x_max":1695,"o":"m 549 -14 l 112 1037 l 14 1037 l 14 1042 l 1361 1042 l 1361 1037 l 948 1037 l 1258 282 l 1553 1037 l 1417 1037 l 1417 1042 l 1695 1042 l 1695 1037 l 1558 1037 l 1150 -14 l 1078 -14 l 640 1037 l 462 1037 l 772 282 l 878 553 l 881 546 l 664 -14 l 549 -14 m 1060 633 l 1056 635 l 1221 1040 l 1226 1040 l 1060 633 m 690 1188 l 688 1191 l 868 1413 l 1014 1413 l 1194 1191 l 1192 1188 l 940 1281 l 690 1188 z "},"Ẅ":{"ha":1708,"x_min":14,"x_max":1695,"o":"m 549 -14 l 112 1037 l 14 1037 l 14 1042 l 1361 1042 l 1361 1037 l 948 1037 l 1258 282 l 1553 1037 l 1417 1037 l 1417 1042 l 1695 1042 l 1695 1037 l 1558 1037 l 1150 -14 l 1078 -14 l 640 1037 l 462 1037 l 772 282 l 878 553 l 881 546 l 664 -14 l 549 -14 m 1060 633 l 1056 635 l 1221 1040 l 1226 1040 l 1060 633 m 1089 1167 q 1023 1194 1051 1167 q 996 1260 996 1222 q 1023 1326 996 1299 q 1090 1353 1051 1353 q 1155 1326 1128 1353 q 1183 1260 1183 1299 q 1155 1194 1183 1222 q 1089 1167 1128 1167 m 792 1167 q 726 1194 753 1167 q 699 1260 699 1222 q 726 1326 699 1299 q 792 1353 753 1353 q 858 1326 831 1353 q 885 1260 885 1299 q 858 1194 885 1222 q 792 1167 831 1167 z "},"Ẇ":{"ha":1708,"x_min":14,"x_max":1695,"o":"m 549 -14 l 112 1037 l 14 1037 l 14 1042 l 1361 1042 l 1361 1037 l 948 1037 l 1258 282 l 1553 1037 l 1417 1037 l 1417 1042 l 1695 1042 l 1695 1037 l 1558 1037 l 1150 -14 l 1078 -14 l 640 1037 l 462 1037 l 772 282 l 878 553 l 881 546 l 664 -14 l 549 -14 m 1060 633 l 1056 635 l 1221 1040 l 1226 1040 l 1060 633 m 941 1153 q 832 1197 876 1153 q 788 1306 788 1240 q 832 1415 788 1372 q 941 1458 876 1458 q 1050 1415 1007 1458 q 1094 1306 1094 1372 q 1050 1197 1094 1240 q 941 1153 1007 1153 z "},"Ẉ":{"ha":1708,"x_min":14,"x_max":1695,"o":"m 549 -14 l 112 1037 l 14 1037 l 14 1042 l 1361 1042 l 1361 1037 l 948 1037 l 1258 282 l 1553 1037 l 1417 1037 l 1417 1042 l 1695 1042 l 1695 1037 l 1558 1037 l 1150 -14 l 1078 -14 l 640 1037 l 462 1037 l 772 282 l 878 553 l 881 546 l 664 -14 l 549 -14 m 1060 633 l 1056 635 l 1221 1040 l 1226 1040 l 1060 633 m 900 -391 q 791 -347 835 -391 q 747 -238 747 -303 q 791 -129 747 -172 q 900 -85 835 -85 q 1009 -129 966 -85 q 1053 -238 1053 -172 q 1009 -347 1053 -303 q 900 -391 966 -391 z "},"Ẁ":{"ha":1708,"x_min":14,"x_max":1695,"o":"m 549 -14 l 112 1037 l 14 1037 l 14 1042 l 1361 1042 l 1361 1037 l 948 1037 l 1258 282 l 1553 1037 l 1417 1037 l 1417 1042 l 1695 1042 l 1695 1037 l 1558 1037 l 1150 -14 l 1078 -14 l 640 1037 l 462 1037 l 772 282 l 878 553 l 881 546 l 664 -14 l 549 -14 m 1060 633 l 1056 635 l 1221 1040 l 1226 1040 l 1060 633 m 1023 1166 l 821 1193 q 734 1235 765 1201 q 699 1313 703 1269 q 717 1390 694 1356 q 776 1428 735 1417 q 859 1425 816 1440 q 928 1358 902 1410 l 1025 1169 l 1023 1166 z "},"X":{"ha":1180,"x_min":14,"x_max":1167,"o":"m 611 0 l 611 5 l 742 5 l 149 1037 l 63 1037 l 63 1042 l 618 1042 l 618 1037 l 476 1037 l 1075 5 l 1167 5 l 1167 0 l 611 0 m 14 0 l 14 5 l 169 5 l 576 579 l 584 579 l 176 5 l 347 5 l 347 0 l 14 0 m 581 524 l 937 1037 l 785 1037 l 785 1042 l 1090 1042 l 1090 1037 l 943 1037 l 588 524 l 581 524 z "},"Y":{"ha":1062,"x_min":14,"x_max":1049,"o":"m 271 0 l 271 5 l 396 5 l 396 500 l 100 1037 l 14 1037 l 14 1042 l 583 1042 l 583 1037 l 447 1037 l 691 536 l 915 1037 l 757 1037 l 757 1042 l 1049 1042 l 1049 1037 l 922 1037 l 694 531 l 694 5 l 833 5 l 833 0 l 271 0 z "},"Ý":{"ha":1062,"x_min":14,"x_max":1049,"o":"m 271 0 l 271 5 l 396 5 l 396 500 l 100 1037 l 14 1037 l 14 1042 l 583 1042 l 583 1037 l 447 1037 l 691 536 l 915 1037 l 757 1037 l 757 1042 l 1049 1042 l 1049 1037 l 922 1037 l 694 531 l 694 5 l 833 5 l 833 0 l 271 0 m 508 1166 l 506 1169 l 603 1358 q 672 1425 629 1410 q 755 1428 715 1440 q 815 1390 796 1417 q 833 1313 838 1356 q 797 1235 828 1269 q 710 1193 766 1201 l 508 1166 z "},"Ŷ":{"ha":1062,"x_min":14,"x_max":1049,"o":"m 271 0 l 271 5 l 396 5 l 396 500 l 100 1037 l 14 1037 l 14 1042 l 583 1042 l 583 1037 l 447 1037 l 691 536 l 915 1037 l 757 1037 l 757 1042 l 1049 1042 l 1049 1037 l 922 1037 l 694 531 l 694 5 l 833 5 l 833 0 l 271 0 m 343 1188 l 340 1191 l 521 1413 l 667 1413 l 847 1191 l 844 1188 l 593 1281 l 343 1188 z "},"Ÿ":{"ha":1062,"x_min":14,"x_max":1049,"o":"m 271 0 l 271 5 l 396 5 l 396 500 l 100 1037 l 14 1037 l 14 1042 l 583 1042 l 583 1037 l 447 1037 l 691 536 l 915 1037 l 757 1037 l 757 1042 l 1049 1042 l 1049 1037 l 922 1037 l 694 531 l 694 5 l 833 5 l 833 0 l 271 0 m 742 1167 q 676 1194 703 1167 q 649 1260 649 1222 q 676 1326 649 1299 q 742 1353 703 1353 q 808 1326 781 1353 q 835 1260 835 1299 q 808 1194 835 1222 q 742 1167 781 1167 m 444 1167 q 379 1194 406 1167 q 351 1260 351 1222 q 379 1326 351 1299 q 445 1353 406 1353 q 511 1326 483 1353 q 538 1260 538 1299 q 511 1194 538 1222 q 444 1167 483 1167 z "},"Ỳ":{"ha":1062,"x_min":14,"x_max":1049,"o":"m 271 0 l 271 5 l 396 5 l 396 500 l 100 1037 l 14 1037 l 14 1042 l 583 1042 l 583 1037 l 447 1037 l 691 536 l 915 1037 l 757 1037 l 757 1042 l 1049 1042 l 1049 1037 l 922 1037 l 694 531 l 694 5 l 833 5 l 833 0 l 271 0 m 676 1166 l 474 1193 q 387 1235 418 1201 q 351 1313 356 1269 q 369 1390 347 1356 q 428 1428 388 1417 q 512 1425 469 1440 q 581 1358 555 1410 l 678 1169 l 676 1166 z "},"Z":{"ha":937,"x_min":14,"x_max":889,"o":"m 14 0 l 14 5 l 535 1037 l 376 1037 q 218 999 281 1037 q 115 900 155 962 q 47 764 75 838 l 42 764 l 42 1042 l 875 1042 l 875 1037 l 354 5 l 555 5 q 713 43 649 5 q 816 150 776 82 q 884 306 856 217 l 889 306 l 889 0 l 14 0 z "},"Ź":{"ha":937,"x_min":14,"x_max":889,"o":"m 14 0 l 14 5 l 535 1037 l 376 1037 q 218 999 281 1037 q 115 900 155 962 q 47 764 75 838 l 42 764 l 42 1042 l 875 1042 l 875 1037 l 354 5 l 555 5 q 713 43 649 5 q 816 150 776 82 q 884 306 856 217 l 889 306 l 889 0 l 14 0 m 383 1166 l 381 1169 l 478 1358 q 547 1425 504 1410 q 630 1428 590 1440 q 690 1390 671 1417 q 708 1313 713 1356 q 672 1235 703 1269 q 585 1193 641 1201 l 383 1166 z "},"Ž":{"ha":937,"x_min":14,"x_max":889,"o":"m 14 0 l 14 5 l 535 1037 l 376 1037 q 218 999 281 1037 q 115 900 155 962 q 47 764 75 838 l 42 764 l 42 1042 l 875 1042 l 875 1037 l 354 5 l 555 5 q 713 43 649 5 q 816 150 776 82 q 884 306 856 217 l 889 306 l 889 0 l 14 0 m 396 1181 l 215 1403 l 218 1406 l 469 1313 l 719 1406 l 722 1403 l 542 1181 l 396 1181 z "},"Ż":{"ha":937,"x_min":14,"x_max":889,"o":"m 14 0 l 14 5 l 535 1037 l 376 1037 q 218 999 281 1037 q 115 900 155 962 q 47 764 75 838 l 42 764 l 42 1042 l 875 1042 l 875 1037 l 354 5 l 555 5 q 713 43 649 5 q 816 150 776 82 q 884 306 856 217 l 889 306 l 889 0 l 14 0 m 469 1153 q 360 1197 403 1153 q 316 1306 316 1240 q 360 1415 316 1372 q 469 1458 403 1458 q 578 1415 535 1458 q 622 1306 622 1372 q 578 1197 622 1240 q 469 1153 535 1153 z "},"a":{"ha":885,"x_min":42,"x_max":876,"o":"m 650 -14 q 550 0 593 -14 q 484 42 508 15 q 460 111 460 70 l 460 423 q 449 524 460 473 q 409 608 438 574 q 324 642 379 642 q 256 635 295 642 q 181 612 217 628 q 120 567 144 595 q 96 494 96 538 l 92 494 q 134 579 92 546 q 235 613 176 613 q 340 583 297 613 q 384 497 384 553 q 340 408 384 440 q 235 376 295 376 q 131 409 172 376 q 90 494 90 442 q 115 570 90 540 q 180 618 140 600 q 269 643 221 635 q 365 650 318 650 q 562 624 482 650 q 683 547 642 598 q 724 423 724 497 l 724 67 q 737 32 724 46 q 775 17 750 17 q 821 32 791 17 q 872 88 851 47 l 876 88 q 792 10 853 35 q 650 -14 731 -14 m 240 -14 q 95 32 149 -14 q 42 158 42 78 q 123 301 42 251 q 353 351 205 351 l 524 351 l 524 346 l 448 346 q 376 319 404 346 q 335 254 349 292 q 322 185 322 217 q 328 130 322 154 q 348 93 334 106 q 384 79 362 79 q 423 99 406 79 q 450 156 440 118 q 460 251 460 194 l 464 251 q 437 106 464 165 q 360 16 410 47 q 240 -14 310 -14 z "},"á":{"ha":885,"x_min":42,"x_max":876,"o":"m 650 -14 q 550 0 593 -14 q 484 42 508 15 q 460 111 460 70 l 460 423 q 449 524 460 473 q 409 608 438 574 q 324 642 379 642 q 256 635 295 642 q 181 612 217 628 q 120 567 144 595 q 96 494 96 538 l 92 494 q 134 579 92 546 q 235 613 176 613 q 340 583 297 613 q 384 497 384 553 q 340 408 384 440 q 235 376 295 376 q 131 409 172 376 q 90 494 90 442 q 115 570 90 540 q 180 618 140 600 q 269 643 221 635 q 365 650 318 650 q 562 624 482 650 q 683 547 642 598 q 724 423 724 497 l 724 67 q 737 32 724 46 q 775 17 750 17 q 821 32 791 17 q 872 88 851 47 l 876 88 q 792 10 853 35 q 650 -14 731 -14 m 240 -14 q 95 32 149 -14 q 42 158 42 78 q 123 301 42 251 q 353 351 205 351 l 524 351 l 524 346 l 448 346 q 376 319 404 346 q 335 254 349 292 q 322 185 322 217 q 328 130 322 154 q 348 93 334 106 q 384 79 362 79 q 423 99 406 79 q 450 156 440 118 q 460 251 460 194 l 464 251 q 437 106 464 165 q 360 16 410 47 q 240 -14 310 -14 m 335 763 l 333 767 l 430 956 q 499 1022 456 1007 q 582 1025 542 1037 q 642 987 623 1014 q 660 910 665 953 q 624 832 655 867 q 538 790 593 798 l 335 763 z "},"ă":{"ha":885,"x_min":42,"x_max":876,"o":"m 650 -14 q 550 0 593 -14 q 484 42 508 15 q 460 111 460 70 l 460 423 q 449 524 460 473 q 409 608 438 574 q 324 642 379 642 q 256 635 295 642 q 181 612 217 628 q 120 567 144 595 q 96 494 96 538 l 92 494 q 134 579 92 546 q 235 613 176 613 q 340 583 297 613 q 384 497 384 553 q 340 408 384 440 q 235 376 295 376 q 131 409 172 376 q 90 494 90 442 q 115 570 90 540 q 180 618 140 600 q 269 643 221 635 q 365 650 318 650 q 562 624 482 650 q 683 547 642 598 q 724 423 724 497 l 724 67 q 737 32 724 46 q 775 17 750 17 q 821 32 791 17 q 872 88 851 47 l 876 88 q 792 10 853 35 q 650 -14 731 -14 m 240 -14 q 95 32 149 -14 q 42 158 42 78 q 123 301 42 251 q 353 351 205 351 l 524 351 l 524 346 l 448 346 q 376 319 404 346 q 335 254 349 292 q 322 185 322 217 q 328 130 322 154 q 348 93 334 106 q 384 79 362 79 q 423 99 406 79 q 450 156 440 118 q 460 251 460 194 l 464 251 q 437 106 464 165 q 360 16 410 47 q 240 -14 310 -14 m 420 764 q 324 792 365 764 q 261 877 283 819 q 240 1026 240 935 l 244 1026 q 273 980 244 996 q 342 957 301 963 q 420 951 383 951 q 498 957 458 951 q 567 980 539 963 q 596 1026 596 996 l 601 1026 q 579 877 601 935 q 516 792 557 819 q 420 764 476 764 z "},"â":{"ha":885,"x_min":42,"x_max":876,"o":"m 650 -14 q 550 0 593 -14 q 484 42 508 15 q 460 111 460 70 l 460 423 q 449 524 460 473 q 409 608 438 574 q 324 642 379 642 q 256 635 295 642 q 181 612 217 628 q 120 567 144 595 q 96 494 96 538 l 92 494 q 134 579 92 546 q 235 613 176 613 q 340 583 297 613 q 384 497 384 553 q 340 408 384 440 q 235 376 295 376 q 131 409 172 376 q 90 494 90 442 q 115 570 90 540 q 180 618 140 600 q 269 643 221 635 q 365 650 318 650 q 562 624 482 650 q 683 547 642 598 q 724 423 724 497 l 724 67 q 737 32 724 46 q 775 17 750 17 q 821 32 791 17 q 872 88 851 47 l 876 88 q 792 10 853 35 q 650 -14 731 -14 m 240 -14 q 95 32 149 -14 q 42 158 42 78 q 123 301 42 251 q 353 351 205 351 l 524 351 l 524 346 l 448 346 q 376 319 404 346 q 335 254 349 292 q 322 185 322 217 q 328 130 322 154 q 348 93 334 106 q 384 79 362 79 q 423 99 406 79 q 450 156 440 118 q 460 251 460 194 l 464 251 q 437 106 464 165 q 360 16 410 47 q 240 -14 310 -14 m 170 785 l 167 788 l 348 1010 l 494 1010 l 674 788 l 672 785 l 420 878 l 170 785 z "},"ä":{"ha":885,"x_min":42,"x_max":876,"o":"m 650 -14 q 550 0 593 -14 q 484 42 508 15 q 460 111 460 70 l 460 423 q 449 524 460 473 q 409 608 438 574 q 324 642 379 642 q 256 635 295 642 q 181 612 217 628 q 120 567 144 595 q 96 494 96 538 l 92 494 q 134 579 92 546 q 235 613 176 613 q 340 583 297 613 q 384 497 384 553 q 340 408 384 440 q 235 376 295 376 q 131 409 172 376 q 90 494 90 442 q 115 570 90 540 q 180 618 140 600 q 269 643 221 635 q 365 650 318 650 q 562 624 482 650 q 683 547 642 598 q 724 423 724 497 l 724 67 q 737 32 724 46 q 775 17 750 17 q 821 32 791 17 q 872 88 851 47 l 876 88 q 792 10 853 35 q 650 -14 731 -14 m 240 -14 q 95 32 149 -14 q 42 158 42 78 q 123 301 42 251 q 353 351 205 351 l 524 351 l 524 346 l 448 346 q 376 319 404 346 q 335 254 349 292 q 322 185 322 217 q 328 130 322 154 q 348 93 334 106 q 384 79 362 79 q 423 99 406 79 q 450 156 440 118 q 460 251 460 194 l 464 251 q 437 106 464 165 q 360 16 410 47 q 240 -14 310 -14 m 569 764 q 503 791 531 764 q 476 857 476 819 q 503 923 476 896 q 569 951 531 951 q 635 923 608 951 q 663 857 663 896 q 635 791 663 819 q 569 764 608 764 m 272 764 q 206 791 233 764 q 178 857 178 819 q 206 923 178 896 q 272 951 233 951 q 338 923 310 951 q 365 857 365 896 q 338 791 365 819 q 272 764 310 764 z "},"à":{"ha":885,"x_min":42,"x_max":876,"o":"m 650 -14 q 550 0 593 -14 q 484 42 508 15 q 460 111 460 70 l 460 423 q 449 524 460 473 q 409 608 438 574 q 324 642 379 642 q 256 635 295 642 q 181 612 217 628 q 120 567 144 595 q 96 494 96 538 l 92 494 q 134 579 92 546 q 235 613 176 613 q 340 583 297 613 q 384 497 384 553 q 340 408 384 440 q 235 376 295 376 q 131 409 172 376 q 90 494 90 442 q 115 570 90 540 q 180 618 140 600 q 269 643 221 635 q 365 650 318 650 q 562 624 482 650 q 683 547 642 598 q 724 423 724 497 l 724 67 q 737 32 724 46 q 775 17 750 17 q 821 32 791 17 q 872 88 851 47 l 876 88 q 792 10 853 35 q 650 -14 731 -14 m 240 -14 q 95 32 149 -14 q 42 158 42 78 q 123 301 42 251 q 353 351 205 351 l 524 351 l 524 346 l 448 346 q 376 319 404 346 q 335 254 349 292 q 322 185 322 217 q 328 130 322 154 q 348 93 334 106 q 384 79 362 79 q 423 99 406 79 q 450 156 440 118 q 460 251 460 194 l 464 251 q 437 106 464 165 q 360 16 410 47 q 240 -14 310 -14 m 503 763 l 301 790 q 214 832 245 798 q 178 910 183 867 q 197 987 174 953 q 256 1025 215 1014 q 339 1022 296 1037 q 408 956 382 1007 l 505 767 l 503 763 z "},"ā":{"ha":885,"x_min":42,"x_max":876,"o":"m 650 -14 q 550 0 593 -14 q 484 42 508 15 q 460 111 460 70 l 460 423 q 449 524 460 473 q 409 608 438 574 q 324 642 379 642 q 256 635 295 642 q 181 612 217 628 q 120 567 144 595 q 96 494 96 538 l 92 494 q 134 579 92 546 q 235 613 176 613 q 340 583 297 613 q 384 497 384 553 q 340 408 384 440 q 235 376 295 376 q 131 409 172 376 q 90 494 90 442 q 115 570 90 540 q 180 618 140 600 q 269 643 221 635 q 365 650 318 650 q 562 624 482 650 q 683 547 642 598 q 724 423 724 497 l 724 67 q 737 32 724 46 q 775 17 750 17 q 821 32 791 17 q 872 88 851 47 l 876 88 q 792 10 853 35 q 650 -14 731 -14 m 240 -14 q 95 32 149 -14 q 42 158 42 78 q 123 301 42 251 q 353 351 205 351 l 524 351 l 524 346 l 448 346 q 376 319 404 346 q 335 254 349 292 q 322 185 322 217 q 328 130 322 154 q 348 93 334 106 q 384 79 362 79 q 423 99 406 79 q 450 156 440 118 q 460 251 460 194 l 464 251 q 437 106 464 165 q 360 16 410 47 q 240 -14 310 -14 m 253 778 l 253 783 l 587 783 l 587 778 l 253 778 z "},"ą":{"ha":885,"x_min":42,"x_max":883,"o":"m 650 -14 q 550 0 593 -14 q 484 42 508 15 q 460 111 460 70 l 460 423 q 449 524 460 473 q 409 608 438 574 q 324 642 379 642 q 256 635 295 642 q 181 612 217 628 q 120 567 144 595 q 96 494 96 538 l 92 494 q 134 579 92 546 q 235 613 176 613 q 340 583 297 613 q 384 497 384 553 q 340 408 384 440 q 235 376 295 376 q 131 409 172 376 q 90 494 90 442 q 115 570 90 540 q 180 618 140 600 q 269 643 221 635 q 365 650 318 650 q 562 624 482 650 q 683 547 642 598 q 724 423 724 497 l 724 67 q 737 32 724 46 q 775 17 750 17 q 821 32 791 17 q 872 88 851 47 l 876 88 q 792 10 853 35 q 650 -14 731 -14 m 240 -14 q 95 32 149 -14 q 42 158 42 78 q 123 301 42 251 q 353 351 205 351 l 524 351 l 524 346 l 448 346 q 376 319 404 346 q 335 254 349 292 q 322 185 322 217 q 328 130 322 154 q 348 93 334 106 q 384 79 362 79 q 423 99 406 79 q 450 156 440 118 q 460 251 460 194 l 464 251 q 437 106 464 165 q 360 16 410 47 q 240 -14 310 -14 m 696 -329 q 597 -317 640 -329 q 529 -278 553 -304 q 504 -210 504 -251 q 531 -132 504 -168 q 602 -67 558 -97 q 697 -17 646 -38 q 794 17 747 4 l 796 13 q 776 -14 788 8 q 754 -74 764 -36 q 744 -161 744 -111 q 766 -260 744 -229 q 812 -291 787 -291 q 850 -273 834 -291 q 880 -226 865 -255 l 883 -228 q 856 -271 873 -247 q 803 -312 840 -294 q 696 -329 766 -329 z "},"å":{"ha":885,"x_min":42,"x_max":876,"o":"m 650 -14 q 550 0 593 -14 q 484 42 508 15 q 460 111 460 70 l 460 423 q 449 524 460 473 q 409 608 438 574 q 324 642 379 642 q 256 635 295 642 q 181 612 217 628 q 120 567 144 595 q 96 494 96 538 l 92 494 q 134 579 92 546 q 235 613 176 613 q 340 583 297 613 q 384 497 384 553 q 340 408 384 440 q 235 376 295 376 q 131 409 172 376 q 90 494 90 442 q 115 570 90 540 q 180 618 140 600 q 269 643 221 635 q 365 650 318 650 q 562 624 482 650 q 683 547 642 598 q 724 423 724 497 l 724 67 q 737 32 724 46 q 775 17 750 17 q 821 32 791 17 q 872 88 851 47 l 876 88 q 792 10 853 35 q 650 -14 731 -14 m 240 -14 q 95 32 149 -14 q 42 158 42 78 q 123 301 42 251 q 353 351 205 351 l 524 351 l 524 346 l 448 346 q 376 319 404 346 q 335 254 349 292 q 322 185 322 217 q 328 130 322 154 q 348 93 334 106 q 384 79 362 79 q 423 99 406 79 q 450 156 440 118 q 460 251 460 194 l 464 251 q 437 106 464 165 q 360 16 410 47 q 240 -14 310 -14 m 420 764 q 307 800 347 764 q 267 889 267 836 q 307 978 267 942 q 420 1014 347 1014 q 534 978 494 1014 q 573 889 573 942 q 534 800 573 836 q 420 764 494 764 m 420 769 q 440 781 432 769 q 451 820 447 794 q 455 889 455 847 q 451 958 455 931 q 440 997 447 985 q 420 1009 432 1009 q 401 997 408 1009 q 389 958 393 985 q 385 889 385 931 q 389 820 385 847 q 401 781 393 794 q 420 769 408 769 z "},"ã":{"ha":885,"x_min":42,"x_max":876,"o":"m 650 -14 q 550 0 593 -14 q 484 42 508 15 q 460 111 460 70 l 460 423 q 449 524 460 473 q 409 608 438 574 q 324 642 379 642 q 256 635 295 642 q 181 612 217 628 q 120 567 144 595 q 96 494 96 538 l 92 494 q 134 579 92 546 q 235 613 176 613 q 340 583 297 613 q 384 497 384 553 q 340 408 384 440 q 235 376 295 376 q 131 409 172 376 q 90 494 90 442 q 115 570 90 540 q 180 618 140 600 q 269 643 221 635 q 365 650 318 650 q 562 624 482 650 q 683 547 642 598 q 724 423 724 497 l 724 67 q 737 32 724 46 q 775 17 750 17 q 821 32 791 17 q 872 88 851 47 l 876 88 q 792 10 853 35 q 650 -14 731 -14 m 240 -14 q 95 32 149 -14 q 42 158 42 78 q 123 301 42 251 q 353 351 205 351 l 524 351 l 524 346 l 448 346 q 376 319 404 346 q 335 254 349 292 q 322 185 322 217 q 328 130 322 154 q 348 93 334 106 q 384 79 362 79 q 423 99 406 79 q 450 156 440 118 q 460 251 460 194 l 464 251 q 437 106 464 165 q 360 16 410 47 q 240 -14 310 -14 m 534 736 q 456 753 489 736 q 396 791 424 769 q 337 829 368 813 q 263 846 306 846 q 199 823 219 846 q 179 778 179 801 l 174 778 q 186 890 174 837 q 227 976 197 943 q 312 1010 257 1010 q 391 993 359 1010 q 448 955 422 976 q 502 917 474 933 q 569 900 530 900 q 633 923 613 900 q 653 968 653 945 l 658 968 q 652 850 658 902 q 622 767 647 797 q 534 736 596 736 z "},"æ":{"ha":1256,"x_min":47,"x_max":1216,"o":"m 303 -14 q 218 -5 263 -14 q 134 23 173 3 q 71 76 95 42 q 47 158 47 109 q 85 259 47 216 q 194 327 123 303 q 364 351 265 351 l 464 351 l 464 423 q 458 496 464 458 q 436 567 451 534 q 393 620 420 600 q 324 641 366 641 q 265 636 299 641 q 197 619 231 632 q 138 584 163 607 q 104 526 113 562 q 157 589 117 565 q 241 612 198 612 q 342 578 301 612 q 384 497 384 545 q 337 408 384 440 q 233 376 290 376 q 133 409 175 376 q 92 494 92 442 q 133 589 92 555 q 239 636 175 623 q 369 650 303 650 q 502 633 445 650 q 598 587 559 616 q 658 522 637 558 l 639 516 q 744 621 678 586 q 892 656 810 656 q 1068 614 996 656 q 1177 506 1140 572 q 1215 363 1215 439 l 823 363 q 823 356 823 360 q 823 349 823 352 q 828 211 823 274 q 848 102 833 148 q 888 31 862 56 q 955 5 914 5 q 1116 59 1046 5 q 1211 201 1185 114 l 1216 201 q 1111 50 1189 111 q 897 -11 1033 -11 q 743 26 813 -11 q 635 136 674 63 l 658 133 q 561 48 622 81 q 432 1 501 16 q 303 -14 363 -14 m 386 0 q 425 26 407 0 q 453 108 442 53 q 464 251 464 164 l 464 346 l 440 346 q 373 317 398 346 q 337 246 348 289 q 326 158 326 203 q 342 44 326 88 q 386 0 357 0 m 823 368 l 949 368 q 947 469 949 419 q 941 560 946 519 q 924 626 935 601 q 892 651 913 651 q 852 611 867 651 q 830 508 837 572 q 823 368 824 443 z "},"b":{"ha":921,"x_min":14,"x_max":886,"o":"m 592 -14 q 443 54 498 -14 q 375 247 388 122 l 375 0 l 14 0 l 14 5 l 111 5 l 111 1037 l 14 1037 l 14 1042 l 375 1042 l 375 393 q 442 584 388 517 q 592 651 497 651 q 735 612 667 651 q 844 498 802 572 q 886 319 886 424 q 844 141 886 215 q 735 26 802 66 q 592 -14 667 -14 m 528 11 q 565 44 552 11 q 583 144 578 76 q 588 319 588 213 q 583 494 588 426 q 565 594 578 562 q 528 626 552 626 q 459 594 494 626 q 399 493 423 561 q 375 319 375 425 q 399 145 375 214 q 459 44 423 77 q 528 11 494 11 z "},"c":{"ha":751,"x_min":35,"x_max":706,"o":"m 394 -14 q 215 19 297 -14 q 84 125 133 51 q 35 319 35 198 q 78 501 35 427 q 200 614 120 576 q 392 652 280 652 q 554 626 483 652 q 665 556 625 600 q 706 456 706 511 q 662 355 706 392 q 561 317 619 317 q 492 333 526 317 q 435 378 458 348 q 413 454 413 409 q 458 552 413 517 q 561 588 503 588 q 660 553 617 588 q 704 456 704 518 l 701 456 q 678 528 701 495 q 620 586 656 562 q 542 624 583 610 q 462 637 501 637 q 399 606 422 637 q 366 527 376 576 q 352 424 355 478 q 349 319 349 369 q 355 205 349 260 q 375 106 360 149 q 415 37 390 63 q 481 12 441 12 q 574 34 531 12 q 647 99 616 57 q 695 199 678 141 l 700 199 q 599 43 673 101 q 394 -14 526 -14 z "},"ć":{"ha":751,"x_min":35,"x_max":706,"o":"m 394 -14 q 215 19 297 -14 q 84 125 133 51 q 35 319 35 198 q 78 501 35 427 q 200 614 120 576 q 392 652 280 652 q 554 626 483 652 q 665 556 625 600 q 706 456 706 511 q 662 355 706 392 q 561 317 619 317 q 492 333 526 317 q 435 378 458 348 q 413 454 413 409 q 458 552 413 517 q 561 588 503 588 q 660 553 617 588 q 704 456 704 518 l 701 456 q 678 528 701 495 q 620 586 656 562 q 542 624 583 610 q 462 637 501 637 q 399 606 422 637 q 366 527 376 576 q 352 424 355 478 q 349 319 349 369 q 355 205 349 260 q 375 106 360 149 q 415 37 390 63 q 481 12 441 12 q 574 34 531 12 q 647 99 616 57 q 695 199 678 141 l 700 199 q 599 43 673 101 q 394 -14 526 -14 m 308 763 l 306 767 l 403 956 q 472 1022 429 1007 q 555 1025 515 1037 q 615 987 596 1014 q 633 910 638 953 q 597 832 628 867 q 510 790 566 798 l 308 763 z "},"č":{"ha":751,"x_min":35,"x_max":706,"o":"m 394 -14 q 215 19 297 -14 q 84 125 133 51 q 35 319 35 198 q 78 501 35 427 q 200 614 120 576 q 392 652 280 652 q 554 626 483 652 q 665 556 625 600 q 706 456 706 511 q 662 355 706 392 q 561 317 619 317 q 492 333 526 317 q 435 378 458 348 q 413 454 413 409 q 458 552 413 517 q 561 588 503 588 q 660 553 617 588 q 704 456 704 518 l 701 456 q 678 528 701 495 q 620 586 656 562 q 542 624 583 610 q 462 637 501 637 q 399 606 422 637 q 366 527 376 576 q 352 424 355 478 q 349 319 349 369 q 355 205 349 260 q 375 106 360 149 q 415 37 390 63 q 481 12 441 12 q 574 34 531 12 q 647 99 616 57 q 695 199 678 141 l 700 199 q 599 43 673 101 q 394 -14 526 -14 m 321 778 l 140 1000 l 143 1003 l 394 910 l 644 1003 l 647 1000 l 467 778 l 321 778 z "},"ç":{"ha":751,"x_min":35,"x_max":706,"o":"m 394 -14 q 215 19 297 -14 q 84 125 133 51 q 35 319 35 198 q 78 501 35 427 q 200 614 120 576 q 392 652 280 652 q 554 626 483 652 q 665 556 625 600 q 706 456 706 511 q 662 355 706 392 q 561 317 619 317 q 492 333 526 317 q 435 378 458 348 q 413 454 413 409 q 458 552 413 517 q 561 588 503 588 q 660 553 617 588 q 704 456 704 518 l 701 456 q 678 528 701 495 q 620 586 656 562 q 542 624 583 610 q 462 637 501 637 q 399 606 422 637 q 366 527 376 576 q 352 424 355 478 q 349 319 349 369 q 355 205 349 260 q 375 106 360 149 q 415 37 390 63 q 481 12 441 12 q 574 34 531 12 q 647 99 616 57 q 695 199 678 141 l 700 199 q 599 43 673 101 q 394 -14 526 -14 m 244 -354 l 244 -349 q 330 -319 306 -349 q 353 -243 353 -288 q 338 -188 353 -206 q 300 -164 323 -170 q 252 -158 276 -158 l 369 1 l 376 1 l 301 -103 q 443 -117 385 -105 q 532 -152 502 -128 q 563 -215 563 -176 q 535 -282 563 -250 q 439 -334 508 -314 q 244 -354 370 -354 z "},"ĉ":{"ha":751,"x_min":35,"x_max":706,"o":"m 394 -14 q 215 19 297 -14 q 84 125 133 51 q 35 319 35 198 q 78 501 35 427 q 200 614 120 576 q 392 652 280 652 q 554 626 483 652 q 665 556 625 600 q 706 456 706 511 q 662 355 706 392 q 561 317 619 317 q 492 333 526 317 q 435 378 458 348 q 413 454 413 409 q 458 552 413 517 q 561 588 503 588 q 660 553 617 588 q 704 456 704 518 l 701 456 q 678 528 701 495 q 620 586 656 562 q 542 624 583 610 q 462 637 501 637 q 399 606 422 637 q 366 527 376 576 q 352 424 355 478 q 349 319 349 369 q 355 205 349 260 q 375 106 360 149 q 415 37 390 63 q 481 12 441 12 q 574 34 531 12 q 647 99 616 57 q 695 199 678 141 l 700 199 q 599 43 673 101 q 394 -14 526 -14 m 143 785 l 140 788 l 321 1010 l 467 1010 l 647 788 l 644 785 l 393 878 l 143 785 z "},"ċ":{"ha":751,"x_min":35,"x_max":706,"o":"m 394 -14 q 215 19 297 -14 q 84 125 133 51 q 35 319 35 198 q 78 501 35 427 q 200 614 120 576 q 392 652 280 652 q 554 626 483 652 q 665 556 625 600 q 706 456 706 511 q 662 355 706 392 q 561 317 619 317 q 492 333 526 317 q 435 378 458 348 q 413 454 413 409 q 458 552 413 517 q 561 588 503 588 q 660 553 617 588 q 704 456 704 518 l 701 456 q 678 528 701 495 q 620 586 656 562 q 542 624 583 610 q 462 637 501 637 q 399 606 422 637 q 366 527 376 576 q 352 424 355 478 q 349 319 349 369 q 355 205 349 260 q 375 106 360 149 q 415 37 390 63 q 481 12 441 12 q 574 34 531 12 q 647 99 616 57 q 695 199 678 141 l 700 199 q 599 43 673 101 q 394 -14 526 -14 m 394 750 q 285 794 328 750 q 241 903 241 838 q 285 1012 241 969 q 394 1056 328 1056 q 503 1012 460 1056 q 547 903 547 969 q 503 794 547 838 q 394 750 460 750 z "},"d":{"ha":921,"x_min":35,"x_max":907,"o":"m 329 -14 q 186 26 253 -14 q 77 140 119 65 q 35 318 35 214 q 77 497 35 422 q 186 611 119 572 q 329 651 253 651 q 479 584 424 651 q 546 391 534 516 l 546 1037 l 449 1037 l 449 1042 l 810 1042 l 810 5 l 907 5 l 907 0 l 546 0 l 546 244 q 480 53 534 120 q 329 -14 425 -14 m 393 11 q 463 44 427 11 q 522 144 499 76 q 546 318 546 213 q 522 492 546 424 q 463 593 499 560 q 393 626 427 626 q 357 594 369 626 q 339 493 344 561 q 333 318 333 425 q 339 143 333 211 q 357 43 344 76 q 393 11 369 11 z "},"ð":{"ha":916,"x_min":42,"x_max":861,"o":"m 439 -14 q 231 33 320 -14 q 92 161 142 80 q 42 347 42 243 q 72 500 42 436 q 151 606 101 565 q 263 667 201 647 q 388 688 324 688 q 477 650 445 688 q 520 544 508 612 q 533 389 533 477 l 528 389 q 514 553 528 493 q 477 640 499 614 q 433 666 456 666 q 399 652 413 666 q 376 602 385 638 q 365 505 368 567 q 361 347 361 443 q 363 195 361 262 q 373 84 365 129 q 394 15 380 38 q 435 -9 409 -9 q 478 17 460 -9 q 507 94 496 43 q 523 219 518 145 q 528 389 528 293 l 529 461 q 514 613 529 533 q 468 771 499 694 q 391 912 438 849 q 284 1013 345 975 q 146 1051 222 1051 l 146 1056 q 426 1009 298 1056 q 649 879 554 963 q 795 681 743 795 q 847 431 847 567 q 794 186 847 285 q 650 36 742 87 q 439 -14 558 -14 m 208 870 l 208 875 l 861 875 l 861 870 l 208 870 z "},"ď":{"ha":921,"x_min":35,"x_max":1165,"o":"m 329 -14 q 186 26 253 -14 q 77 140 119 65 q 35 318 35 214 q 77 497 35 422 q 186 611 119 572 q 329 651 253 651 q 479 584 424 651 q 546 391 534 516 l 546 1037 l 449 1037 l 449 1042 l 810 1042 l 810 5 l 907 5 l 907 0 l 546 0 l 546 244 q 480 53 534 120 q 329 -14 425 -14 m 393 11 q 463 44 427 11 q 522 144 499 76 q 546 318 546 213 q 522 492 546 424 q 463 593 499 560 q 393 626 427 626 q 357 594 369 626 q 339 493 344 561 q 333 318 333 425 q 339 143 333 211 q 357 43 344 76 q 393 11 369 11 m 907 675 l 907 678 q 1014 696 965 678 q 1099 748 1064 714 q 1149 833 1134 783 q 1153 948 1165 883 l 1155 948 q 1135 883 1155 912 q 1086 836 1116 853 q 1026 819 1057 819 q 940 855 972 819 q 909 937 909 890 q 947 1019 909 984 q 1035 1055 984 1055 q 1124 1013 1085 1055 q 1163 902 1163 971 q 1131 782 1163 833 q 1042 703 1099 731 q 907 675 984 675 z "},"đ":{"ha":921,"x_min":35,"x_max":907,"o":"m 334 789 l 334 794 l 906 794 l 906 789 l 334 789 m 329 -14 q 186 26 253 -14 q 77 140 119 65 q 35 318 35 214 q 77 497 35 422 q 186 611 119 572 q 329 651 253 651 q 479 584 424 651 q 546 391 534 516 l 546 1037 l 449 1037 l 449 1042 l 810 1042 l 810 5 l 907 5 l 907 0 l 546 0 l 546 244 q 480 53 534 120 q 329 -14 425 -14 m 393 11 q 463 44 427 11 q 522 144 499 76 q 546 318 546 213 q 522 492 546 424 q 463 593 499 560 q 393 626 427 626 q 357 594 369 626 q 339 493 344 561 q 333 318 333 425 q 339 143 333 211 q 357 43 344 76 q 393 11 369 11 z "},"e":{"ha":747,"x_min":35,"x_max":713,"o":"m 393 -14 q 207 23 288 -14 q 81 134 126 60 q 35 319 35 208 q 80 505 35 431 q 204 616 124 578 q 389 653 284 653 q 564 611 492 653 q 674 503 636 570 q 711 360 711 436 l 128 360 l 128 365 l 446 365 q 444 466 445 417 q 437 557 442 516 q 420 623 432 599 q 389 648 409 648 q 355 624 369 648 q 334 557 342 599 q 323 461 326 515 q 320 347 320 407 q 325 209 320 272 q 345 100 331 146 q 385 28 359 53 q 451 2 410 2 q 612 57 542 2 q 708 199 682 111 l 713 199 q 608 47 685 108 q 393 -14 530 -14 z "},"é":{"ha":747,"x_min":35,"x_max":713,"o":"m 393 -14 q 207 23 288 -14 q 81 134 126 60 q 35 319 35 208 q 80 505 35 431 q 204 616 124 578 q 389 653 284 653 q 564 611 492 653 q 674 503 636 570 q 711 360 711 436 l 128 360 l 128 365 l 446 365 q 444 466 445 417 q 437 557 442 516 q 420 623 432 599 q 389 648 409 648 q 355 624 369 648 q 334 557 342 599 q 323 461 326 515 q 320 347 320 407 q 325 209 320 272 q 345 100 331 146 q 385 28 359 53 q 451 2 410 2 q 612 57 542 2 q 708 199 682 111 l 713 199 q 608 47 685 108 q 393 -14 530 -14 m 311 763 l 309 767 l 406 956 q 475 1022 432 1007 q 558 1025 517 1037 q 617 987 599 1014 q 635 910 640 953 q 600 832 631 867 q 513 790 569 798 l 311 763 z "},"ĕ":{"ha":747,"x_min":35,"x_max":713,"o":"m 393 -14 q 207 23 288 -14 q 81 134 126 60 q 35 319 35 208 q 80 505 35 431 q 204 616 124 578 q 389 653 284 653 q 564 611 492 653 q 674 503 636 570 q 711 360 711 436 l 128 360 l 128 365 l 446 365 q 444 466 445 417 q 437 557 442 516 q 420 623 432 599 q 389 648 409 648 q 355 624 369 648 q 334 557 342 599 q 323 461 326 515 q 320 347 320 407 q 325 209 320 272 q 345 100 331 146 q 385 28 359 53 q 451 2 410 2 q 612 57 542 2 q 708 199 682 111 l 713 199 q 608 47 685 108 q 393 -14 530 -14 m 396 764 q 300 792 340 764 q 237 877 259 819 q 215 1026 215 935 l 220 1026 q 249 980 220 996 q 318 957 277 963 q 396 951 358 951 q 474 957 433 951 q 543 980 515 963 q 572 1026 572 996 l 576 1026 q 555 877 576 935 q 492 792 533 819 q 396 764 451 764 z "},"ě":{"ha":747,"x_min":35,"x_max":713,"o":"m 393 -14 q 207 23 288 -14 q 81 134 126 60 q 35 319 35 208 q 80 505 35 431 q 204 616 124 578 q 389 653 284 653 q 564 611 492 653 q 674 503 636 570 q 711 360 711 436 l 128 360 l 128 365 l 446 365 q 444 466 445 417 q 437 557 442 516 q 420 623 432 599 q 389 648 409 648 q 355 624 369 648 q 334 557 342 599 q 323 461 326 515 q 320 347 320 407 q 325 209 320 272 q 345 100 331 146 q 385 28 359 53 q 451 2 410 2 q 612 57 542 2 q 708 199 682 111 l 713 199 q 608 47 685 108 q 393 -14 530 -14 m 324 778 l 143 1000 l 146 1003 l 397 910 l 647 1003 l 650 1000 l 469 778 l 324 778 z "},"ê":{"ha":747,"x_min":35,"x_max":713,"o":"m 393 -14 q 207 23 288 -14 q 81 134 126 60 q 35 319 35 208 q 80 505 35 431 q 204 616 124 578 q 389 653 284 653 q 564 611 492 653 q 674 503 636 570 q 711 360 711 436 l 128 360 l 128 365 l 446 365 q 444 466 445 417 q 437 557 442 516 q 420 623 432 599 q 389 648 409 648 q 355 624 369 648 q 334 557 342 599 q 323 461 326 515 q 320 347 320 407 q 325 209 320 272 q 345 100 331 146 q 385 28 359 53 q 451 2 410 2 q 612 57 542 2 q 708 199 682 111 l 713 199 q 608 47 685 108 q 393 -14 530 -14 m 146 785 l 143 788 l 324 1010 l 469 1010 l 650 788 l 647 785 l 396 878 l 146 785 z "},"ë":{"ha":747,"x_min":35,"x_max":713,"o":"m 393 -14 q 207 23 288 -14 q 81 134 126 60 q 35 319 35 208 q 80 505 35 431 q 204 616 124 578 q 389 653 284 653 q 564 611 492 653 q 674 503 636 570 q 711 360 711 436 l 128 360 l 128 365 l 446 365 q 444 466 445 417 q 437 557 442 516 q 420 623 432 599 q 389 648 409 648 q 355 624 369 648 q 334 557 342 599 q 323 461 326 515 q 320 347 320 407 q 325 209 320 272 q 345 100 331 146 q 385 28 359 53 q 451 2 410 2 q 612 57 542 2 q 708 199 682 111 l 713 199 q 608 47 685 108 q 393 -14 530 -14 m 544 764 q 479 791 506 764 q 451 857 451 819 q 479 923 451 896 q 545 951 506 951 q 611 923 583 951 q 638 857 638 896 q 611 791 638 819 q 544 764 583 764 m 247 764 q 182 791 209 764 q 154 857 154 819 q 182 923 154 896 q 248 951 209 951 q 314 923 286 951 q 341 857 341 896 q 314 791 341 819 q 247 764 286 764 z "},"ė":{"ha":747,"x_min":35,"x_max":713,"o":"m 393 -14 q 207 23 288 -14 q 81 134 126 60 q 35 319 35 208 q 80 505 35 431 q 204 616 124 578 q 389 653 284 653 q 564 611 492 653 q 674 503 636 570 q 711 360 711 436 l 128 360 l 128 365 l 446 365 q 444 466 445 417 q 437 557 442 516 q 420 623 432 599 q 389 648 409 648 q 355 624 369 648 q 334 557 342 599 q 323 461 326 515 q 320 347 320 407 q 325 209 320 272 q 345 100 331 146 q 385 28 359 53 q 451 2 410 2 q 612 57 542 2 q 708 199 682 111 l 713 199 q 608 47 685 108 q 393 -14 530 -14 m 397 750 q 288 794 331 750 q 244 903 244 838 q 288 1012 244 969 q 397 1056 331 1056 q 506 1012 463 1056 q 549 903 549 969 q 506 794 549 838 q 397 750 463 750 z "},"è":{"ha":747,"x_min":35,"x_max":713,"o":"m 393 -14 q 207 23 288 -14 q 81 134 126 60 q 35 319 35 208 q 80 505 35 431 q 204 616 124 578 q 389 653 284 653 q 564 611 492 653 q 674 503 636 570 q 711 360 711 436 l 128 360 l 128 365 l 446 365 q 444 466 445 417 q 437 557 442 516 q 420 623 432 599 q 389 648 409 648 q 355 624 369 648 q 334 557 342 599 q 323 461 326 515 q 320 347 320 407 q 325 209 320 272 q 345 100 331 146 q 385 28 359 53 q 451 2 410 2 q 612 57 542 2 q 708 199 682 111 l 713 199 q 608 47 685 108 q 393 -14 530 -14 m 478 763 l 276 790 q 190 832 221 798 q 154 910 159 867 q 172 987 149 953 q 231 1025 191 1014 q 315 1022 272 1037 q 384 956 358 1007 l 481 767 l 478 763 z "},"ē":{"ha":747,"x_min":35,"x_max":713,"o":"m 393 -14 q 207 23 288 -14 q 81 134 126 60 q 35 319 35 208 q 80 505 35 431 q 204 616 124 578 q 389 653 284 653 q 564 611 492 653 q 674 503 636 570 q 711 360 711 436 l 128 360 l 128 365 l 446 365 q 444 466 445 417 q 437 557 442 516 q 420 623 432 599 q 389 648 409 648 q 355 624 369 648 q 334 557 342 599 q 323 461 326 515 q 320 347 320 407 q 325 209 320 272 q 345 100 331 146 q 385 28 359 53 q 451 2 410 2 q 612 57 542 2 q 708 199 682 111 l 713 199 q 608 47 685 108 q 393 -14 530 -14 m 229 778 l 229 783 l 563 783 l 563 778 l 229 778 z "},"ę":{"ha":747,"x_min":35,"x_max":713,"o":"m 393 -14 q 207 23 288 -14 q 81 134 126 60 q 35 319 35 208 q 80 505 35 431 q 204 616 124 578 q 389 653 284 653 q 564 611 492 653 q 674 503 636 570 q 711 360 711 436 l 128 360 l 128 365 l 446 365 q 444 466 445 417 q 437 557 442 516 q 420 623 432 599 q 389 648 409 648 q 355 624 369 648 q 334 557 342 599 q 323 461 326 515 q 320 347 320 407 q 325 209 320 272 q 345 100 331 146 q 385 28 359 53 q 451 2 410 2 q 612 57 542 2 q 708 199 682 111 l 713 199 q 608 47 685 108 q 393 -14 530 -14 m 443 -329 q 344 -317 387 -329 q 276 -278 301 -304 q 251 -210 251 -251 q 278 -132 251 -168 q 349 -67 306 -97 q 444 -17 393 -38 q 542 17 494 4 l 543 13 q 523 -14 535 8 q 501 -74 511 -36 q 492 -161 492 -111 q 513 -260 492 -229 q 559 -291 534 -291 q 597 -273 581 -291 q 627 -226 613 -255 l 631 -228 q 603 -271 620 -247 q 550 -312 587 -294 q 443 -329 513 -329 z "},"f":{"ha":584,"x_min":8,"x_max":744,"o":"m 133 0 l 133 710 q 185 893 133 815 q 327 1013 238 970 q 532 1056 417 1056 q 646 1027 599 1056 q 719 957 694 999 q 744 876 744 916 q 700 771 744 808 q 602 735 655 735 q 539 749 571 735 q 484 792 506 763 q 463 866 463 821 q 503 964 463 928 q 595 999 543 999 q 665 984 631 999 q 721 942 699 969 q 743 876 743 915 l 740 876 q 711 964 740 925 q 639 1026 682 1003 q 553 1049 596 1049 q 456 1011 494 1049 q 401 906 419 973 q 383 750 383 838 l 383 0 l 133 0 m 8 0 l 8 5 l 550 5 l 550 0 l 8 0 m 8 634 l 8 639 l 578 639 l 578 634 l 8 634 z "},"g":{"ha":930,"x_min":15,"x_max":923,"o":"m 372 -361 q 244 -352 307 -361 q 129 -325 181 -344 q 46 -275 77 -306 q 15 -201 15 -244 q 44 -136 15 -161 q 113 -99 72 -112 q 193 -81 153 -85 q 257 -76 233 -76 l 261 -76 q 231 -112 246 -84 q 217 -178 217 -140 q 239 -265 217 -226 q 306 -328 260 -305 q 425 -352 352 -352 q 509 -344 464 -352 q 596 -319 555 -337 q 664 -272 638 -302 q 691 -197 691 -242 q 660 -122 691 -146 q 583 -90 629 -97 q 492 -82 538 -82 q 444 -82 478 -82 q 377 -82 411 -82 q 328 -82 344 -82 q 134 -47 209 -82 q 60 69 60 -11 q 89 149 60 118 q 164 196 117 179 q 264 220 210 213 q 367 226 317 226 l 367 223 q 324 221 349 223 q 272 214 298 219 q 228 199 246 208 q 211 175 211 190 q 241 147 211 155 q 328 138 272 138 q 385 139 353 138 q 447 139 417 139 q 497 140 478 140 q 580 126 536 140 q 662 84 624 113 q 725 6 701 54 q 749 -114 749 -43 q 720 -231 749 -183 q 640 -307 692 -278 q 520 -348 588 -335 q 372 -361 451 -361 m 367 222 q 256 234 313 222 q 153 272 200 247 q 78 339 106 298 q 49 438 49 380 q 78 536 49 495 q 153 602 106 576 q 256 640 200 628 q 367 652 313 652 q 479 640 423 652 q 582 602 535 628 q 657 536 628 576 q 685 438 685 495 q 657 339 685 380 q 582 272 628 298 q 479 234 535 247 q 367 222 423 222 m 367 227 q 394 257 384 227 q 410 335 405 287 q 415 438 415 383 q 410 547 415 499 q 394 620 405 594 q 367 647 384 647 q 340 620 351 647 q 325 547 330 594 q 320 438 320 499 q 324 335 320 383 q 337 257 327 287 q 367 227 347 227 m 815 395 q 741 423 773 395 q 710 500 710 450 q 742 575 710 551 q 815 599 774 599 q 886 575 850 599 q 922 506 922 551 l 917 506 q 875 599 917 558 q 758 641 833 641 q 690 626 725 641 q 627 579 655 612 q 585 490 599 546 l 582 492 q 624 584 596 551 q 688 632 653 618 q 758 646 724 646 q 850 625 813 646 q 905 572 886 604 q 923 506 923 540 q 890 421 923 447 q 815 395 856 395 z "},"ğ":{"ha":930,"x_min":15,"x_max":923,"o":"m 372 -361 q 244 -352 307 -361 q 129 -325 181 -344 q 46 -275 77 -306 q 15 -201 15 -244 q 44 -136 15 -161 q 113 -99 72 -112 q 193 -81 153 -85 q 257 -76 233 -76 l 261 -76 q 231 -112 246 -84 q 217 -178 217 -140 q 239 -265 217 -226 q 306 -328 260 -305 q 425 -352 352 -352 q 509 -344 464 -352 q 596 -319 555 -337 q 664 -272 638 -302 q 691 -197 691 -242 q 660 -122 691 -146 q 583 -90 629 -97 q 492 -82 538 -82 q 444 -82 478 -82 q 377 -82 411 -82 q 328 -82 344 -82 q 134 -47 209 -82 q 60 69 60 -11 q 89 149 60 118 q 164 196 117 179 q 264 220 210 213 q 367 226 317 226 l 367 223 q 324 221 349 223 q 272 214 298 219 q 228 199 246 208 q 211 175 211 190 q 241 147 211 155 q 328 138 272 138 q 385 139 353 138 q 447 139 417 139 q 497 140 478 140 q 580 126 536 140 q 662 84 624 113 q 725 6 701 54 q 749 -114 749 -43 q 720 -231 749 -183 q 640 -307 692 -278 q 520 -348 588 -335 q 372 -361 451 -361 m 367 222 q 256 234 313 222 q 153 272 200 247 q 78 339 106 298 q 49 438 49 380 q 78 536 49 495 q 153 602 106 576 q 256 640 200 628 q 367 652 313 652 q 479 640 423 652 q 582 602 535 628 q 657 536 628 576 q 685 438 685 495 q 657 339 685 380 q 582 272 628 298 q 479 234 535 247 q 367 222 423 222 m 367 227 q 394 257 384 227 q 410 335 405 287 q 415 438 415 383 q 410 547 415 499 q 394 620 405 594 q 367 647 384 647 q 340 620 351 647 q 325 547 330 594 q 320 438 320 499 q 324 335 320 383 q 337 257 327 287 q 367 227 347 227 m 815 395 q 741 423 773 395 q 710 500 710 450 q 742 575 710 551 q 815 599 774 599 q 886 575 850 599 q 922 506 922 551 l 917 506 q 875 599 917 558 q 758 641 833 641 q 690 626 725 641 q 627 579 655 612 q 585 490 599 546 l 582 492 q 624 584 596 551 q 688 632 653 618 q 758 646 724 646 q 850 625 813 646 q 905 572 886 604 q 923 506 923 540 q 890 421 923 447 q 815 395 856 395 m 402 764 q 306 792 347 764 q 243 877 265 819 q 222 1026 222 935 l 226 1026 q 255 980 226 996 q 324 957 283 963 q 402 951 365 951 q 480 957 440 951 q 549 980 521 963 q 578 1026 578 996 l 583 1026 q 561 877 583 935 q 498 792 539 819 q 402 764 458 764 z "},"ĝ":{"ha":930,"x_min":15,"x_max":923,"o":"m 372 -361 q 244 -352 307 -361 q 129 -325 181 -344 q 46 -275 77 -306 q 15 -201 15 -244 q 44 -136 15 -161 q 113 -99 72 -112 q 193 -81 153 -85 q 257 -76 233 -76 l 261 -76 q 231 -112 246 -84 q 217 -178 217 -140 q 239 -265 217 -226 q 306 -328 260 -305 q 425 -352 352 -352 q 509 -344 464 -352 q 596 -319 555 -337 q 664 -272 638 -302 q 691 -197 691 -242 q 660 -122 691 -146 q 583 -90 629 -97 q 492 -82 538 -82 q 444 -82 478 -82 q 377 -82 411 -82 q 328 -82 344 -82 q 134 -47 209 -82 q 60 69 60 -11 q 89 149 60 118 q 164 196 117 179 q 264 220 210 213 q 367 226 317 226 l 367 223 q 324 221 349 223 q 272 214 298 219 q 228 199 246 208 q 211 175 211 190 q 241 147 211 155 q 328 138 272 138 q 385 139 353 138 q 447 139 417 139 q 497 140 478 140 q 580 126 536 140 q 662 84 624 113 q 725 6 701 54 q 749 -114 749 -43 q 720 -231 749 -183 q 640 -307 692 -278 q 520 -348 588 -335 q 372 -361 451 -361 m 367 222 q 256 234 313 222 q 153 272 200 247 q 78 339 106 298 q 49 438 49 380 q 78 536 49 495 q 153 602 106 576 q 256 640 200 628 q 367 652 313 652 q 479 640 423 652 q 582 602 535 628 q 657 536 628 576 q 685 438 685 495 q 657 339 685 380 q 582 272 628 298 q 479 234 535 247 q 367 222 423 222 m 367 227 q 394 257 384 227 q 410 335 405 287 q 415 438 415 383 q 410 547 415 499 q 394 620 405 594 q 367 647 384 647 q 340 620 351 647 q 325 547 330 594 q 320 438 320 499 q 324 335 320 383 q 337 257 327 287 q 367 227 347 227 m 815 395 q 741 423 773 395 q 710 500 710 450 q 742 575 710 551 q 815 599 774 599 q 886 575 850 599 q 922 506 922 551 l 917 506 q 875 599 917 558 q 758 641 833 641 q 690 626 725 641 q 627 579 655 612 q 585 490 599 546 l 582 492 q 624 584 596 551 q 688 632 653 618 q 758 646 724 646 q 850 625 813 646 q 905 572 886 604 q 923 506 923 540 q 890 421 923 447 q 815 395 856 395 m 152 785 l 149 788 l 330 1010 l 476 1010 l 656 788 l 653 785 l 402 878 l 152 785 z "},"ģ":{"ha":930,"x_min":15,"x_max":923,"o":"m 372 -361 q 244 -352 307 -361 q 129 -325 181 -344 q 46 -275 77 -306 q 15 -201 15 -244 q 44 -136 15 -161 q 113 -99 72 -112 q 193 -81 153 -85 q 257 -76 233 -76 l 261 -76 q 231 -112 246 -84 q 217 -178 217 -140 q 239 -265 217 -226 q 306 -328 260 -305 q 425 -352 352 -352 q 509 -344 464 -352 q 596 -319 555 -337 q 664 -272 638 -302 q 691 -197 691 -242 q 660 -122 691 -146 q 583 -90 629 -97 q 492 -82 538 -82 q 444 -82 478 -82 q 377 -82 411 -82 q 328 -82 344 -82 q 134 -47 209 -82 q 60 69 60 -11 q 89 149 60 118 q 164 196 117 179 q 264 220 210 213 q 367 226 317 226 l 367 223 q 324 221 349 223 q 272 214 298 219 q 228 199 246 208 q 211 175 211 190 q 241 147 211 155 q 328 138 272 138 q 385 139 353 138 q 447 139 417 139 q 497 140 478 140 q 580 126 536 140 q 662 84 624 113 q 725 6 701 54 q 749 -114 749 -43 q 720 -231 749 -183 q 640 -307 692 -278 q 520 -348 588 -335 q 372 -361 451 -361 m 367 222 q 256 234 313 222 q 153 272 200 247 q 78 339 106 298 q 49 438 49 380 q 78 536 49 495 q 153 602 106 576 q 256 640 200 628 q 367 652 313 652 q 479 640 423 652 q 582 602 535 628 q 657 536 628 576 q 685 438 685 495 q 657 339 685 380 q 582 272 628 298 q 479 234 535 247 q 367 222 423 222 m 367 227 q 394 257 384 227 q 410 335 405 287 q 415 438 415 383 q 410 547 415 499 q 394 620 405 594 q 367 647 384 647 q 340 620 351 647 q 325 547 330 594 q 320 438 320 499 q 324 335 320 383 q 337 257 327 287 q 367 227 347 227 m 815 395 q 741 423 773 395 q 710 500 710 450 q 742 575 710 551 q 815 599 774 599 q 886 575 850 599 q 922 506 922 551 l 917 506 q 875 599 917 558 q 758 641 833 641 q 690 626 725 641 q 627 579 655 612 q 585 490 599 546 l 582 492 q 624 584 596 551 q 688 632 653 618 q 758 646 724 646 q 850 625 813 646 q 905 572 886 604 q 923 506 923 540 q 890 421 923 447 q 815 395 856 395 m 403 787 q 302 834 345 787 q 258 958 258 881 q 294 1093 258 1036 q 395 1182 331 1151 q 546 1214 460 1214 l 546 1210 q 391 1175 460 1210 q 288 1072 322 1140 q 269 908 253 1005 l 267 908 q 289 981 267 948 q 344 1033 311 1014 q 413 1051 377 1051 q 509 1011 474 1051 q 544 919 544 972 q 524 854 544 885 q 473 805 505 824 q 403 787 440 787 z "},"ġ":{"ha":930,"x_min":15,"x_max":923,"o":"m 372 -361 q 244 -352 307 -361 q 129 -325 181 -344 q 46 -275 77 -306 q 15 -201 15 -244 q 44 -136 15 -161 q 113 -99 72 -112 q 193 -81 153 -85 q 257 -76 233 -76 l 261 -76 q 231 -112 246 -84 q 217 -178 217 -140 q 239 -265 217 -226 q 306 -328 260 -305 q 425 -352 352 -352 q 509 -344 464 -352 q 596 -319 555 -337 q 664 -272 638 -302 q 691 -197 691 -242 q 660 -122 691 -146 q 583 -90 629 -97 q 492 -82 538 -82 q 444 -82 478 -82 q 377 -82 411 -82 q 328 -82 344 -82 q 134 -47 209 -82 q 60 69 60 -11 q 89 149 60 118 q 164 196 117 179 q 264 220 210 213 q 367 226 317 226 l 367 223 q 324 221 349 223 q 272 214 298 219 q 228 199 246 208 q 211 175 211 190 q 241 147 211 155 q 328 138 272 138 q 385 139 353 138 q 447 139 417 139 q 497 140 478 140 q 580 126 536 140 q 662 84 624 113 q 725 6 701 54 q 749 -114 749 -43 q 720 -231 749 -183 q 640 -307 692 -278 q 520 -348 588 -335 q 372 -361 451 -361 m 367 222 q 256 234 313 222 q 153 272 200 247 q 78 339 106 298 q 49 438 49 380 q 78 536 49 495 q 153 602 106 576 q 256 640 200 628 q 367 652 313 652 q 479 640 423 652 q 582 602 535 628 q 657 536 628 576 q 685 438 685 495 q 657 339 685 380 q 582 272 628 298 q 479 234 535 247 q 367 222 423 222 m 367 227 q 394 257 384 227 q 410 335 405 287 q 415 438 415 383 q 410 547 415 499 q 394 620 405 594 q 367 647 384 647 q 340 620 351 647 q 325 547 330 594 q 320 438 320 499 q 324 335 320 383 q 337 257 327 287 q 367 227 347 227 m 815 395 q 741 423 773 395 q 710 500 710 450 q 742 575 710 551 q 815 599 774 599 q 886 575 850 599 q 922 506 922 551 l 917 506 q 875 599 917 558 q 758 641 833 641 q 690 626 725 641 q 627 579 655 612 q 585 490 599 546 l 582 492 q 624 584 596 551 q 688 632 653 618 q 758 646 724 646 q 850 625 813 646 q 905 572 886 604 q 923 506 923 540 q 890 421 923 447 q 815 395 856 395 m 403 750 q 294 794 338 750 q 250 903 250 838 q 294 1012 250 969 q 403 1056 338 1056 q 512 1012 469 1056 q 556 903 556 969 q 512 794 556 838 q 403 750 469 750 z "},"h":{"ha":910,"x_min":14,"x_max":896,"o":"m 14 0 l 14 5 l 111 5 l 111 1037 l 14 1037 l 14 1042 l 375 1042 l 375 5 l 431 5 l 431 0 l 14 0 m 479 0 l 479 5 l 535 5 l 535 453 q 530 540 535 512 q 515 576 526 567 q 485 584 504 584 q 436 559 456 584 q 402 494 415 535 q 382 406 388 454 q 375 310 375 357 l 371 310 q 379 423 371 363 q 411 535 388 483 q 481 620 435 587 q 601 653 527 653 q 719 626 676 653 q 780 551 762 599 q 799 443 799 503 l 799 5 l 896 5 l 896 0 l 479 0 z "},"ħ":{"ha":849,"x_min":14,"x_max":896,"o":"m 53 824 l 53 829 l 458 829 l 458 824 l 53 824 m 14 0 l 14 5 l 111 5 l 111 1037 l 14 1037 l 14 1042 l 375 1042 l 375 5 l 431 5 l 431 0 l 14 0 m 479 0 l 479 5 l 535 5 l 535 453 q 530 540 535 512 q 515 576 526 567 q 485 584 504 584 q 436 559 456 584 q 402 494 415 535 q 382 406 388 454 q 375 310 375 357 l 371 310 q 379 423 371 363 q 411 535 388 483 q 481 620 435 587 q 601 653 527 653 q 719 626 676 653 q 780 551 762 599 q 799 443 799 503 l 799 5 l 896 5 l 896 0 l 479 0 z "},"ĥ":{"ha":910,"x_min":14,"x_max":896,"o":"m 14 0 l 14 5 l 111 5 l 111 1037 l 14 1037 l 14 1042 l 375 1042 l 375 5 l 431 5 l 431 0 l 14 0 m 479 0 l 479 5 l 535 5 l 535 453 q 530 540 535 512 q 515 576 526 567 q 485 584 504 584 q 436 559 456 584 q 402 494 415 535 q 382 406 388 454 q 375 310 375 357 l 371 310 q 379 423 371 363 q 411 535 388 483 q 481 620 435 587 q 601 653 527 653 q 719 626 676 653 q 780 551 762 599 q 799 443 799 503 l 799 5 l 896 5 l 896 0 l 479 0 m 271 1113 l 268 1115 l 449 1338 l 594 1338 l 775 1115 l 772 1113 l 521 1206 l 271 1113 z "},"i":{"ha":479,"x_min":21,"x_max":479,"o":"m 250 750 q 141 794 185 750 q 97 903 97 838 q 141 1012 97 969 q 250 1056 185 1056 q 359 1012 316 1056 q 403 903 403 969 q 359 794 403 838 q 250 750 316 750 m 382 639 l 382 5 l 479 5 l 479 0 l 21 0 l 21 5 l 118 5 l 118 634 l 21 634 l 21 639 l 382 639 z "},"ı":{"ha":480,"x_min":21,"x_max":479,"o":"m 382 639 l 382 5 l 479 5 l 479 0 l 21 0 l 21 5 l 118 5 l 118 634 l 21 634 l 21 639 l 382 639 z "},"í":{"ha":480,"x_min":21,"x_max":492,"o":"m 382 639 l 382 5 l 479 5 l 479 0 l 21 0 l 21 5 l 118 5 l 118 634 l 21 634 l 21 639 l 382 639 m 163 763 l 161 767 l 258 956 q 327 1022 284 1007 q 410 1025 369 1037 q 469 987 451 1014 q 488 910 492 953 q 452 832 483 867 q 365 790 421 798 l 163 763 z "},"ĭ":{"ha":480,"x_min":21,"x_max":479,"o":"m 382 639 l 382 5 l 479 5 l 479 0 l 21 0 l 21 5 l 118 5 l 118 634 l 21 634 l 21 639 l 382 639 m 248 764 q 152 792 192 764 q 89 877 111 819 q 67 1026 67 935 l 72 1026 q 101 980 72 996 q 170 957 129 963 q 248 951 210 951 q 326 957 285 951 q 395 980 367 963 q 424 1026 424 996 l 428 1026 q 407 877 428 935 q 344 792 385 819 q 248 764 303 764 z "},"î":{"ha":480,"x_min":-5,"x_max":502,"o":"m 382 639 l 382 5 l 479 5 l 479 0 l 21 0 l 21 5 l 118 5 l 118 634 l 21 634 l 21 639 l 382 639 m -2 785 l -5 788 l 176 1010 l 322 1010 l 502 788 l 499 785 l 248 878 l -2 785 z "},"ï":{"ha":480,"x_min":6,"x_max":490,"o":"m 382 639 l 382 5 l 479 5 l 479 0 l 21 0 l 21 5 l 118 5 l 118 634 l 21 634 l 21 639 l 382 639 m 397 764 q 331 791 358 764 q 303 857 303 819 q 331 923 303 896 q 397 951 358 951 q 463 923 435 951 q 490 857 490 896 q 463 791 490 819 q 397 764 435 764 m 99 764 q 34 791 61 764 q 6 857 6 819 q 34 923 6 896 q 100 951 61 951 q 166 923 138 951 q 193 857 193 896 q 166 791 193 819 q 99 764 138 764 z "},"ì":{"ha":480,"x_min":1,"x_max":479,"o":"m 382 639 l 382 5 l 479 5 l 479 0 l 21 0 l 21 5 l 118 5 l 118 634 l 21 634 l 21 639 l 382 639 m 331 763 l 128 790 q 42 832 73 798 q 6 910 11 867 q 24 987 1 953 q 83 1025 43 1014 q 167 1022 124 1037 q 236 956 210 1007 l 333 767 l 331 763 z "},"ĳ":{"ha":967,"x_min":21,"x_max":878,"o":"m 250 750 q 141 794 185 750 q 97 903 97 838 q 141 1012 97 969 q 250 1056 185 1056 q 359 1012 316 1056 q 403 903 403 969 q 359 794 403 838 q 250 750 316 750 m 382 639 l 382 5 l 479 5 l 479 0 l 21 0 l 21 5 l 118 5 l 118 634 l 21 634 l 21 639 l 382 639 m 478 -361 q 355 -339 411 -361 q 265 -275 299 -316 q 231 -182 231 -235 q 273 -82 231 -124 q 379 -40 316 -40 q 451 -59 417 -40 q 505 -108 484 -77 q 526 -178 526 -140 q 487 -272 526 -235 q 382 -309 448 -309 q 307 -289 341 -309 q 252 -239 273 -269 q 232 -182 232 -210 l 235 -182 q 269 -272 235 -233 q 355 -333 302 -311 q 463 -355 407 -355 q 544 -320 515 -355 q 586 -228 574 -285 q 602 -103 599 -171 q 606 31 606 -35 l 606 634 l 481 634 l 481 639 l 869 639 l 869 -16 q 834 -146 869 -84 q 741 -257 799 -208 q 615 -333 683 -305 q 478 -361 546 -361 m 726 750 q 617 794 660 750 q 573 903 573 838 q 617 1012 573 969 q 726 1056 660 1056 q 835 1012 792 1056 q 878 903 878 969 q 835 794 878 838 q 726 750 792 750 z "},"ī":{"ha":480,"x_min":21,"x_max":479,"o":"m 382 639 l 382 5 l 479 5 l 479 0 l 21 0 l 21 5 l 118 5 l 118 634 l 21 634 l 21 639 l 382 639 m 81 778 l 81 783 l 415 783 l 415 778 l 81 778 z "},"į":{"ha":480,"x_min":21,"x_max":479,"o":"m 382 639 l 382 5 l 479 5 l 479 0 l 21 0 l 21 5 l 118 5 l 118 634 l 21 634 l 21 639 l 382 639 m 249 750 q 140 794 183 750 q 96 903 96 838 q 140 1012 96 969 q 249 1056 183 1056 q 358 1012 315 1056 q 401 903 401 969 q 358 794 401 838 q 249 750 315 750 m 238 -329 q 139 -317 182 -329 q 71 -278 96 -304 q 47 -210 47 -251 q 74 -132 47 -168 q 144 -67 101 -97 q 239 -17 188 -38 q 337 17 290 4 l 338 13 q 318 -14 331 8 q 297 -74 306 -36 q 287 -161 287 -111 q 308 -260 287 -229 q 354 -291 329 -291 q 392 -273 376 -291 q 422 -226 408 -255 l 426 -228 q 399 -271 415 -247 q 345 -312 382 -294 q 238 -329 308 -329 z "},"ĩ":{"ha":480,"x_min":2,"x_max":485,"o":"m 382 639 l 382 5 l 479 5 l 479 0 l 21 0 l 21 5 l 118 5 l 118 634 l 21 634 l 21 639 l 382 639 m 362 736 q 284 753 317 736 q 224 791 251 769 q 165 829 196 813 q 90 846 133 846 q 27 823 47 846 q 7 778 7 801 l 2 778 q 14 890 2 837 q 55 976 25 943 q 140 1010 85 1010 q 218 993 187 1010 q 276 955 250 976 q 330 917 302 933 q 397 900 358 900 q 461 923 441 900 q 481 968 481 945 l 485 968 q 480 850 485 902 q 449 767 475 797 q 362 736 424 736 z "},"j":{"ha":507,"x_min":-228,"x_max":420,"o":"m 19 -361 q -103 -339 -47 -361 q -194 -275 -160 -316 q -228 -182 -228 -235 q -185 -82 -228 -124 q -79 -40 -142 -40 q -8 -59 -41 -40 q 47 -108 26 -77 q 67 -178 67 -140 q 28 -272 67 -235 q -76 -309 -10 -309 q -151 -289 -117 -309 q -206 -239 -185 -269 q -226 -182 -226 -210 l -223 -182 q -190 -272 -223 -233 q -104 -333 -156 -311 q 5 -355 -51 -355 q 86 -320 57 -355 q 128 -228 115 -285 q 144 -103 141 -171 q 147 31 147 -35 l 147 634 l 22 634 l 22 639 l 410 639 l 410 -16 q 375 -146 410 -84 q 283 -257 340 -208 q 156 -333 225 -305 q 19 -361 88 -361 m 267 750 q 158 794 202 750 q 115 903 115 838 q 158 1012 115 969 q 267 1056 202 1056 q 377 1012 333 1056 q 420 903 420 969 q 377 794 420 838 q 267 750 333 750 z "},"ȷ":{"ha":507,"x_min":-228,"x_max":410,"o":"m 19 -361 q -103 -339 -47 -361 q -194 -275 -160 -316 q -228 -182 -228 -235 q -185 -82 -228 -124 q -79 -40 -142 -40 q -8 -59 -41 -40 q 47 -108 26 -77 q 67 -178 67 -140 q 28 -272 67 -235 q -76 -309 -10 -309 q -151 -289 -117 -309 q -206 -239 -185 -269 q -226 -182 -226 -210 l -223 -182 q -190 -272 -223 -233 q -104 -333 -156 -311 q 5 -355 -51 -355 q 86 -320 57 -355 q 128 -228 115 -285 q 144 -103 141 -171 q 147 31 147 -35 l 147 634 l 22 634 l 22 639 l 410 639 l 410 -16 q 375 -146 410 -84 q 283 -257 340 -208 q 156 -333 225 -305 q 19 -361 88 -361 z "},"ĵ":{"ha":507,"x_min":-228,"x_max":508,"o":"m 19 -361 q -103 -339 -47 -361 q -194 -275 -160 -316 q -228 -182 -228 -235 q -185 -82 -228 -124 q -79 -40 -142 -40 q -8 -59 -41 -40 q 47 -108 26 -77 q 67 -178 67 -140 q 28 -272 67 -235 q -76 -309 -10 -309 q -151 -289 -117 -309 q -206 -239 -185 -269 q -226 -182 -226 -210 l -223 -182 q -190 -272 -223 -233 q -104 -333 -156 -311 q 5 -355 -51 -355 q 86 -320 57 -355 q 128 -228 115 -285 q 144 -103 141 -171 q 147 31 147 -35 l 147 634 l 22 634 l 22 639 l 410 639 l 410 -16 q 375 -146 410 -84 q 283 -257 340 -208 q 156 -333 225 -305 q 19 -361 88 -361 m 3 785 l 1 788 l 181 1010 l 327 1010 l 508 788 l 505 785 l 253 878 l 3 785 z "},"k":{"ha":953,"x_min":14,"x_max":953,"o":"m 14 0 l 14 5 l 139 5 l 139 1037 l 14 1037 l 14 1042 l 403 1042 l 403 5 l 458 5 l 458 0 l 14 0 m 499 0 l 499 5 l 573 5 l 336 376 l 735 634 l 554 634 l 554 639 l 864 639 l 864 634 l 742 634 l 538 501 l 897 5 l 953 5 l 953 0 l 499 0 z "},"ķ":{"ha":953,"x_min":14,"x_max":953,"o":"m 14 0 l 14 5 l 139 5 l 139 1037 l 14 1037 l 14 1042 l 403 1042 l 403 5 l 458 5 l 458 0 l 14 0 m 499 0 l 499 5 l 573 5 l 336 376 l 735 634 l 554 634 l 554 639 l 864 639 l 864 634 l 742 634 l 538 501 l 897 5 l 953 5 l 953 0 l 499 0 m 331 -553 l 331 -549 q 486 -514 417 -549 q 590 -411 556 -478 q 608 -247 625 -344 l 610 -247 q 588 -320 610 -287 q 533 -372 566 -353 q 465 -391 500 -391 q 368 -351 403 -391 q 333 -259 333 -311 q 353 -193 333 -224 q 405 -145 372 -163 q 474 -126 437 -126 q 575 -173 532 -126 q 619 -298 619 -220 q 583 -433 619 -376 q 482 -522 547 -490 q 331 -553 417 -553 z "},"ĸ":{"ha":966,"x_min":21,"x_max":960,"o":"m 583 0 l 343 376 l 749 639 l 756 639 l 545 501 l 907 0 l 583 0 m 21 0 l 21 5 l 465 5 l 465 0 l 21 0 m 146 0 l 146 634 l 21 634 l 21 639 l 410 639 l 410 0 l 146 0 m 506 0 l 506 5 l 960 5 l 960 0 l 506 0 m 561 634 l 561 639 l 871 639 l 871 634 l 561 634 z "},"l":{"ha":542,"x_min":14,"x_max":528,"o":"m 403 1042 l 403 5 l 528 5 l 528 0 l 14 0 l 14 5 l 139 5 l 139 1037 l 14 1037 l 14 1042 l 403 1042 z "},"ĺ":{"ha":542,"x_min":14,"x_max":528,"o":"m 403 1042 l 403 5 l 528 5 l 528 0 l 14 0 l 14 5 l 139 5 l 139 1037 l 14 1037 l 14 1042 l 403 1042 m 189 1166 l 187 1169 l 283 1358 q 352 1425 310 1410 q 436 1428 395 1440 q 495 1390 476 1417 q 513 1313 518 1356 q 477 1235 508 1269 q 391 1193 447 1201 l 189 1166 z "},"ľ":{"ha":542,"x_min":14,"x_max":748,"o":"m 403 1042 l 403 5 l 528 5 l 528 0 l 14 0 l 14 5 l 139 5 l 139 1037 l 14 1037 l 14 1042 l 403 1042 m 490 675 l 490 678 q 597 696 547 678 q 682 748 647 714 q 732 833 717 783 q 736 948 747 883 l 738 948 q 718 883 738 912 q 669 836 699 853 q 608 819 640 819 q 523 855 554 819 q 492 937 492 890 q 529 1019 492 984 q 617 1055 567 1055 q 707 1013 668 1055 q 746 902 746 971 q 714 782 746 833 q 624 703 682 731 q 490 675 567 675 z "},"ļ":{"ha":542,"x_min":14,"x_max":528,"o":"m 403 1042 l 403 5 l 528 5 l 528 0 l 14 0 l 14 5 l 139 5 l 139 1037 l 14 1037 l 14 1042 l 403 1042 m 137 -553 l 137 -549 q 292 -514 223 -549 q 396 -411 361 -478 q 414 -247 431 -344 l 415 -247 q 393 -320 415 -287 q 339 -372 372 -353 q 270 -391 306 -391 q 174 -351 209 -391 q 139 -259 139 -311 q 158 -193 139 -224 q 210 -145 178 -163 q 280 -126 242 -126 q 381 -173 338 -126 q 424 -298 424 -220 q 388 -433 424 -376 q 288 -522 352 -490 q 137 -553 223 -553 z "},"ŀ":{"ha":735,"x_min":14,"x_max":811,"o":"m 403 1042 l 403 5 l 528 5 l 528 0 l 14 0 l 14 5 l 139 5 l 139 1037 l 14 1037 l 14 1042 l 403 1042 z "},"ł":{"ha":542,"x_min":14,"x_max":549,"o":"m 14 494 l 14 500 l 549 806 l 549 800 l 14 494 m 403 1042 l 403 5 l 528 5 l 528 0 l 14 0 l 14 5 l 139 5 l 139 1037 l 14 1037 l 14 1042 l 403 1042 z "},"m":{"ha":1278,"x_min":14,"x_max":1264,"o":"m 375 639 l 375 5 l 424 5 l 424 0 l 14 0 l 14 5 l 111 5 l 111 634 l 14 634 l 14 639 l 375 639 m 771 443 l 771 5 l 819 5 l 819 0 l 458 0 l 458 5 l 507 5 l 507 453 q 501 540 507 512 q 484 576 494 567 q 461 585 474 585 q 426 563 442 585 q 399 502 410 540 q 381 415 388 464 q 375 310 375 365 l 371 310 q 377 423 371 363 q 405 535 384 483 q 470 620 426 587 q 588 653 513 653 q 695 626 655 653 q 753 551 735 599 q 771 443 771 503 m 1167 443 l 1167 5 l 1264 5 l 1264 0 l 854 0 l 854 5 l 903 5 l 903 453 q 897 540 903 512 q 880 576 890 567 q 857 585 869 585 q 822 563 838 585 q 795 502 806 540 q 777 415 783 464 q 771 310 771 365 l 767 310 q 774 423 767 363 q 801 535 780 483 q 865 620 822 587 q 983 653 909 653 q 1091 626 1051 653 q 1149 551 1131 599 q 1167 443 1167 503 z "},"n":{"ha":910,"x_min":14,"x_max":896,"o":"m 375 639 l 375 5 l 431 5 l 431 0 l 14 0 l 14 5 l 111 5 l 111 634 l 14 634 l 14 639 l 375 639 m 799 443 l 799 5 l 896 5 l 896 0 l 479 0 l 479 5 l 535 5 l 535 453 q 530 540 535 512 q 515 576 526 567 q 485 584 504 584 q 436 559 456 584 q 402 494 415 535 q 382 406 388 454 q 375 310 375 357 l 371 310 q 379 423 371 363 q 411 535 388 483 q 481 620 435 587 q 601 653 527 653 q 719 626 676 653 q 780 551 762 599 q 799 443 799 503 z "},"ń":{"ha":910,"x_min":14,"x_max":896,"o":"m 375 639 l 375 5 l 431 5 l 431 0 l 14 0 l 14 5 l 111 5 l 111 634 l 14 634 l 14 639 l 375 639 m 799 443 l 799 5 l 896 5 l 896 0 l 479 0 l 479 5 l 535 5 l 535 453 q 530 540 535 512 q 515 576 526 567 q 485 584 504 584 q 436 559 456 584 q 402 494 415 535 q 382 406 388 454 q 375 310 375 357 l 371 310 q 379 423 371 363 q 411 535 388 483 q 481 620 435 587 q 601 653 527 653 q 719 626 676 653 q 780 551 762 599 q 799 443 799 503 m 371 763 l 369 767 l 465 956 q 534 1022 492 1007 q 618 1025 577 1037 q 677 987 658 1014 q 695 910 700 953 q 659 832 690 867 q 573 790 628 798 l 371 763 z "},"ŉ":{"ha":1172,"x_min":11,"x_max":1146,"o":"m 625 639 l 625 5 l 681 5 l 681 0 l 264 0 l 264 5 l 361 5 l 361 634 l 264 634 l 264 639 l 625 639 m 1049 443 l 1049 5 l 1146 5 l 1146 0 l 729 0 l 729 5 l 785 5 l 785 453 q 780 540 785 512 q 765 576 776 567 q 735 584 754 584 q 686 559 706 584 q 652 494 665 535 q 632 406 638 454 q 625 310 625 357 l 621 310 q 629 423 621 363 q 661 535 638 483 q 731 620 685 587 q 851 653 777 653 q 969 626 926 653 q 1030 551 1012 599 q 1049 443 1049 503 m 11 644 l 11 649 q 162 674 92 649 q 281 748 231 699 q 351 866 330 796 q 357 1028 372 936 l 359 1028 q 332 936 359 976 q 264 871 306 895 q 178 847 222 847 q 58 897 102 847 q 14 1013 14 947 q 38 1094 14 1056 q 103 1155 63 1132 q 190 1178 143 1178 q 280 1151 238 1178 q 346 1076 321 1124 q 371 964 371 1028 q 326 795 371 867 q 200 684 281 723 q 11 644 119 644 z "},"ň":{"ha":910,"x_min":14,"x_max":896,"o":"m 375 639 l 375 5 l 431 5 l 431 0 l 14 0 l 14 5 l 111 5 l 111 634 l 14 634 l 14 639 l 375 639 m 799 443 l 799 5 l 896 5 l 896 0 l 479 0 l 479 5 l 535 5 l 535 453 q 530 540 535 512 q 515 576 526 567 q 485 584 504 584 q 436 559 456 584 q 402 494 415 535 q 382 406 388 454 q 375 310 375 357 l 371 310 q 379 423 371 363 q 411 535 388 483 q 481 620 435 587 q 601 653 527 653 q 719 626 676 653 q 780 551 762 599 q 799 443 799 503 m 383 778 l 203 1000 l 206 1003 l 457 910 l 707 1003 l 710 1000 l 529 778 l 383 778 z "},"ņ":{"ha":910,"x_min":14,"x_max":896,"o":"m 375 639 l 375 5 l 431 5 l 431 0 l 14 0 l 14 5 l 111 5 l 111 634 l 14 634 l 14 639 l 375 639 m 799 443 l 799 5 l 896 5 l 896 0 l 479 0 l 479 5 l 535 5 l 535 453 q 530 540 535 512 q 515 576 526 567 q 485 584 504 584 q 436 559 456 584 q 402 494 415 535 q 382 406 388 454 q 375 310 375 357 l 371 310 q 379 423 371 363 q 411 535 388 483 q 481 620 435 587 q 601 653 527 653 q 719 626 676 653 q 780 551 762 599 q 799 443 799 503 m 324 -553 l 324 -549 q 480 -514 410 -549 q 583 -411 549 -478 q 601 -247 618 -344 l 603 -247 q 581 -320 603 -287 q 526 -372 559 -353 q 458 -391 493 -391 q 361 -351 397 -391 q 326 -259 326 -311 q 346 -193 326 -224 q 398 -145 365 -163 q 467 -126 430 -126 q 568 -173 525 -126 q 612 -298 612 -220 q 576 -433 612 -376 q 475 -522 540 -490 q 324 -553 410 -553 z "},"ŋ":{"ha":894,"x_min":22,"x_max":807,"o":"m 415 -361 q 292 -339 349 -361 q 202 -275 236 -316 q 168 -182 168 -235 q 211 -82 168 -124 q 317 -40 253 -40 q 388 -59 355 -40 q 442 -108 422 -77 q 463 -178 463 -140 q 424 -272 463 -235 q 319 -309 385 -309 q 244 -289 278 -309 q 190 -239 210 -269 q 169 -182 169 -210 l 173 -182 q 206 -273 173 -233 q 295 -334 240 -312 q 415 -356 350 -356 q 493 -322 467 -356 q 531 -231 520 -287 q 542 -106 542 -174 q 543 28 543 -38 l 543 418 l 807 444 l 806 -16 q 771 -145 806 -83 q 678 -256 736 -208 q 552 -333 621 -305 q 415 -361 483 -361 m 22 0 l 22 5 l 480 5 l 480 0 l 22 0 m 119 0 l 119 634 l 22 634 l 22 639 l 384 639 l 384 0 l 119 0 m 380 313 q 386 414 380 356 q 415 525 393 471 q 482 616 438 580 q 601 652 526 652 q 725 625 681 652 q 789 551 770 599 q 807 444 807 504 l 543 418 q 540 519 543 483 q 526 569 537 555 q 492 584 515 584 q 448 563 468 584 q 413 505 427 542 q 391 418 399 467 q 384 313 384 369 l 380 313 z "},"ñ":{"ha":910,"x_min":14,"x_max":896,"o":"m 375 639 l 375 5 l 431 5 l 431 0 l 14 0 l 14 5 l 111 5 l 111 634 l 14 634 l 14 639 l 375 639 m 799 443 l 799 5 l 896 5 l 896 0 l 479 0 l 479 5 l 535 5 l 535 453 q 530 540 535 512 q 515 576 526 567 q 485 584 504 584 q 436 559 456 584 q 402 494 415 535 q 382 406 388 454 q 375 310 375 357 l 371 310 q 379 423 371 363 q 411 535 388 483 q 481 620 435 587 q 601 653 527 653 q 719 626 676 653 q 780 551 762 599 q 799 443 799 503 m 569 736 q 492 753 524 736 q 431 791 459 769 q 372 829 403 813 q 298 846 341 846 q 234 823 254 846 q 215 778 215 801 l 210 778 q 221 890 210 837 q 263 976 233 943 q 347 1010 292 1010 q 426 993 394 1010 q 484 955 458 976 q 538 917 510 933 q 605 900 565 900 q 668 923 649 900 q 688 968 688 945 l 693 968 q 688 850 693 902 q 657 767 683 797 q 569 736 631 736 z "},"o":{"ha":789,"x_min":35,"x_max":754,"o":"m 394 -14 q 202 32 283 -14 q 78 153 122 78 q 35 319 35 229 q 78 485 35 410 q 202 607 122 561 q 394 653 283 653 q 587 607 506 653 q 711 485 667 561 q 754 319 754 410 q 711 153 754 229 q 587 32 667 78 q 394 -14 506 -14 m 394 -9 q 431 14 415 -9 q 459 80 448 37 q 477 184 471 124 q 483 319 483 244 q 477 455 483 394 q 459 559 471 515 q 431 625 448 602 q 394 648 415 648 q 358 625 374 648 q 330 559 342 602 q 312 455 318 515 q 306 319 306 394 q 312 184 306 244 q 330 80 318 124 q 358 14 342 37 q 394 -9 374 -9 z "},"ó":{"ha":789,"x_min":35,"x_max":754,"o":"m 394 -14 q 202 32 283 -14 q 78 153 122 78 q 35 319 35 229 q 78 485 35 410 q 202 607 122 561 q 394 653 283 653 q 587 607 506 653 q 711 485 667 561 q 754 319 754 410 q 711 153 754 229 q 587 32 667 78 q 394 -14 506 -14 m 394 -9 q 431 14 415 -9 q 459 80 448 37 q 477 184 471 124 q 483 319 483 244 q 477 455 483 394 q 459 559 471 515 q 431 625 448 602 q 394 648 415 648 q 358 625 374 648 q 330 559 342 602 q 312 455 318 515 q 306 319 306 394 q 312 184 306 244 q 330 80 318 124 q 358 14 342 37 q 394 -9 374 -9 m 310 763 l 308 767 l 404 956 q 473 1022 431 1007 q 557 1025 516 1037 q 616 987 597 1014 q 634 910 639 953 q 598 832 629 867 q 512 790 567 798 l 310 763 z "},"ŏ":{"ha":789,"x_min":35,"x_max":754,"o":"m 394 -14 q 202 32 283 -14 q 78 153 122 78 q 35 319 35 229 q 78 485 35 410 q 202 607 122 561 q 394 653 283 653 q 587 607 506 653 q 711 485 667 561 q 754 319 754 410 q 711 153 754 229 q 587 32 667 78 q 394 -14 506 -14 m 394 -9 q 431 14 415 -9 q 459 80 448 37 q 477 184 471 124 q 483 319 483 244 q 477 455 483 394 q 459 559 471 515 q 431 625 448 602 q 394 648 415 648 q 358 625 374 648 q 330 559 342 602 q 312 455 318 515 q 306 319 306 394 q 312 184 306 244 q 330 80 318 124 q 358 14 342 37 q 394 -9 374 -9 m 394 764 q 298 792 339 764 q 236 877 258 819 q 214 1026 214 935 l 219 1026 q 247 980 219 996 q 316 957 276 963 q 394 951 357 951 q 473 957 432 951 q 542 980 513 963 q 570 1026 570 996 l 575 1026 q 553 877 575 935 q 491 792 531 819 q 394 764 450 764 z "},"ô":{"ha":789,"x_min":35,"x_max":754,"o":"m 394 -14 q 202 32 283 -14 q 78 153 122 78 q 35 319 35 229 q 78 485 35 410 q 202 607 122 561 q 394 653 283 653 q 587 607 506 653 q 711 485 667 561 q 754 319 754 410 q 711 153 754 229 q 587 32 667 78 q 394 -14 506 -14 m 394 -9 q 431 14 415 -9 q 459 80 448 37 q 477 184 471 124 q 483 319 483 244 q 477 455 483 394 q 459 559 471 515 q 431 625 448 602 q 394 648 415 648 q 358 625 374 648 q 330 559 342 602 q 312 455 318 515 q 306 319 306 394 q 312 184 306 244 q 330 80 318 124 q 358 14 342 37 q 394 -9 374 -9 m 144 785 l 142 788 l 322 1010 l 468 1010 l 649 788 l 646 785 l 394 878 l 144 785 z "},"ö":{"ha":789,"x_min":35,"x_max":754,"o":"m 394 -14 q 202 32 283 -14 q 78 153 122 78 q 35 319 35 229 q 78 485 35 410 q 202 607 122 561 q 394 653 283 653 q 587 607 506 653 q 711 485 667 561 q 754 319 754 410 q 711 153 754 229 q 587 32 667 78 q 394 -14 506 -14 m 394 -9 q 431 14 415 -9 q 459 80 448 37 q 477 184 471 124 q 483 319 483 244 q 477 455 483 394 q 459 559 471 515 q 431 625 448 602 q 394 648 415 648 q 358 625 374 648 q 330 559 342 602 q 312 455 318 515 q 306 319 306 394 q 312 184 306 244 q 330 80 318 124 q 358 14 342 37 q 394 -9 374 -9 m 543 764 q 477 791 505 764 q 450 857 450 819 q 477 923 450 896 q 544 951 505 951 q 609 923 582 951 q 637 857 637 896 q 609 791 637 819 q 543 764 582 764 m 246 764 q 180 791 208 764 q 153 857 153 819 q 180 923 153 896 q 247 951 208 951 q 312 923 285 951 q 340 857 340 896 q 312 791 340 819 q 246 764 285 764 z "},"ò":{"ha":789,"x_min":35,"x_max":754,"o":"m 394 -14 q 202 32 283 -14 q 78 153 122 78 q 35 319 35 229 q 78 485 35 410 q 202 607 122 561 q 394 653 283 653 q 587 607 506 653 q 711 485 667 561 q 754 319 754 410 q 711 153 754 229 q 587 32 667 78 q 394 -14 506 -14 m 394 -9 q 431 14 415 -9 q 459 80 448 37 q 477 184 471 124 q 483 319 483 244 q 477 455 483 394 q 459 559 471 515 q 431 625 448 602 q 394 648 415 648 q 358 625 374 648 q 330 559 342 602 q 312 455 318 515 q 306 319 306 394 q 312 184 306 244 q 330 80 318 124 q 358 14 342 37 q 394 -9 374 -9 m 478 763 l 276 790 q 189 832 220 798 q 153 910 158 867 q 172 987 149 953 q 231 1025 190 1014 q 314 1022 271 1037 q 383 956 357 1007 l 480 767 l 478 763 z "},"ő":{"ha":789,"x_min":35,"x_max":811,"o":"m 394 -14 q 202 32 283 -14 q 78 153 122 78 q 35 319 35 229 q 78 485 35 410 q 202 607 122 561 q 394 653 283 653 q 587 607 506 653 q 711 485 667 561 q 754 319 754 410 q 711 153 754 229 q 587 32 667 78 q 394 -14 506 -14 m 394 -9 q 431 14 415 -9 q 459 80 448 37 q 477 184 471 124 q 483 319 483 244 q 477 455 483 394 q 459 559 471 515 q 431 625 448 602 q 394 648 415 648 q 358 625 374 648 q 330 559 342 602 q 312 455 318 515 q 306 319 306 394 q 312 184 306 244 q 330 80 318 124 q 358 14 342 37 q 394 -9 374 -9 m 127 762 l 125 765 l 222 954 q 291 1020 248 1006 q 374 1024 334 1035 q 433 985 415 1013 q 451 909 456 952 q 416 831 447 865 q 329 789 385 797 l 127 762 m 481 762 l 479 765 l 576 954 q 645 1020 602 1006 q 728 1024 688 1035 q 788 985 769 1013 q 806 909 810 952 q 770 831 801 865 q 683 789 739 797 l 481 762 z "},"ō":{"ha":789,"x_min":35,"x_max":754,"o":"m 394 -14 q 202 32 283 -14 q 78 153 122 78 q 35 319 35 229 q 78 485 35 410 q 202 607 122 561 q 394 653 283 653 q 587 607 506 653 q 711 485 667 561 q 754 319 754 410 q 711 153 754 229 q 587 32 667 78 q 394 -14 506 -14 m 394 -9 q 431 14 415 -9 q 459 80 448 37 q 477 184 471 124 q 483 319 483 244 q 477 455 483 394 q 459 559 471 515 q 431 625 448 602 q 394 648 415 648 q 358 625 374 648 q 330 559 342 602 q 312 455 318 515 q 306 319 306 394 q 312 184 306 244 q 330 80 318 124 q 358 14 342 37 q 394 -9 374 -9 m 228 778 l 228 783 l 561 783 l 561 778 l 228 778 z "},"ø":{"ha":789,"x_min":35,"x_max":754,"o":"m 83 -171 l 690 804 l 696 804 l 88 -171 l 83 -171 m 394 -14 q 202 32 283 -14 q 78 153 122 78 q 35 319 35 229 q 78 485 35 410 q 202 607 122 561 q 394 653 283 653 q 587 607 506 653 q 711 485 667 561 q 754 319 754 410 q 711 153 754 229 q 587 32 667 78 q 394 -14 506 -14 m 394 -9 q 431 14 415 -9 q 459 80 448 37 q 477 184 471 124 q 483 319 483 244 q 477 455 483 394 q 459 559 471 515 q 431 625 448 602 q 394 648 415 648 q 358 625 374 648 q 330 559 342 602 q 312 455 318 515 q 306 319 306 394 q 312 184 306 244 q 330 80 318 124 q 358 14 342 37 q 394 -9 374 -9 z "},"õ":{"ha":789,"x_min":35,"x_max":754,"o":"m 394 -14 q 202 32 283 -14 q 78 153 122 78 q 35 319 35 229 q 78 485 35 410 q 202 607 122 561 q 394 653 283 653 q 587 607 506 653 q 711 485 667 561 q 754 319 754 410 q 711 153 754 229 q 587 32 667 78 q 394 -14 506 -14 m 394 -9 q 431 14 415 -9 q 459 80 448 37 q 477 184 471 124 q 483 319 483 244 q 477 455 483 394 q 459 559 471 515 q 431 625 448 602 q 394 648 415 648 q 358 625 374 648 q 330 559 342 602 q 312 455 318 515 q 306 319 306 394 q 312 184 306 244 q 330 80 318 124 q 358 14 342 37 q 394 -9 374 -9 m 508 736 q 431 753 463 736 q 370 791 398 769 q 311 829 342 813 q 237 846 280 846 q 173 823 193 846 q 153 778 153 801 l 149 778 q 160 890 149 837 q 201 976 172 943 q 286 1010 231 1010 q 365 993 333 1010 q 423 955 397 976 q 476 917 449 933 q 544 900 504 900 q 607 923 588 900 q 627 968 627 945 l 632 968 q 627 850 632 902 q 596 767 622 797 q 508 736 570 736 z "},"œ":{"ha":1199,"x_min":35,"x_max":1164,"o":"m 394 -14 q 202 32 283 -14 q 78 153 122 78 q 35 319 35 229 q 78 485 35 410 q 202 607 122 561 q 394 653 283 653 q 587 607 506 653 q 711 485 667 561 q 754 319 754 410 q 711 153 754 229 q 587 32 667 78 q 394 -14 506 -14 m 394 -9 q 431 14 415 -9 q 459 80 448 37 q 477 184 471 124 q 483 319 483 244 q 477 455 483 394 q 459 559 471 515 q 431 625 448 602 q 394 648 415 648 q 358 625 374 648 q 330 559 342 602 q 312 455 318 515 q 306 319 306 394 q 312 184 306 244 q 330 80 318 124 q 358 14 342 37 q 394 -9 374 -9 m 844 -14 q 659 23 740 -14 q 532 134 578 60 q 486 319 486 208 q 531 505 486 431 q 656 616 576 578 q 840 653 735 653 q 1016 611 944 653 q 1125 503 1088 570 q 1163 360 1163 436 l 579 360 l 579 365 l 897 365 q 895 466 897 417 q 889 557 894 516 q 872 623 883 599 q 840 648 860 648 q 807 624 820 648 q 785 557 793 599 q 775 461 778 515 q 772 347 772 407 q 777 209 772 272 q 796 100 782 146 q 836 28 810 53 q 903 2 862 2 q 1064 57 994 2 q 1159 199 1133 111 l 1164 199 q 1059 47 1137 108 q 844 -14 981 -14 z "},"p":{"ha":921,"x_min":14,"x_max":886,"o":"m 14 -347 l 14 -342 l 111 -342 l 111 634 l 14 634 l 14 639 l 375 639 l 375 393 q 442 584 388 517 q 592 651 497 651 q 735 612 667 651 q 844 498 802 572 q 886 319 886 424 q 844 141 886 215 q 735 26 802 66 q 592 -14 667 -14 q 443 54 498 -14 q 375 247 388 122 l 375 -342 l 472 -342 l 472 -347 l 14 -347 m 528 11 q 565 44 552 11 q 583 144 578 76 q 588 319 588 213 q 583 494 588 426 q 565 594 578 562 q 528 626 552 626 q 459 594 494 626 q 399 493 423 561 q 375 319 375 425 q 399 145 375 214 q 459 44 423 77 q 528 11 494 11 z "},"þ":{"ha":934,"x_min":21,"x_max":893,"o":"m 21 -347 l 21 -342 l 118 -342 l 118 1037 l 21 1037 l 21 1042 l 382 1042 l 382 393 q 449 584 394 517 q 599 651 503 651 q 742 612 674 651 q 851 498 809 572 q 893 319 893 424 q 851 141 893 215 q 742 26 809 66 q 599 -14 674 -14 q 449 54 504 -14 q 382 247 394 122 l 382 -342 l 479 -342 l 479 -347 l 21 -347 m 535 11 q 572 44 559 11 q 589 144 584 76 q 594 319 594 213 q 589 494 594 426 q 572 594 584 562 q 535 626 559 626 q 465 594 501 626 q 406 493 430 561 q 382 319 382 425 q 406 145 382 214 q 465 44 430 77 q 535 11 501 11 z "},"q":{"ha":921,"x_min":35,"x_max":907,"o":"m 449 -347 l 449 -342 l 546 -342 l 546 244 q 480 53 534 120 q 329 -14 425 -14 q 186 26 253 -14 q 77 140 119 65 q 35 318 35 214 q 77 497 35 422 q 186 611 119 572 q 329 651 253 651 q 479 584 424 651 q 546 391 534 516 l 546 639 l 907 639 l 907 634 l 810 634 l 810 -342 l 907 -342 l 907 -347 l 449 -347 m 393 11 q 463 44 427 11 q 522 144 499 76 q 546 318 546 213 q 522 492 546 424 q 463 593 499 560 q 393 626 427 626 q 357 594 369 626 q 339 493 344 561 q 333 318 333 425 q 339 143 333 211 q 357 43 344 76 q 393 11 369 11 z "},"r":{"ha":763,"x_min":14,"x_max":746,"o":"m 372 302 q 381 445 372 381 q 414 556 391 509 q 475 627 437 602 q 572 653 514 653 q 667 626 628 653 q 726 557 706 599 q 746 471 746 515 q 704 363 746 410 q 596 317 662 317 q 488 359 531 317 q 445 459 445 402 q 485 565 445 521 q 594 609 525 609 q 672 589 638 609 q 725 537 706 569 q 744 471 744 506 l 741 471 q 722 554 741 513 q 665 622 702 595 q 572 648 627 648 q 477 623 515 648 q 417 551 440 597 q 385 442 394 505 q 375 302 375 378 l 372 302 m 375 639 l 375 5 l 496 5 l 496 0 l 14 0 l 14 5 l 111 5 l 111 634 l 14 634 l 14 639 l 375 639 z "},"ŕ":{"ha":763,"x_min":14,"x_max":746,"o":"m 372 302 q 381 445 372 381 q 414 556 391 509 q 475 627 437 602 q 572 653 514 653 q 667 626 628 653 q 726 557 706 599 q 746 471 746 515 q 704 363 746 410 q 596 317 662 317 q 488 359 531 317 q 445 459 445 402 q 485 565 445 521 q 594 609 525 609 q 672 589 638 609 q 725 537 706 569 q 744 471 744 506 l 741 471 q 722 554 741 513 q 665 622 702 595 q 572 648 627 648 q 477 623 515 648 q 417 551 440 597 q 385 442 394 505 q 375 302 375 378 l 372 302 m 375 639 l 375 5 l 496 5 l 496 0 l 14 0 l 14 5 l 111 5 l 111 634 l 14 634 l 14 639 l 375 639 m 329 763 l 327 767 l 424 956 q 493 1022 450 1007 q 576 1025 535 1037 q 635 987 617 1014 q 653 910 658 953 q 618 832 649 867 q 531 790 587 798 l 329 763 z "},"ř":{"ha":763,"x_min":14,"x_max":746,"o":"m 372 302 q 381 445 372 381 q 414 556 391 509 q 475 627 437 602 q 572 653 514 653 q 667 626 628 653 q 726 557 706 599 q 746 471 746 515 q 704 363 746 410 q 596 317 662 317 q 488 359 531 317 q 445 459 445 402 q 485 565 445 521 q 594 609 525 609 q 672 589 638 609 q 725 537 706 569 q 744 471 744 506 l 741 471 q 722 554 741 513 q 665 622 702 595 q 572 648 627 648 q 477 623 515 648 q 417 551 440 597 q 385 442 394 505 q 375 302 375 378 l 372 302 m 375 639 l 375 5 l 496 5 l 496 0 l 14 0 l 14 5 l 111 5 l 111 634 l 14 634 l 14 639 l 375 639 m 342 778 l 161 1000 l 164 1003 l 415 910 l 665 1003 l 668 1000 l 488 778 l 342 778 z "},"ŗ":{"ha":763,"x_min":14,"x_max":746,"o":"m 372 302 q 381 445 372 381 q 414 556 391 509 q 475 627 437 602 q 572 653 514 653 q 667 626 628 653 q 726 557 706 599 q 746 471 746 515 q 704 363 746 410 q 596 317 662 317 q 488 359 531 317 q 445 459 445 402 q 485 565 445 521 q 594 609 525 609 q 672 589 638 609 q 725 537 706 569 q 744 471 744 506 l 741 471 q 722 554 741 513 q 665 622 702 595 q 572 648 627 648 q 477 623 515 648 q 417 551 440 597 q 385 442 394 505 q 375 302 375 378 l 372 302 m 375 639 l 375 5 l 496 5 l 496 0 l 14 0 l 14 5 l 111 5 l 111 634 l 14 634 l 14 639 l 375 639 m 116 -553 l 116 -549 q 271 -514 202 -549 q 375 -411 340 -478 q 393 -247 410 -344 l 394 -247 q 373 -320 394 -287 q 318 -372 351 -353 q 249 -391 285 -391 q 153 -351 188 -391 q 118 -259 118 -311 q 138 -193 118 -224 q 189 -145 157 -163 q 259 -126 222 -126 q 360 -173 317 -126 q 403 -298 403 -220 q 367 -433 403 -376 q 267 -522 331 -490 q 116 -553 202 -553 z "},"ȓ":{"ha":763,"x_min":14,"x_max":746,"o":"m 372 302 q 381 445 372 381 q 414 556 391 509 q 475 627 437 602 q 572 653 514 653 q 667 626 628 653 q 726 557 706 599 q 746 471 746 515 q 704 363 746 410 q 596 317 662 317 q 488 359 531 317 q 445 459 445 402 q 485 565 445 521 q 594 609 525 609 q 672 589 638 609 q 725 537 706 569 q 744 471 744 506 l 741 471 q 722 554 741 513 q 665 622 702 595 q 572 648 627 648 q 477 623 515 648 q 417 551 440 597 q 385 442 394 505 q 375 302 375 378 l 372 302 m 375 639 l 375 5 l 496 5 l 496 0 l 14 0 l 14 5 l 111 5 l 111 634 l 14 634 l 14 639 l 375 639 m 235 765 q 257 914 235 856 q 320 999 279 972 q 416 1027 360 1027 q 512 999 472 1027 q 575 914 553 972 q 597 765 597 856 l 592 765 q 563 811 592 795 q 494 834 535 828 q 416 840 453 840 q 338 834 378 840 q 269 811 297 828 q 240 765 240 795 l 235 765 z "},"s":{"ha":639,"x_min":49,"x_max":612,"o":"m 49 -14 l 49 222 l 53 222 q 128 95 86 147 q 223 17 169 43 q 346 -9 276 -9 q 424 3 394 -9 q 467 36 453 16 q 481 77 481 56 q 451 131 481 111 q 372 166 420 151 q 270 200 324 182 q 168 246 216 218 q 89 320 119 274 q 58 438 58 366 q 90 551 58 503 q 175 625 122 599 q 294 651 229 651 q 380 636 342 651 q 449 597 418 621 l 554 653 l 559 653 l 559 458 l 554 458 q 481 554 517 512 q 401 622 445 597 q 295 647 356 647 q 231 635 256 647 q 194 606 206 624 q 182 569 182 588 q 213 514 182 535 q 293 476 244 492 q 397 442 342 460 q 500 396 451 424 q 581 324 549 368 q 612 211 612 280 q 570 79 612 128 q 468 8 529 30 q 346 -14 406 -14 q 242 4 289 -14 q 158 55 196 22 l 53 -14 l 49 -14 z "},"ś":{"ha":639,"x_min":49,"x_max":612,"o":"m 49 -14 l 49 222 l 53 222 q 128 95 86 147 q 223 17 169 43 q 346 -9 276 -9 q 424 3 394 -9 q 467 36 453 16 q 481 77 481 56 q 451 131 481 111 q 372 166 420 151 q 270 200 324 182 q 168 246 216 218 q 89 320 119 274 q 58 438 58 366 q 90 551 58 503 q 175 625 122 599 q 294 651 229 651 q 380 636 342 651 q 449 597 418 621 l 554 653 l 559 653 l 559 458 l 554 458 q 481 554 517 512 q 401 622 445 597 q 295 647 356 647 q 231 635 256 647 q 194 606 206 624 q 182 569 182 588 q 213 514 182 535 q 293 476 244 492 q 397 442 342 460 q 500 396 451 424 q 581 324 549 368 q 612 211 612 280 q 570 79 612 128 q 468 8 529 30 q 346 -14 406 -14 q 242 4 289 -14 q 158 55 196 22 l 53 -14 l 49 -14 m 232 763 l 230 767 l 326 956 q 395 1022 353 1007 q 479 1025 438 1037 q 538 987 519 1014 q 556 910 561 953 q 520 832 551 867 q 434 790 490 798 l 232 763 z "},"š":{"ha":639,"x_min":49,"x_max":612,"o":"m 49 -14 l 49 222 l 53 222 q 128 95 86 147 q 223 17 169 43 q 346 -9 276 -9 q 424 3 394 -9 q 467 36 453 16 q 481 77 481 56 q 451 131 481 111 q 372 166 420 151 q 270 200 324 182 q 168 246 216 218 q 89 320 119 274 q 58 438 58 366 q 90 551 58 503 q 175 625 122 599 q 294 651 229 651 q 380 636 342 651 q 449 597 418 621 l 554 653 l 559 653 l 559 458 l 554 458 q 481 554 517 512 q 401 622 445 597 q 295 647 356 647 q 231 635 256 647 q 194 606 206 624 q 182 569 182 588 q 213 514 182 535 q 293 476 244 492 q 397 442 342 460 q 500 396 451 424 q 581 324 549 368 q 612 211 612 280 q 570 79 612 128 q 468 8 529 30 q 346 -14 406 -14 q 242 4 289 -14 q 158 55 196 22 l 53 -14 l 49 -14 m 244 778 l 64 1000 l 67 1003 l 318 910 l 568 1003 l 571 1000 l 390 778 l 244 778 z "},"ş":{"ha":639,"x_min":49,"x_max":612,"o":"m 49 -14 l 49 222 l 53 222 q 128 95 86 147 q 223 17 169 43 q 346 -9 276 -9 q 424 3 394 -9 q 467 36 453 16 q 481 77 481 56 q 451 131 481 111 q 372 166 420 151 q 270 200 324 182 q 168 246 216 218 q 89 320 119 274 q 58 438 58 366 q 90 551 58 503 q 175 625 122 599 q 294 651 229 651 q 380 636 342 651 q 449 597 418 621 l 554 653 l 559 653 l 559 458 l 554 458 q 481 554 517 512 q 401 622 445 597 q 295 647 356 647 q 231 635 256 647 q 194 606 206 624 q 182 569 182 588 q 213 514 182 535 q 293 476 244 492 q 397 442 342 460 q 500 396 451 424 q 581 324 549 368 q 612 211 612 280 q 570 79 612 128 q 468 8 529 30 q 346 -14 406 -14 q 242 4 289 -14 q 158 55 196 22 l 53 -14 l 49 -14 m 211 -367 l 211 -362 q 296 -332 273 -362 q 319 -256 319 -301 q 305 -201 319 -219 q 266 -177 290 -183 q 219 -172 243 -172 l 336 -12 l 343 -12 l 267 -116 q 410 -130 351 -118 q 499 -166 469 -142 q 529 -228 529 -190 q 502 -295 529 -263 q 406 -347 475 -327 q 211 -367 337 -367 z "},"ŝ":{"ha":639,"x_min":49,"x_max":612,"o":"m 49 -14 l 49 222 l 53 222 q 128 95 86 147 q 223 17 169 43 q 346 -9 276 -9 q 424 3 394 -9 q 467 36 453 16 q 481 77 481 56 q 451 131 481 111 q 372 166 420 151 q 270 200 324 182 q 168 246 216 218 q 89 320 119 274 q 58 438 58 366 q 90 551 58 503 q 175 625 122 599 q 294 651 229 651 q 380 636 342 651 q 449 597 418 621 l 554 653 l 559 653 l 559 458 l 554 458 q 481 554 517 512 q 401 622 445 597 q 295 647 356 647 q 231 635 256 647 q 194 606 206 624 q 182 569 182 588 q 213 514 182 535 q 293 476 244 492 q 397 442 342 460 q 500 396 451 424 q 581 324 549 368 q 612 211 612 280 q 570 79 612 128 q 468 8 529 30 q 346 -14 406 -14 q 242 4 289 -14 q 158 55 196 22 l 53 -14 l 49 -14 m 67 785 l 64 788 l 244 1010 l 390 1010 l 571 788 l 568 785 l 317 878 l 67 785 z "},"ș":{"ha":639,"x_min":49,"x_max":612,"o":"m 49 -14 l 49 222 l 53 222 q 128 95 86 147 q 223 17 169 43 q 346 -9 276 -9 q 424 3 394 -9 q 467 36 453 16 q 481 77 481 56 q 451 131 481 111 q 372 166 420 151 q 270 200 324 182 q 168 246 216 218 q 89 320 119 274 q 58 438 58 366 q 90 551 58 503 q 175 625 122 599 q 294 651 229 651 q 380 636 342 651 q 449 597 418 621 l 554 653 l 559 653 l 559 458 l 554 458 q 481 554 517 512 q 401 622 445 597 q 295 647 356 647 q 231 635 256 647 q 194 606 206 624 q 182 569 182 588 q 213 514 182 535 q 293 476 244 492 q 397 442 342 460 q 500 396 451 424 q 581 324 549 368 q 612 211 612 280 q 570 79 612 128 q 468 8 529 30 q 346 -14 406 -14 q 242 4 289 -14 q 158 55 196 22 l 53 -14 l 49 -14 m 215 -567 l 215 -562 q 370 -527 301 -562 q 474 -424 439 -492 q 492 -260 508 -357 l 493 -260 q 471 -333 493 -301 q 416 -385 449 -366 q 348 -404 383 -404 q 252 -364 287 -404 q 217 -272 217 -324 q 236 -207 217 -237 q 288 -158 256 -176 q 358 -140 320 -140 q 459 -186 415 -140 q 502 -311 502 -233 q 466 -446 502 -389 q 365 -535 430 -503 q 215 -567 301 -567 z "},"ß":{"ha":1195,"x_min":20,"x_max":1140,"o":"m 146 0 l 146 682 q 191 853 146 783 q 310 969 236 924 q 474 1035 385 1014 q 650 1056 563 1056 q 809 1039 730 1056 q 955 990 889 1022 q 1060 912 1020 958 q 1099 807 1099 866 q 1043 669 1099 724 q 885 589 988 615 q 643 563 783 563 l 643 566 q 719 589 690 566 q 764 647 748 611 q 786 721 780 682 q 792 794 792 760 q 785 876 792 831 q 760 960 778 920 q 713 1025 743 1000 q 636 1051 683 1051 q 532 1019 572 1051 q 473 933 493 988 q 445 811 452 879 q 438 668 438 742 l 438 0 l 146 0 m 20 0 l 20 5 l 521 5 l 521 0 l 20 0 m 786 -14 q 565 58 639 -14 q 490 251 490 129 q 533 359 490 315 q 639 404 576 404 q 740 363 697 404 q 783 264 783 322 q 762 190 783 221 q 707 142 740 158 q 635 125 673 125 q 569 142 602 125 q 515 188 537 159 q 492 251 492 216 l 495 251 q 530 108 495 162 q 615 29 565 53 q 710 4 665 4 q 775 25 751 4 q 813 80 800 47 q 829 151 825 113 q 833 222 833 189 q 828 330 833 272 q 806 441 824 388 q 749 527 788 493 q 643 560 710 560 l 643 564 q 862 542 769 564 q 1017 478 956 519 q 1110 381 1079 437 q 1140 257 1140 325 q 1109 135 1140 187 q 1026 51 1078 84 q 912 2 974 18 q 786 -14 849 -14 z "},"ſ":{"ha":584,"x_min":8,"x_max":744,"o":"m 532 1056 q 646 1027 599 1056 q 719 957 694 999 q 744 876 744 916 q 700 771 744 808 q 602 735 655 735 q 539 749 571 735 q 484 792 506 763 q 463 866 463 821 q 482 938 463 908 q 531 983 501 967 q 597 999 562 999 q 679 977 640 999 q 731 915 718 955 q 692 984 721 954 q 627 1031 664 1014 q 553 1049 590 1049 q 456 1011 494 1049 q 401 906 419 973 q 383 750 383 838 l 383 5 l 550 5 l 550 0 l 8 0 l 8 5 l 133 5 l 133 710 q 185 893 133 815 q 327 1013 238 970 q 532 1056 417 1056 z "},"t":{"ha":555,"x_min":0,"x_max":556,"o":"m 297 -10 q 177 10 219 -10 q 118 69 135 30 q 101 168 101 109 l 101 778 q 239 786 164 778 q 365 819 313 794 l 365 132 q 378 54 365 80 q 418 28 390 28 q 486 53 447 28 q 551 142 526 79 l 556 142 q 467 33 531 75 q 297 -10 403 -10 m 0 634 l 0 639 l 514 639 l 514 634 l 0 634 z "},"ŧ":{"ha":555,"x_min":0,"x_max":556,"o":"m 1 382 l 1 388 l 513 388 l 513 382 l 1 382 m 297 -10 q 177 10 219 -10 q 118 69 135 30 q 101 168 101 109 l 101 778 q 239 786 165 778 q 365 819 313 794 l 365 132 q 378 54 365 80 q 418 28 390 28 q 486 53 447 28 q 551 142 526 79 l 556 142 q 467 33 531 75 q 297 -10 403 -10 m 0 634 l 0 639 l 514 639 l 514 634 l 0 634 z "},"ť":{"ha":555,"x_min":0,"x_max":719,"o":"m 297 -10 q 177 10 219 -10 q 118 69 135 30 q 101 168 101 109 l 101 778 q 239 786 164 778 q 365 819 313 794 l 365 132 q 378 54 365 80 q 418 28 390 28 q 486 53 447 28 q 551 142 526 79 l 556 142 q 467 33 531 75 q 297 -10 403 -10 m 0 634 l 0 639 l 514 639 l 514 634 l 0 634 m 461 744 l 461 748 q 568 766 519 748 q 653 818 618 783 q 703 902 688 852 q 708 1017 719 953 l 709 1017 q 690 952 709 981 q 641 906 670 923 q 580 889 611 889 q 494 924 526 889 q 463 1006 463 960 q 501 1089 463 1053 q 589 1124 538 1124 q 678 1082 640 1124 q 717 972 717 1040 q 685 851 717 902 q 596 772 653 800 q 461 744 538 744 z "},"ţ":{"ha":555,"x_min":0,"x_max":556,"o":"m 297 -10 q 177 10 219 -10 q 118 69 135 30 q 101 168 101 109 l 101 778 q 239 786 164 778 q 365 819 313 794 l 365 132 q 378 54 365 80 q 418 28 390 28 q 486 53 447 28 q 551 142 526 79 l 556 142 q 467 33 531 75 q 297 -10 403 -10 m 0 634 l 0 639 l 514 639 l 514 634 l 0 634 m 163 -354 l 163 -349 q 248 -319 224 -349 q 271 -243 271 -288 q 256 -188 271 -206 q 218 -164 241 -170 q 170 -158 194 -158 l 288 1 l 294 1 l 219 -103 q 361 -117 303 -105 q 450 -152 420 -128 q 481 -215 481 -176 q 453 -282 481 -250 q 357 -334 426 -314 q 163 -354 288 -354 z "},"ț":{"ha":555,"x_min":0,"x_max":556,"o":"m 297 -10 q 177 10 219 -10 q 118 69 135 30 q 101 168 101 109 l 101 778 q 239 786 164 778 q 365 819 313 794 l 365 132 q 378 54 365 80 q 418 28 390 28 q 486 53 447 28 q 551 142 526 79 l 556 142 q 467 33 531 75 q 297 -10 403 -10 m 0 634 l 0 639 l 514 639 l 514 634 l 0 634 m 166 -553 l 166 -549 q 321 -514 252 -549 q 425 -411 390 -478 q 443 -247 460 -344 l 444 -247 q 423 -320 444 -287 q 368 -372 401 -353 q 299 -391 335 -391 q 203 -351 238 -391 q 168 -259 168 -311 q 188 -193 168 -224 q 239 -145 207 -163 q 309 -126 272 -126 q 410 -173 367 -126 q 453 -298 453 -220 q 417 -433 453 -376 q 317 -522 381 -490 q 166 -553 252 -553 z "},"u":{"ha":910,"x_min":14,"x_max":896,"o":"m 309 -14 q 192 14 235 -14 q 130 88 149 41 q 111 196 111 135 l 111 634 l 14 634 l 14 639 l 375 639 l 375 185 q 380 99 375 127 q 395 63 384 72 q 425 55 406 55 q 475 80 454 55 q 509 144 495 104 q 528 233 522 185 q 535 329 535 282 l 540 329 q 531 216 540 276 q 499 104 523 156 q 429 19 475 52 q 309 -14 383 -14 m 535 0 l 535 634 l 451 634 l 451 639 l 799 639 l 799 5 l 896 5 l 896 0 l 535 0 z "},"ú":{"ha":910,"x_min":14,"x_max":896,"o":"m 309 -14 q 192 14 235 -14 q 130 88 149 41 q 111 196 111 135 l 111 634 l 14 634 l 14 639 l 375 639 l 375 185 q 380 99 375 127 q 395 63 384 72 q 425 55 406 55 q 475 80 454 55 q 509 144 495 104 q 528 233 522 185 q 535 329 535 282 l 540 329 q 531 216 540 276 q 499 104 523 156 q 429 19 475 52 q 309 -14 383 -14 m 535 0 l 535 634 l 451 634 l 451 639 l 799 639 l 799 5 l 896 5 l 896 0 l 535 0 m 350 763 l 348 767 l 444 956 q 514 1022 471 1007 q 597 1025 556 1037 q 656 987 638 1014 q 674 910 679 953 q 639 832 669 867 q 552 790 608 798 l 350 763 z "},"ŭ":{"ha":910,"x_min":14,"x_max":896,"o":"m 309 -14 q 192 14 235 -14 q 130 88 149 41 q 111 196 111 135 l 111 634 l 14 634 l 14 639 l 375 639 l 375 185 q 380 99 375 127 q 395 63 384 72 q 425 55 406 55 q 475 80 454 55 q 509 144 495 104 q 528 233 522 185 q 535 329 535 282 l 540 329 q 531 216 540 276 q 499 104 523 156 q 429 19 475 52 q 309 -14 383 -14 m 535 0 l 535 634 l 451 634 l 451 639 l 799 639 l 799 5 l 896 5 l 896 0 l 535 0 m 435 764 q 339 792 379 764 q 276 877 298 819 q 254 1026 254 935 l 259 1026 q 288 980 259 996 q 357 957 316 963 q 435 951 397 951 q 513 957 472 951 q 582 980 553 963 q 610 1026 610 996 l 615 1026 q 593 877 615 935 q 531 792 572 819 q 435 764 490 764 z "},"û":{"ha":910,"x_min":14,"x_max":896,"o":"m 309 -14 q 192 14 235 -14 q 130 88 149 41 q 111 196 111 135 l 111 634 l 14 634 l 14 639 l 375 639 l 375 185 q 380 99 375 127 q 395 63 384 72 q 425 55 406 55 q 475 80 454 55 q 509 144 495 104 q 528 233 522 185 q 535 329 535 282 l 540 329 q 531 216 540 276 q 499 104 523 156 q 429 19 475 52 q 309 -14 383 -14 m 535 0 l 535 634 l 451 634 l 451 639 l 799 639 l 799 5 l 896 5 l 896 0 l 535 0 m 185 785 l 182 788 l 363 1010 l 508 1010 l 689 788 l 686 785 l 435 878 l 185 785 z "},"ü":{"ha":910,"x_min":14,"x_max":896,"o":"m 309 -14 q 192 14 235 -14 q 130 88 149 41 q 111 196 111 135 l 111 634 l 14 634 l 14 639 l 375 639 l 375 185 q 380 99 375 127 q 395 63 384 72 q 425 55 406 55 q 475 80 454 55 q 509 144 495 104 q 528 233 522 185 q 535 329 535 282 l 540 329 q 531 216 540 276 q 499 104 523 156 q 429 19 475 52 q 309 -14 383 -14 m 535 0 l 535 634 l 451 634 l 451 639 l 799 639 l 799 5 l 896 5 l 896 0 l 535 0 m 583 764 q 518 791 545 764 q 490 857 490 819 q 518 923 490 896 q 584 951 545 951 q 650 923 622 951 q 677 857 677 896 q 650 791 677 819 q 583 764 622 764 m 286 764 q 220 791 248 764 q 193 857 193 819 q 220 923 193 896 q 287 951 248 951 q 352 923 325 951 q 380 857 380 896 q 352 791 380 819 q 286 764 325 764 z "},"ù":{"ha":910,"x_min":14,"x_max":896,"o":"m 309 -14 q 192 14 235 -14 q 130 88 149 41 q 111 196 111 135 l 111 634 l 14 634 l 14 639 l 375 639 l 375 185 q 380 99 375 127 q 395 63 384 72 q 425 55 406 55 q 475 80 454 55 q 509 144 495 104 q 528 233 522 185 q 535 329 535 282 l 540 329 q 531 216 540 276 q 499 104 523 156 q 429 19 475 52 q 309 -14 383 -14 m 535 0 l 535 634 l 451 634 l 451 639 l 799 639 l 799 5 l 896 5 l 896 0 l 535 0 m 517 763 l 315 790 q 229 832 260 798 q 193 910 198 867 q 211 987 188 953 q 270 1025 230 1014 q 353 1022 310 1037 q 423 956 397 1007 l 519 767 l 517 763 z "},"ű":{"ha":910,"x_min":14,"x_max":896,"o":"m 309 -14 q 192 14 235 -14 q 130 88 149 41 q 111 196 111 135 l 111 634 l 14 634 l 14 639 l 375 639 l 375 185 q 380 99 375 127 q 395 63 384 72 q 425 55 406 55 q 475 80 454 55 q 509 144 495 104 q 528 233 522 185 q 535 329 535 282 l 540 329 q 531 216 540 276 q 499 104 523 156 q 429 19 475 52 q 309 -14 383 -14 m 535 0 l 535 634 l 451 634 l 451 639 l 799 639 l 799 5 l 896 5 l 896 0 l 535 0 m 167 762 l 165 765 l 262 954 q 331 1020 288 1006 q 415 1024 374 1035 q 474 985 455 1013 q 492 909 497 952 q 456 831 487 865 q 369 789 425 797 l 167 762 m 522 762 l 519 765 l 616 954 q 685 1020 642 1006 q 769 1024 728 1035 q 828 985 809 1013 q 846 909 851 952 q 810 831 841 865 q 724 789 779 797 l 522 762 z "},"ū":{"ha":910,"x_min":14,"x_max":896,"o":"m 309 -14 q 192 14 235 -14 q 130 88 149 41 q 111 196 111 135 l 111 634 l 14 634 l 14 639 l 375 639 l 375 185 q 380 99 375 127 q 395 63 384 72 q 425 55 406 55 q 475 80 454 55 q 509 144 495 104 q 528 233 522 185 q 535 329 535 282 l 540 329 q 531 216 540 276 q 499 104 523 156 q 429 19 475 52 q 309 -14 383 -14 m 535 0 l 535 634 l 451 634 l 451 639 l 799 639 l 799 5 l 896 5 l 896 0 l 535 0 m 268 778 l 268 783 l 601 783 l 601 778 l 268 778 z "},"ų":{"ha":910,"x_min":14,"x_max":896,"o":"m 309 -14 q 192 14 235 -14 q 130 88 149 41 q 111 196 111 135 l 111 634 l 14 634 l 14 639 l 375 639 l 375 185 q 380 99 375 127 q 395 63 384 72 q 425 55 406 55 q 475 80 454 55 q 509 144 495 104 q 528 233 522 185 q 535 329 535 282 l 540 329 q 531 216 540 276 q 499 104 523 156 q 429 19 475 52 q 309 -14 383 -14 m 535 0 l 535 634 l 451 634 l 451 639 l 799 639 l 799 5 l 896 5 l 896 0 l 535 0 m 654 -329 q 555 -317 598 -329 q 487 -278 512 -304 q 463 -210 463 -251 q 490 -132 463 -168 q 560 -67 517 -97 q 655 -17 604 -38 q 753 17 706 4 l 754 13 q 734 -14 747 8 q 713 -74 722 -36 q 703 -161 703 -111 q 724 -260 703 -229 q 770 -291 745 -291 q 808 -273 792 -291 q 838 -226 824 -255 l 842 -228 q 815 -271 831 -247 q 761 -312 798 -294 q 654 -329 724 -329 z "},"ů":{"ha":910,"x_min":14,"x_max":896,"o":"m 309 -14 q 192 14 235 -14 q 130 88 149 41 q 111 196 111 135 l 111 634 l 14 634 l 14 639 l 375 639 l 375 185 q 380 99 375 127 q 395 63 384 72 q 425 55 406 55 q 475 80 454 55 q 509 144 495 104 q 528 233 522 185 q 535 329 535 282 l 540 329 q 531 216 540 276 q 499 104 523 156 q 429 19 475 52 q 309 -14 383 -14 m 535 0 l 535 634 l 451 634 l 451 639 l 799 639 l 799 5 l 896 5 l 896 0 l 535 0 m 435 764 q 322 800 361 764 q 282 889 282 836 q 322 978 282 942 q 435 1014 361 1014 q 548 978 509 1014 q 588 889 588 942 q 548 800 588 836 q 435 764 509 764 m 435 769 q 454 781 447 769 q 466 820 462 794 q 469 889 469 847 q 466 958 469 931 q 454 997 462 985 q 435 1009 447 1009 q 415 997 423 1009 q 404 958 408 985 q 400 889 400 931 q 404 820 400 847 q 415 781 408 794 q 435 769 423 769 z "},"ũ":{"ha":910,"x_min":14,"x_max":896,"o":"m 309 -14 q 192 14 235 -14 q 130 88 149 41 q 111 196 111 135 l 111 634 l 14 634 l 14 639 l 375 639 l 375 185 q 380 99 375 127 q 395 63 384 72 q 425 55 406 55 q 475 80 454 55 q 509 144 495 104 q 528 233 522 185 q 535 329 535 282 l 540 329 q 531 216 540 276 q 499 104 523 156 q 429 19 475 52 q 309 -14 383 -14 m 535 0 l 535 634 l 451 634 l 451 639 l 799 639 l 799 5 l 896 5 l 896 0 l 535 0 m 549 736 q 471 753 503 736 q 410 791 438 769 q 351 829 383 813 q 277 846 320 846 q 214 823 233 846 q 194 778 194 801 l 189 778 q 200 890 189 837 q 242 976 212 943 q 326 1010 272 1010 q 405 993 374 1010 q 463 955 437 976 q 517 917 489 933 q 584 900 544 900 q 648 923 628 900 q 667 968 667 945 l 672 968 q 667 850 672 902 q 636 767 662 797 q 549 736 610 736 z "},"v":{"ha":831,"x_min":-7,"x_max":839,"o":"m 839 639 l 839 634 l 710 634 l 451 -14 l 351 -14 l 85 634 l -7 634 l -7 639 l 467 639 l 467 634 l 376 634 l 526 190 l 703 634 l 569 634 l 569 639 l 839 639 z "},"w":{"ha":1229,"x_min":-7,"x_max":1237,"o":"m 1237 639 l 1237 634 l 1098 634 l 881 -14 l 777 -14 l 588 472 l 399 -14 l 296 -14 l 85 634 l -7 634 l -7 639 l 494 639 l 494 634 l 368 634 l 479 206 l 653 653 l 841 653 l 960 242 l 1091 634 l 940 634 l 940 639 l 1237 639 z "},"ẃ":{"ha":1229,"x_min":-7,"x_max":1237,"o":"m 1237 639 l 1237 634 l 1098 634 l 881 -14 l 777 -14 l 588 472 l 399 -14 l 296 -14 l 85 634 l -7 634 l -7 639 l 494 639 l 494 634 l 368 634 l 479 206 l 653 653 l 841 653 l 960 242 l 1091 634 l 940 634 l 940 639 l 1237 639 m 572 763 l 570 767 l 667 956 q 736 1022 693 1007 q 819 1025 778 1037 q 878 987 860 1014 q 897 910 901 953 q 861 832 892 867 q 774 790 830 798 l 572 763 z "},"ŵ":{"ha":1229,"x_min":-7,"x_max":1237,"o":"m 1237 639 l 1237 634 l 1098 634 l 881 -14 l 777 -14 l 588 472 l 399 -14 l 296 -14 l 85 634 l -7 634 l -7 639 l 494 639 l 494 634 l 368 634 l 479 206 l 653 653 l 841 653 l 960 242 l 1091 634 l 940 634 l 940 639 l 1237 639 m 407 785 l 404 788 l 585 1010 l 731 1010 l 911 788 l 908 785 l 657 878 l 407 785 z "},"ẅ":{"ha":1229,"x_min":-7,"x_max":1237,"o":"m 1237 639 l 1237 634 l 1098 634 l 881 -14 l 777 -14 l 588 472 l 399 -14 l 296 -14 l 85 634 l -7 634 l -7 639 l 494 639 l 494 634 l 368 634 l 479 206 l 653 653 l 841 653 l 960 242 l 1091 634 l 940 634 l 940 639 l 1237 639 m 806 764 q 740 791 767 764 q 713 857 713 819 q 740 923 713 896 q 806 951 767 951 q 872 923 844 951 q 899 857 899 896 q 872 791 899 819 q 806 764 844 764 m 508 764 q 443 791 470 764 q 415 857 415 819 q 443 923 415 896 q 509 951 470 951 q 575 923 547 951 q 602 857 602 896 q 575 791 602 819 q 508 764 547 764 z "},"ẇ":{"ha":1229,"x_min":-7,"x_max":1237,"o":"m 1237 639 l 1237 634 l 1098 634 l 881 -14 l 777 -14 l 588 472 l 399 -14 l 296 -14 l 85 634 l -7 634 l -7 639 l 494 639 l 494 634 l 368 634 l 479 206 l 653 653 l 841 653 l 960 242 l 1091 634 l 940 634 l 940 639 l 1237 639 m 658 750 q 549 794 592 750 q 505 903 505 838 q 549 1012 505 969 q 658 1056 592 1056 q 767 1012 724 1056 q 810 903 810 969 q 767 794 810 838 q 658 750 724 750 z "},"ẉ":{"ha":1229,"x_min":-7,"x_max":1237,"o":"m 1237 639 l 1237 634 l 1098 634 l 881 -14 l 777 -14 l 588 472 l 399 -14 l 296 -14 l 85 634 l -7 634 l -7 639 l 494 639 l 494 634 l 368 634 l 479 206 l 653 653 l 841 653 l 960 242 l 1091 634 l 940 634 l 940 639 l 1237 639 m 603 -391 q 494 -347 538 -391 q 450 -238 450 -303 q 494 -129 450 -172 q 603 -85 538 -85 q 712 -129 669 -85 q 756 -238 756 -172 q 712 -347 756 -303 q 603 -391 669 -391 z "},"ẁ":{"ha":1229,"x_min":-7,"x_max":1237,"o":"m 1237 639 l 1237 634 l 1098 634 l 881 -14 l 777 -14 l 588 472 l 399 -14 l 296 -14 l 85 634 l -7 634 l -7 639 l 494 639 l 494 634 l 368 634 l 479 206 l 653 653 l 841 653 l 960 242 l 1091 634 l 940 634 l 940 639 l 1237 639 m 740 763 l 538 790 q 451 832 482 798 q 415 910 420 867 q 433 987 410 953 q 492 1025 452 1014 q 576 1022 533 1037 q 645 956 619 1007 l 742 767 l 740 763 z "},"x":{"ha":824,"x_min":7,"x_max":818,"o":"m 344 0 l 344 5 l 447 5 l 86 634 l 7 634 l 7 639 l 474 639 l 474 634 l 378 634 l 753 5 l 818 5 l 818 0 l 344 0 m 7 0 l 7 5 l 113 5 l 677 634 l 563 634 l 563 639 l 804 639 l 804 634 l 684 634 l 120 5 l 269 5 l 269 0 l 7 0 z "},"y":{"ha":910,"x_min":-20,"x_max":931,"o":"m 406 634 l 606 257 l 456 -37 l 81 634 l -20 634 l -20 639 l 566 639 l 566 634 l 406 634 m 931 639 l 931 634 l 799 634 l 344 -265 q 292 -328 326 -301 q 202 -355 258 -355 q 137 -339 167 -355 q 87 -293 106 -324 q 67 -219 67 -263 q 88 -147 67 -179 q 141 -97 108 -115 q 214 -79 174 -79 q 289 -103 254 -79 q 339 -168 323 -127 q 342 -258 356 -208 l 793 634 l 637 634 l 637 639 l 931 639 z "},"ý":{"ha":910,"x_min":-20,"x_max":931,"o":"m 406 634 l 606 257 l 456 -37 l 81 634 l -20 634 l -20 639 l 566 639 l 566 634 l 406 634 m 931 639 l 931 634 l 799 634 l 344 -265 q 292 -328 326 -301 q 202 -355 258 -355 q 137 -339 167 -355 q 87 -293 106 -324 q 67 -219 67 -263 q 88 -147 67 -179 q 141 -97 108 -115 q 214 -79 174 -79 q 289 -103 254 -79 q 339 -168 323 -127 q 342 -258 356 -208 l 793 634 l 637 634 l 637 639 l 931 639 m 387 763 l 385 767 l 481 956 q 550 1022 508 1007 q 634 1025 593 1037 q 693 987 674 1014 q 711 910 716 953 q 675 832 706 867 q 589 790 644 798 l 387 763 z "},"ŷ":{"ha":910,"x_min":-20,"x_max":931,"o":"m 406 634 l 606 257 l 456 -37 l 81 634 l -20 634 l -20 639 l 566 639 l 566 634 l 406 634 m 931 639 l 931 634 l 799 634 l 344 -265 q 292 -328 326 -301 q 202 -355 258 -355 q 137 -339 167 -355 q 87 -293 106 -324 q 67 -219 67 -263 q 88 -147 67 -179 q 141 -97 108 -115 q 214 -79 174 -79 q 289 -103 254 -79 q 339 -168 323 -127 q 342 -258 356 -208 l 793 634 l 637 634 l 637 639 l 931 639 m 222 785 l 219 788 l 399 1010 l 545 1010 l 726 788 l 723 785 l 472 878 l 222 785 z "},"ÿ":{"ha":910,"x_min":-20,"x_max":931,"o":"m 406 634 l 606 257 l 456 -37 l 81 634 l -20 634 l -20 639 l 566 639 l 566 634 l 406 634 m 931 639 l 931 634 l 799 634 l 344 -265 q 292 -328 326 -301 q 202 -355 258 -355 q 137 -339 167 -355 q 87 -293 106 -324 q 67 -219 67 -263 q 88 -147 67 -179 q 141 -97 108 -115 q 214 -79 174 -79 q 289 -103 254 -79 q 339 -168 323 -127 q 342 -258 356 -208 l 793 634 l 637 634 l 637 639 l 931 639 m 620 764 q 555 791 582 764 q 527 857 527 819 q 555 923 527 896 q 621 951 582 951 q 686 923 659 951 q 714 857 714 896 q 686 791 714 819 q 620 764 659 764 m 323 764 q 257 791 285 764 q 230 857 230 819 q 257 923 230 896 q 324 951 285 951 q 389 923 362 951 q 417 857 417 896 q 389 791 417 819 q 323 764 362 764 z "},"ỳ":{"ha":910,"x_min":-20,"x_max":931,"o":"m 406 634 l 606 257 l 456 -37 l 81 634 l -20 634 l -20 639 l 566 639 l 566 634 l 406 634 m 931 639 l 931 634 l 799 634 l 344 -265 q 292 -328 326 -301 q 202 -355 258 -355 q 137 -339 167 -355 q 87 -293 106 -324 q 67 -219 67 -263 q 88 -147 67 -179 q 141 -97 108 -115 q 214 -79 174 -79 q 289 -103 254 -79 q 339 -168 323 -127 q 342 -258 356 -208 l 793 634 l 637 634 l 637 639 l 931 639 m 554 763 l 352 790 q 266 832 297 798 q 230 910 235 867 q 248 987 225 953 q 307 1025 267 1014 q 390 1022 347 1037 q 460 956 433 1007 l 556 767 l 554 763 z "},"z":{"ha":695,"x_min":7,"x_max":681,"o":"m 7 0 l 7 5 l 368 634 l 294 634 q 195 605 243 634 q 110 523 147 575 q 51 400 72 470 l 46 400 l 46 639 l 658 639 l 658 634 l 296 5 l 401 5 q 494 20 451 5 q 573 66 538 35 q 634 144 608 97 q 676 256 660 191 l 681 256 l 681 0 l 7 0 z "},"ź":{"ha":695,"x_min":7,"x_max":681,"o":"m 7 0 l 7 5 l 368 634 l 294 634 q 195 605 243 634 q 110 523 147 575 q 51 400 72 470 l 46 400 l 46 639 l 658 639 l 658 634 l 296 5 l 401 5 q 494 20 451 5 q 573 66 538 35 q 634 144 608 97 q 676 256 660 191 l 681 256 l 681 0 l 7 0 m 274 763 l 272 767 l 368 956 q 437 1022 394 1007 q 520 1025 480 1037 q 580 987 561 1014 q 598 910 603 953 q 562 832 593 867 q 476 790 531 798 l 274 763 z "},"ž":{"ha":695,"x_min":7,"x_max":681,"o":"m 7 0 l 7 5 l 368 634 l 294 634 q 195 605 243 634 q 110 523 147 575 q 51 400 72 470 l 46 400 l 46 639 l 658 639 l 658 634 l 296 5 l 401 5 q 494 20 451 5 q 573 66 538 35 q 634 144 608 97 q 676 256 660 191 l 681 256 l 681 0 l 7 0 m 286 778 l 106 1000 l 108 1003 l 360 910 l 610 1003 l 613 1000 l 432 778 l 286 778 z "},"ż":{"ha":695,"x_min":7,"x_max":681,"o":"m 7 0 l 7 5 l 368 634 l 294 634 q 195 605 243 634 q 110 523 147 575 q 51 400 72 470 l 46 400 l 46 639 l 658 639 l 658 634 l 296 5 l 401 5 q 494 20 451 5 q 573 66 538 35 q 634 144 608 97 q 676 256 660 191 l 681 256 l 681 0 l 7 0 m 359 750 q 250 794 294 750 q 206 903 206 838 q 250 1012 206 969 q 359 1056 294 1056 q 468 1012 425 1056 q 512 903 512 969 q 468 794 512 838 q 359 750 425 750 z "},"ﬁ":{"ha":951,"x_min":15,"x_max":944,"o":"m 140 0 l 140 710 q 177 870 140 805 q 278 977 215 936 q 422 1037 342 1018 q 588 1056 501 1056 q 711 1035 651 1056 q 810 975 771 1014 q 849 883 849 937 q 806 775 849 815 q 706 735 764 735 q 610 770 654 735 q 567 873 567 806 q 587 946 567 915 q 640 995 608 978 q 706 1013 672 1013 q 804 977 760 1013 q 847 883 847 941 l 844 883 q 806 972 844 934 q 710 1030 769 1009 q 588 1051 651 1051 q 481 1015 525 1051 q 414 912 437 979 q 390 750 390 845 l 390 0 l 140 0 m 15 0 l 15 5 l 944 5 l 944 0 l 15 0 m 583 0 l 583 634 l 15 634 l 15 639 l 847 639 l 847 0 l 583 0 z "},"ﬂ":{"ha":1081,"x_min":15,"x_max":1061,"o":"m 140 0 l 140 710 q 193 896 140 819 q 335 1014 247 973 q 532 1056 424 1056 q 648 1031 599 1056 q 724 966 697 1006 q 751 883 751 926 q 709 775 751 815 q 609 735 667 735 q 513 770 557 735 q 469 873 469 806 q 513 970 469 935 q 609 1006 557 1006 q 707 973 663 1006 q 750 883 750 941 l 747 883 q 720 964 747 926 q 646 1026 694 1002 q 532 1051 598 1051 q 458 1012 490 1051 q 408 906 426 974 q 390 750 390 838 l 390 0 l 140 0 m 15 0 l 15 5 l 1061 5 l 1061 0 l 15 0 m 15 634 l 15 639 l 585 639 l 585 634 l 15 634 m 675 0 l 675 1014 l 939 1069 l 939 0 l 675 0 z "},"ª":{"ha":558,"x_min":19,"x_max":520,"o":"m 385 661 q 302 680 333 661 q 270 736 270 699 l 270 923 q 264 984 270 953 q 240 1034 257 1014 q 189 1054 222 1054 q 133 1047 165 1054 q 77 1020 101 1040 q 52 966 52 1001 l 49 966 q 75 1017 49 997 q 135 1037 101 1037 q 199 1019 172 1037 q 225 968 225 1001 q 198 914 225 933 q 135 895 172 895 q 73 915 98 895 q 49 966 49 934 q 74 1023 49 1002 q 138 1051 99 1043 q 214 1060 176 1060 q 331 1044 283 1060 q 404 998 379 1028 q 428 923 428 967 l 428 710 q 436 688 428 697 q 460 680 444 680 q 487 689 469 680 q 518 723 505 697 l 520 722 q 470 676 506 690 q 385 661 433 661 m 138 661 q 52 689 84 661 q 19 764 19 717 q 68 850 19 819 q 206 880 117 880 l 309 880 l 309 877 l 263 877 q 220 861 237 877 q 195 822 203 844 q 188 781 188 799 q 196 735 188 753 q 225 717 205 717 q 257 743 244 717 q 270 820 270 769 l 273 820 q 237 702 273 742 q 138 661 201 661 z "},"º":{"ha":789,"x_min":179,"x_max":611,"o":"m 395 660 q 280 687 328 660 q 205 760 231 715 q 179 860 179 806 q 205 959 179 914 q 280 1032 231 1005 q 395 1060 328 1060 q 510 1032 462 1060 q 585 959 559 1005 q 611 860 611 914 q 585 760 611 806 q 510 687 559 715 q 395 660 462 660 m 395 663 q 423 687 411 663 q 442 756 435 711 q 449 860 449 800 q 442 964 449 919 q 423 1033 435 1008 q 395 1057 411 1057 q 367 1033 378 1057 q 348 964 355 1008 q 342 860 342 919 q 348 756 342 800 q 367 687 355 711 q 395 663 378 663 z "},"Δ":{"ha":944,"x_min":42,"x_max":902,"o":"m 42 0 l 418 1062 l 534 1062 l 902 0 l 558 0 l 314 751 l 47 0 l 42 0 m 44 0 l 44 5 l 752 5 l 752 0 l 44 0 z "},"Ω":{"ha":1078,"x_min":60,"x_max":1018,"o":"m 435 298 q 296 338 363 311 q 176 407 228 364 q 92 513 123 450 q 60 660 60 575 q 117 878 60 790 q 280 1011 173 967 q 539 1056 388 1056 q 798 1011 691 1056 q 961 878 905 967 q 1018 660 1018 790 q 987 514 1018 575 q 903 410 956 452 q 783 343 850 368 q 644 304 716 317 l 644 308 q 709 377 685 329 q 744 497 733 425 q 755 660 755 569 q 746 812 755 741 q 714 937 738 883 q 649 1020 691 990 q 539 1051 606 1051 q 429 1020 472 1051 q 364 937 387 990 q 332 812 341 883 q 324 660 324 741 q 334 495 324 569 q 369 373 345 422 q 435 302 394 323 l 435 298 m 95 0 l 95 347 l 100 347 q 139 275 100 299 q 232 252 178 252 l 430 252 l 430 300 l 435 299 l 435 0 l 95 0 m 644 0 l 644 305 l 649 308 l 649 252 l 847 252 q 939 275 900 252 q 978 347 978 299 l 983 347 l 983 0 l 644 0 z "},"μ":{"ha":910,"x_min":14,"x_max":896,"o":"m 799 639 l 799 5 l 896 5 l 896 0 l 535 0 l 535 253 q 507 127 529 189 q 439 26 485 66 q 309 -14 392 -14 q 170 30 215 -14 q 117 144 126 74 l 117 -168 q 145 -267 117 -226 q 223 -330 174 -308 q 326 -355 271 -352 q 268 -307 292 -347 q 244 -224 244 -267 q 280 -137 244 -174 q 371 -101 316 -101 q 462 -137 426 -101 q 498 -229 498 -174 q 457 -323 498 -285 q 340 -361 417 -361 q 229 -339 281 -361 q 144 -274 176 -317 q 111 -168 111 -231 l 111 634 l 14 634 l 14 639 l 375 639 l 375 185 q 380 99 375 127 q 395 63 384 72 q 425 55 406 55 q 475 80 454 55 q 509 144 495 104 q 528 233 522 185 q 535 329 535 282 l 535 634 l 451 634 l 451 639 l 799 639 z "},"π":{"ha":945,"x_min":49,"x_max":897,"o":"m 57 271 l 57 639 l 869 639 l 869 375 l 62 375 l 62 271 l 57 271 m 200 -14 q 93 19 137 -14 q 49 108 49 51 q 69 172 49 149 q 121 208 89 195 q 189 233 153 222 q 257 260 225 244 q 309 307 289 277 q 329 388 329 337 l 329 472 l 407 472 l 407 338 q 355 80 407 173 q 200 -14 302 -14 m 678 -14 q 534 22 588 -14 q 481 129 481 58 l 481 431 l 744 431 l 744 101 q 755 61 744 80 q 801 42 766 42 q 851 65 827 42 q 894 145 874 88 l 897 143 q 824 28 874 70 q 678 -14 775 -14 z "},"¹":{"ha":735,"x_min":172,"x_max":551,"o":"m 281 635 l 281 1256 l 186 1256 l 186 1258 l 460 1258 l 460 635 l 281 635 m 172 633 l 172 636 l 551 636 l 551 633 l 172 633 z "},"²":{"ha":651,"x_min":99,"x_max":577,"o":"m 99 638 l 99 750 l 271 858 q 350 938 323 891 q 377 1063 377 985 q 349 1194 377 1138 q 267 1250 320 1250 q 192 1230 228 1250 q 132 1173 156 1210 q 109 1089 109 1137 l 106 1089 q 141 1146 106 1120 q 215 1172 175 1172 q 282 1144 251 1172 q 313 1076 313 1117 q 283 1004 313 1032 q 211 976 252 976 q 138 1007 171 976 q 106 1089 106 1038 q 169 1220 106 1169 q 336 1271 233 1271 q 500 1226 440 1271 q 560 1113 560 1182 q 541 1042 560 1072 q 490 989 521 1012 q 424 946 458 965 q 359 908 389 927 l 204 813 l 574 813 l 574 875 l 577 875 l 577 638 l 99 638 z "},"³":{"ha":624,"x_min":81,"x_max":544,"o":"m 294 626 q 177 651 224 626 q 105 712 129 675 q 81 788 81 749 q 108 856 81 829 q 172 883 135 883 q 233 858 207 883 q 258 795 258 833 q 231 735 258 760 q 169 710 203 710 q 109 733 136 710 q 81 788 81 757 l 83 788 q 108 713 83 748 q 174 656 133 677 q 260 635 214 635 q 336 683 313 635 q 360 810 360 732 q 350 878 360 840 q 313 943 340 916 q 238 971 287 971 l 238 973 q 406 949 338 973 q 509 886 474 926 q 544 801 544 847 q 506 708 544 747 q 410 648 468 669 q 294 626 353 626 m 238 972 l 238 974 q 303 998 283 974 q 329 1054 324 1022 q 335 1113 335 1087 q 331 1178 335 1144 q 313 1236 326 1213 q 272 1260 299 1260 q 227 1251 255 1260 q 173 1226 200 1242 q 127 1187 145 1210 q 108 1133 108 1163 l 106 1133 q 135 1190 106 1167 q 195 1213 164 1213 q 257 1189 229 1213 q 284 1127 284 1165 q 255 1063 284 1087 q 195 1040 226 1040 q 133 1066 160 1040 q 105 1133 105 1092 q 136 1202 105 1172 q 214 1250 168 1232 q 302 1267 260 1267 q 399 1251 349 1267 q 484 1204 449 1235 q 519 1127 519 1173 q 489 1050 519 1085 q 396 993 458 1015 q 238 972 333 972 z "},"⁴":{"ha":598,"x_min":22,"x_max":556,"o":"m 206 638 l 206 641 l 285 641 l 285 1181 l 28 819 l 556 819 l 556 816 l 22 816 l 339 1263 l 464 1263 l 464 641 l 526 641 l 526 638 l 206 638 z "},"⁄":{"ha":744,"x_min":56,"x_max":668,"o":"m 56 -208 l 663 1083 l 668 1083 l 60 -208 l 56 -208 z "},"½":{"ha":1013,"x_min":31,"x_max":985,"o":"m 56 -139 l 728 903 l 733 903 l 61 -139 l 56 -139 m 31 494 l 31 497 l 410 497 l 410 494 l 31 494 m 507 -140 l 507 -28 l 679 81 q 758 160 731 113 q 785 285 785 207 q 757 416 785 360 q 675 472 728 472 q 600 452 636 472 q 541 395 564 432 q 517 311 517 359 l 515 311 q 549 368 515 342 q 623 394 583 394 q 691 367 660 394 q 722 298 722 339 q 691 226 722 254 q 619 199 660 199 q 547 230 579 199 q 514 311 514 260 q 578 442 514 391 q 744 493 642 493 q 908 449 848 493 q 969 335 969 404 q 949 264 969 294 q 898 211 929 234 q 832 168 867 188 q 767 131 797 149 l 613 35 l 983 35 l 983 97 l 985 97 l 985 -140 l 507 -140 m 139 496 l 139 1117 l 44 1117 l 44 1119 l 318 1119 l 318 496 l 139 496 z "},"¼":{"ha":973,"x_min":31,"x_max":938,"o":"m 57 -139 l 729 903 l 734 903 l 62 -139 l 57 -139 m 31 494 l 31 497 l 410 497 l 410 494 l 31 494 m 588 -143 l 588 -140 l 667 -140 l 667 400 l 410 38 l 938 38 l 938 35 l 404 35 l 721 482 l 846 482 l 846 -140 l 908 -140 l 908 -143 l 588 -143 m 139 496 l 139 1117 l 44 1117 l 44 1119 l 318 1119 l 318 496 l 139 496 z "},"¾":{"ha":1056,"x_min":28,"x_max":1021,"o":"m 139 -139 l 811 903 l 816 903 l 144 -139 l 139 -139 m 241 483 q 124 508 172 483 q 52 569 76 532 q 28 645 28 606 q 55 713 28 686 q 119 740 82 740 q 180 715 154 740 q 206 652 206 690 q 178 592 206 617 q 117 567 151 567 q 56 590 83 567 q 28 645 28 614 l 31 645 q 56 569 31 605 q 121 513 81 534 q 208 492 161 492 q 284 540 260 492 q 307 667 307 589 q 297 735 307 697 q 260 800 287 773 q 185 828 234 828 l 185 830 q 353 806 285 830 q 456 743 422 783 q 491 658 491 704 q 453 565 491 604 q 358 505 415 526 q 241 483 300 483 m 671 -143 l 671 -140 l 750 -140 l 750 400 l 493 38 l 1021 38 l 1021 35 l 488 35 l 804 482 l 929 482 l 929 -140 l 992 -140 l 992 -143 l 671 -143 m 185 828 l 185 831 q 250 855 230 831 q 276 911 271 878 q 282 970 282 944 q 278 1035 282 1001 q 260 1093 274 1069 q 219 1117 247 1117 q 175 1108 202 1117 q 120 1083 147 1099 q 74 1044 92 1067 q 56 990 56 1020 l 53 990 q 82 1047 53 1024 q 142 1070 111 1070 q 204 1046 176 1070 q 231 984 231 1022 q 202 920 231 944 q 142 897 174 897 q 80 923 108 897 q 52 990 52 949 q 84 1059 52 1028 q 161 1107 115 1089 q 249 1124 207 1124 q 346 1108 296 1124 q 431 1061 397 1092 q 466 984 466 1030 q 436 907 466 942 q 343 850 406 872 q 185 828 281 828 z "},".":{"ha":443,"x_min":56,"x_max":389,"o":"m 222 -14 q 139 9 176 -14 q 78 69 101 31 q 56 153 56 107 q 78 236 56 199 q 139 297 101 274 q 222 319 176 319 q 306 297 268 319 q 366 236 344 274 q 389 153 389 199 q 366 69 389 107 q 306 9 344 31 q 222 -14 268 -14 z "},",":{"ha":470,"x_min":53,"x_max":414,"o":"m 53 -217 l 53 -212 q 203 -187 134 -212 q 322 -114 273 -162 q 393 5 372 -65 q 399 167 414 75 l 401 167 q 374 75 401 115 q 306 10 347 34 q 219 -14 264 -14 q 100 36 144 -14 q 56 151 56 86 q 80 233 56 195 q 144 294 104 271 q 232 317 185 317 q 321 290 280 317 q 388 215 363 263 q 413 103 413 167 q 367 -66 413 6 q 241 -177 322 -138 q 53 -217 160 -217 z "},":":{"ha":443,"x_min":56,"x_max":389,"o":"m 222 431 q 139 453 176 431 q 78 514 101 476 q 56 597 56 551 q 78 681 56 643 q 139 741 101 719 q 222 764 176 764 q 306 741 268 764 q 366 681 344 719 q 389 597 389 643 q 366 514 389 551 q 306 453 344 476 q 222 431 268 431 m 222 -14 q 139 9 176 -14 q 78 69 101 31 q 56 153 56 107 q 78 236 56 199 q 139 297 101 274 q 222 319 176 319 q 306 297 268 319 q 366 236 344 274 q 389 153 389 199 q 366 69 389 107 q 306 9 344 31 q 222 -14 268 -14 z "},";":{"ha":469,"x_min":56,"x_max":417,"o":"m 225 431 q 141 453 179 431 q 81 514 103 476 q 58 597 58 551 q 81 681 58 643 q 141 741 103 719 q 225 764 179 764 q 309 741 271 764 q 369 681 347 719 q 392 597 392 643 q 369 514 392 551 q 309 453 347 476 q 225 431 271 431 m 56 -217 l 56 -212 q 206 -187 137 -212 q 325 -114 276 -162 q 395 5 374 -65 q 401 167 417 75 l 403 167 q 377 75 403 115 q 308 10 350 34 q 222 -14 267 -14 q 102 36 147 -14 q 58 151 58 86 q 83 233 58 195 q 147 294 107 271 q 235 317 188 317 q 324 290 283 317 q 390 215 365 263 q 415 103 415 167 q 370 -66 415 6 q 244 -177 325 -138 q 56 -217 163 -217 z "},"…":{"ha":1332,"x_min":56,"x_max":1278,"o":"m 1111 -14 q 1027 9 1065 -14 q 967 69 990 31 q 944 153 944 107 q 967 236 944 199 q 1027 297 990 274 q 1111 319 1065 319 q 1195 297 1157 319 q 1255 236 1233 274 q 1278 153 1278 199 q 1255 69 1278 107 q 1195 9 1233 31 q 1111 -14 1157 -14 m 667 -14 q 583 9 621 -14 q 523 69 545 31 q 500 153 500 107 q 523 236 500 199 q 583 297 545 274 q 667 319 621 319 q 750 297 713 319 q 811 236 788 274 q 833 153 833 199 q 811 69 833 107 q 750 9 788 31 q 667 -14 713 -14 m 222 -14 q 139 9 176 -14 q 78 69 101 31 q 56 153 56 107 q 78 236 56 199 q 139 297 101 274 q 222 319 176 319 q 306 297 268 319 q 366 236 344 274 q 389 153 389 199 q 366 69 389 107 q 306 9 344 31 q 222 -14 268 -14 z "},"!":{"ha":610,"x_min":138,"x_max":472,"o":"m 302 428 q 279 531 302 480 q 226 635 256 583 q 170 744 195 688 q 139 860 144 799 q 139 874 138 867 q 139 886 139 880 q 182 1004 139 955 q 304 1053 224 1053 q 428 1004 385 1053 q 471 886 471 955 q 471 874 471 880 q 469 860 471 867 q 438 744 464 799 q 382 635 413 688 q 329 531 351 583 q 306 428 306 480 l 302 428 m 306 -14 q 222 9 260 -14 q 161 69 184 31 q 139 153 139 107 q 161 236 139 199 q 222 297 184 274 q 306 319 260 319 q 389 297 351 319 q 450 236 427 274 q 472 153 472 199 q 450 69 472 107 q 389 9 427 31 q 306 -14 351 -14 z "},"¡":{"ha":610,"x_min":139,"x_max":474,"o":"m 307 -331 q 184 -282 227 -331 q 140 -164 140 -233 q 141 -151 140 -158 q 142 -137 141 -144 q 173 -22 147 -77 q 229 87 199 34 q 282 191 260 140 q 304 294 304 242 l 310 294 q 332 191 310 242 q 385 87 354 140 q 441 -22 415 34 q 472 -137 467 -77 q 473 -151 474 -144 q 472 -164 472 -158 q 430 -282 472 -233 q 307 -331 388 -331 m 306 403 q 222 425 260 403 q 161 486 184 448 q 139 569 139 524 q 161 653 139 615 q 222 714 184 691 q 306 736 260 736 q 389 714 351 736 q 450 653 427 691 q 472 569 472 615 q 450 486 472 524 q 389 425 427 448 q 306 403 351 403 z "},"?":{"ha":860,"x_min":83,"x_max":792,"o":"m 355 388 l 355 508 q 436 568 408 530 q 475 660 465 607 q 485 778 485 713 q 483 874 485 827 q 469 959 481 921 q 433 1019 458 997 q 362 1042 408 1042 q 267 1022 315 1042 q 179 967 219 1002 q 113 885 138 932 q 88 786 88 839 l 85 786 q 106 855 85 824 q 161 905 127 886 q 232 923 195 923 q 304 904 270 923 q 359 852 338 885 q 381 778 381 819 q 358 700 381 733 q 301 649 335 667 q 232 631 267 631 q 129 674 174 631 q 83 786 83 717 q 105 876 83 829 q 169 964 126 923 q 276 1030 213 1004 q 425 1056 340 1056 q 622 1021 540 1056 q 748 924 704 986 q 792 778 792 861 q 736 640 792 698 q 583 547 681 581 q 360 506 485 513 l 360 388 l 355 388 m 401 -14 q 318 9 356 -14 q 257 69 280 31 q 235 153 235 107 q 257 236 235 199 q 318 297 280 274 q 401 319 356 319 q 485 297 447 319 q 545 236 523 274 q 568 153 568 199 q 545 69 568 107 q 485 9 523 31 q 401 -14 447 -14 z "},"¿":{"ha":860,"x_min":69,"x_max":778,"o":"m 436 -333 q 239 -299 321 -333 q 113 -201 157 -264 q 69 -56 69 -139 q 125 83 69 24 q 278 175 181 141 q 501 216 376 210 l 501 335 l 506 335 l 506 214 q 425 154 453 192 q 386 62 397 115 q 376 -56 376 9 q 378 -151 376 -104 q 392 -236 381 -199 q 428 -297 403 -274 q 499 -319 453 -319 q 594 -300 546 -319 q 682 -245 642 -280 q 748 -163 723 -210 q 773 -64 773 -117 l 776 -64 q 755 -133 776 -102 q 700 -182 734 -164 q 629 -201 667 -201 q 558 -182 592 -201 q 502 -130 524 -162 q 481 -56 481 -97 q 503 23 481 -10 q 560 73 526 56 q 629 91 594 91 q 732 48 687 91 q 778 -64 778 5 q 756 -153 778 -106 q 692 -241 735 -201 q 585 -308 649 -282 q 436 -333 521 -333 m 460 403 q 376 425 414 403 q 316 486 338 448 q 293 569 293 524 q 316 653 293 615 q 376 714 338 691 q 460 736 414 736 q 543 714 506 736 q 604 653 581 691 q 626 569 626 615 q 604 486 626 524 q 543 425 581 448 q 460 403 506 403 z "},"·":{"ha":443,"x_min":56,"x_max":389,"o":"m 222 472 q 139 495 176 472 q 78 555 101 517 q 56 639 56 593 q 78 723 56 685 q 139 783 101 760 q 222 806 176 806 q 306 783 268 806 q 366 723 344 760 q 389 639 389 685 q 366 555 389 593 q 306 495 344 517 q 222 472 268 472 z "},"•":{"ha":277,"x_min":56,"x_max":389,"o":"m 222 424 q 139 446 176 424 q 78 507 101 469 q 56 590 56 544 q 78 674 56 636 q 139 734 101 712 q 222 757 176 757 q 306 734 268 757 q 366 674 344 712 q 389 590 389 636 q 366 507 389 544 q 306 446 344 469 q 222 424 268 424 z "},"*":{"ha":870,"x_min":-6,"x_max":877,"o":"m 435 106 q 335 145 374 106 q 297 246 297 185 q 297 258 297 252 q 298 271 297 264 q 324 341 303 310 q 369 406 344 373 q 413 480 394 439 q 433 576 432 520 q 359 511 385 547 q 317 436 333 474 q 284 365 301 399 q 236 307 267 331 q 226 299 231 302 q 215 293 221 297 q 109 276 163 263 q 24 343 55 290 q 9 450 -6 397 q 76 533 24 503 q 87 539 82 537 q 99 544 92 542 q 173 557 135 560 q 251 550 210 555 q 336 549 292 545 q 429 581 381 553 q 336 612 381 608 q 251 611 292 616 q 173 604 210 606 q 99 617 135 601 q 87 622 92 619 q 76 628 82 625 q 9 712 24 658 q 24 818 -6 765 q 109 885 55 872 q 215 868 163 899 q 226 862 221 865 q 236 854 231 859 q 284 797 267 831 q 317 725 301 763 q 359 650 333 687 q 433 585 385 614 q 413 682 432 641 q 369 755 394 722 q 324 820 344 788 q 298 890 303 851 q 297 903 297 898 q 297 915 297 909 q 335 1016 297 977 q 435 1056 374 1056 q 536 1016 497 1056 q 574 915 574 977 q 574 903 574 909 q 573 890 574 898 q 547 820 568 851 q 501 755 526 788 q 458 682 476 722 q 438 585 439 641 q 513 650 487 614 q 554 725 538 687 q 586 797 569 763 q 635 854 603 831 q 645 862 640 859 q 656 868 651 865 q 763 885 709 899 q 847 818 816 872 q 863 712 877 765 q 794 628 848 658 q 784 622 790 625 q 772 617 779 619 q 698 604 736 601 q 620 611 660 606 q 535 612 579 616 q 442 581 490 608 q 534 549 490 553 q 619 549 578 544 q 698 556 660 554 q 772 544 736 558 q 784 539 779 542 q 794 533 790 537 q 863 450 848 503 q 847 343 877 397 q 763 276 816 290 q 656 293 709 263 q 645 299 651 297 q 635 307 640 302 q 586 365 603 331 q 554 436 569 399 q 513 511 538 474 q 438 576 487 547 q 458 480 439 520 q 501 406 476 439 q 547 341 526 373 q 573 271 567 310 q 574 258 574 264 q 574 246 574 252 q 536 145 574 185 q 435 106 497 106 z "},"‽":{"ha":999,"x_min":84,"x_max":931,"o":"m 494 465 l 494 467 q 568 493 532 467 q 632 562 603 519 q 676 661 660 605 q 693 778 693 717 q 665 920 693 860 q 584 1014 637 981 q 455 1047 531 1047 q 327 1031 389 1047 q 215 984 265 1015 q 133 912 165 954 q 94 816 101 869 q 140 887 103 858 q 218 917 176 917 q 286 897 256 917 q 335 844 317 876 q 353 778 353 813 q 334 708 353 740 q 284 657 315 676 q 218 638 253 638 q 122 683 160 638 q 84 786 84 728 q 110 888 84 840 q 188 974 137 936 q 315 1034 240 1012 q 488 1056 390 1056 q 644 1038 566 1056 q 788 985 723 1021 q 892 894 853 949 q 931 764 931 840 q 901 651 931 700 q 823 567 872 602 q 715 509 774 531 q 599 475 657 486 q 494 465 541 465 m 471 -14 q 387 9 425 -14 q 327 69 349 31 q 304 153 304 107 q 327 236 304 199 q 387 297 349 274 q 471 319 425 319 q 555 297 517 319 q 615 236 592 274 q 638 153 638 199 q 615 69 638 107 q 555 9 592 31 q 471 -14 517 -14 m 458 386 q 439 499 458 435 q 400 633 421 563 q 372 769 380 703 q 371 783 372 777 q 371 796 371 790 q 389 853 371 830 q 435 888 406 876 q 496 900 463 900 q 557 888 528 900 q 603 853 585 876 q 621 796 621 830 q 621 783 621 790 q 619 769 621 777 q 596 667 614 719 q 558 565 578 615 q 523 468 538 514 q 508 386 508 423 l 458 386 z "},"#":{"ha":876,"x_min":42,"x_max":834,"o":"m 490 -8 l 629 1047 l 634 1049 l 495 -7 l 490 -8 m 42 344 l 42 349 l 793 349 l 793 344 l 42 344 m 228 -7 l 367 1049 l 372 1049 l 233 -7 l 228 -7 m 83 714 l 83 719 l 834 719 l 834 714 l 83 714 z "},"‾":{"ha":499,"x_min":-8,"x_max":506,"o":"m -8 1093 l -8 1099 l 506 1099 l 506 1093 l -8 1093 z "},"/":{"ha":723,"x_min":56,"x_max":668,"o":"m 56 -208 l 663 1083 l 668 1083 l 60 -208 l 56 -208 z "},"\\":{"ha":722,"x_min":56,"x_max":667,"o":"m 661 -208 l 56 1083 l 61 1083 l 667 -208 l 661 -208 z "},"(":{"ha":531,"x_min":90,"x_max":506,"o":"m 504 -236 q 344 -133 419 -199 q 212 23 269 -67 q 123 221 155 113 q 90 451 90 330 q 147 744 90 613 q 297 969 203 876 q 504 1111 391 1063 l 506 1108 q 445 1015 468 1083 q 409 853 422 947 q 393 656 397 760 q 389 451 389 551 q 393 243 389 351 q 409 35 397 134 q 445 -135 422 -63 q 506 -233 468 -207 l 504 -236 z "},")":{"ha":542,"x_min":35,"x_max":451,"o":"m 38 -236 l 35 -233 q 97 -139 74 -207 q 133 22 120 -72 q 149 219 145 115 q 153 424 153 324 q 149 632 153 524 q 133 840 145 741 q 97 1010 120 938 q 35 1108 74 1083 l 38 1111 q 197 1009 122 1075 q 330 852 272 942 q 419 654 387 763 q 451 424 451 545 q 395 131 451 262 q 245 -94 339 -1 q 38 -236 151 -187 z "},"{":{"ha":544,"x_min":76,"x_max":503,"o":"m 503 1083 l 503 1078 q 431 1052 460 1078 q 387 984 401 1025 q 372 899 372 942 q 384 822 372 860 q 408 740 396 783 q 419 640 419 696 q 391 543 419 583 q 289 477 362 503 q 85 438 217 452 q 289 399 217 424 q 391 334 362 374 q 419 236 419 294 q 408 137 419 181 q 384 55 396 93 q 372 -22 372 17 q 387 -107 372 -66 q 431 -176 401 -149 q 503 -203 460 -203 l 503 -208 q 247 -184 340 -208 q 115 -111 153 -160 q 76 14 76 -62 q 89 119 76 75 q 118 198 101 164 q 147 263 135 233 q 160 326 160 294 q 134 397 160 369 q 76 435 108 424 l 76 441 q 134 480 108 451 q 160 550 160 508 q 147 613 160 583 q 118 678 135 644 q 89 757 101 713 q 76 863 76 801 q 115 987 76 938 q 247 1060 153 1036 q 503 1083 340 1083 z "},"}":{"ha":544,"x_min":42,"x_max":468,"o":"m 468 436 q 259 476 333 450 q 155 541 184 501 q 125 639 125 581 q 137 738 125 694 q 160 820 149 782 q 172 897 172 858 q 158 982 172 941 q 114 1051 143 1024 q 42 1078 85 1078 l 42 1083 q 298 1059 205 1083 q 430 986 391 1035 q 468 861 468 937 q 456 756 468 800 q 426 677 443 711 q 397 612 410 642 q 385 549 385 581 q 411 478 385 506 q 468 440 437 451 l 468 436 m 42 -208 l 42 -203 q 114 -176 85 -203 q 158 -108 143 -149 q 172 -24 172 -67 q 160 53 172 15 q 137 135 149 92 q 125 235 125 179 q 155 333 125 292 q 259 398 184 373 q 468 438 333 424 l 468 434 q 411 396 437 424 q 385 325 385 368 q 397 262 385 292 q 426 197 410 231 q 456 118 443 163 q 468 13 468 74 q 430 -112 468 -63 q 298 -185 391 -161 q 42 -208 205 -208 z "},"[":{"ha":534,"x_min":76,"x_max":493,"o":"m 76 -208 l 76 1083 l 368 1083 l 368 -208 l 76 -208 m 76 -208 l 76 -203 l 493 -203 l 493 -208 l 76 -208 m 76 1078 l 76 1083 l 493 1083 l 493 1078 l 76 1078 z "},"]":{"ha":533,"x_min":42,"x_max":458,"o":"m 167 -208 l 167 1083 l 458 1083 l 458 -208 l 167 -208 m 42 -208 l 42 -203 l 458 -203 l 458 -208 l 42 -208 m 42 1078 l 42 1083 l 458 1083 l 458 1078 l 42 1078 z "},"-":{"ha":499,"x_min":83,"x_max":417,"o":"m 83 379 l 83 385 l 417 385 l 417 379 l 83 379 z "},"­":{"ha":499,"x_min":83,"x_max":417,"o":"m 83 379 l 83 385 l 417 385 l 417 379 l 83 379 z "},"–":{"ha":751,"x_min":83,"x_max":667,"o":"m 83 379 l 83 385 l 667 385 l 667 379 l 83 379 z "},"—":{"ha":1090,"x_min":83,"x_max":1006,"o":"m 83 379 l 83 385 l 1006 385 l 1006 379 l 83 379 z "},"‒":{"ha":649,"x_min":83,"x_max":566,"o":"m 83 379 l 83 385 l 566 385 l 566 379 l 83 379 z "},"―":{"ha":1191,"x_min":83,"x_max":1108,"o":"m 83 379 l 83 385 l 1108 385 l 1108 379 l 83 379 z "},"‐":{"ha":499,"x_min":83,"x_max":417,"o":"m 83 379 l 83 385 l 417 385 l 417 379 l 83 379 z "},"‑":{"ha":499,"x_min":83,"x_max":417,"o":"m 83 379 l 83 385 l 417 385 l 417 379 l 83 379 z "},"_":{"ha":776,"x_min":-8,"x_max":784,"o":"m -8 -211 l -8 -206 l 784 -206 l 784 -211 l -8 -211 z "},"‚":{"ha":470,"x_min":53,"x_max":414,"o":"m 53 -217 l 53 -212 q 203 -187 134 -212 q 322 -114 273 -162 q 393 5 372 -65 q 399 167 414 75 l 401 167 q 374 75 401 115 q 306 10 347 34 q 219 -14 264 -14 q 100 36 144 -14 q 56 151 56 86 q 80 233 56 195 q 144 294 104 271 q 232 317 185 317 q 321 290 280 317 q 388 215 363 263 q 413 103 413 167 q 367 -66 413 6 q 241 -177 322 -138 q 53 -217 160 -217 z "},"„":{"ha":888,"x_min":53,"x_max":838,"o":"m 476 -217 l 476 -212 q 627 -187 558 -212 q 746 -114 697 -162 q 816 5 795 -65 q 822 167 838 75 l 824 167 q 798 75 824 115 q 729 10 771 34 q 643 -14 688 -14 q 523 36 567 -14 q 479 151 479 86 q 503 233 479 195 q 568 294 528 271 q 656 317 608 317 q 744 290 703 317 q 811 215 785 263 q 836 103 836 167 q 791 -66 836 6 q 665 -177 746 -138 q 476 -217 584 -217 m 53 -217 l 53 -212 q 203 -187 134 -212 q 322 -114 273 -162 q 393 5 372 -65 q 399 167 414 75 l 401 167 q 374 75 401 115 q 306 10 347 34 q 219 -14 264 -14 q 100 36 144 -14 q 56 151 56 86 q 80 233 56 195 q 144 294 104 271 q 232 317 185 317 q 321 290 280 317 q 388 215 363 263 q 413 103 413 167 q 367 -66 413 6 q 241 -177 322 -138 q 53 -217 160 -217 z "}}}
